<svg width="10" height="13" viewBox="0 0 10 13" fill="none" xmlns="http://www.w3.org/2000/svg">
<path d="M5.15971 0H4.84029C3.50381 0 2.42039 1.03934 2.42039 2.32143V6.45357C2.42039 7.73566 3.50381 8.775 4.84029 8.775H5.15971C6.49619 8.775 7.57961 7.73566 7.57961 6.45357V2.32143C7.57961 1.03934 6.49619 0 5.15971 0Z" fill="#3B82F6"/>
<path d="M9.51602 5.47532C9.38766 5.47532 9.26456 5.52424 9.17379 5.61131C9.08303 5.69838 9.03204 5.81647 9.03204 5.93961C9.03204 6.96546 8.60724 7.94929 7.85108 8.67467C7.09493 9.40005 6.06936 9.80757 5 9.80757C3.93064 9.80757 2.90507 9.40005 2.14892 8.67467C1.39276 7.94929 0.967961 6.96546 0.967961 5.93961C0.967961 5.81647 0.91697 5.69838 0.826206 5.61131C0.735442 5.52424 0.61234 5.47532 0.48398 5.47532C0.355621 5.47532 0.232518 5.52424 0.141754 5.61131C0.0509905 5.69838 0 5.81647 0 5.93961C0.00171407 7.13076 0.464801 8.2788 1.29934 9.1608C2.13388 10.0428 3.28031 10.5958 4.51602 10.7125V12.0714H2.90291C2.77455 12.0714 2.65145 12.1203 2.56069 12.2074C2.46992 12.2945 2.41893 12.4126 2.41893 12.5357C2.41893 12.6588 2.46992 12.7769 2.56069 12.864C2.65145 12.9511 2.77455 13 2.90291 13H7.09709C7.22545 13 7.34855 12.9511 7.43931 12.864C7.53008 12.7769 7.58107 12.6588 7.58107 12.5357C7.58107 12.4126 7.53008 12.2945 7.43931 12.2074C7.34855 12.1203 7.22545 12.0714 7.09709 12.0714H5.48398V10.7125C6.71969 10.5958 7.86613 10.0428 8.70066 9.1608C9.5352 8.2788 9.99829 7.13076 10 5.93961C10 5.81647 9.94901 5.69838 9.85825 5.61131C9.76748 5.52424 9.64438 5.47532 9.51602 5.47532Z" fill="#3B82F6"/>
</svg>
