<svg width="11" height="11" viewBox="0 0 11 11" fill="none" xmlns="http://www.w3.org/2000/svg">
<path d="M9.04886 8.27063L7.29299 7.83155L7.14356 7.23388C7.61336 6.76867 7.93511 6.12975 8.03044 5.47433C8.29076 5.401 8.49243 5.17778 8.52726 4.89775L8.64184 3.98108C8.66614 3.78765 8.60654 3.59195 8.47821 3.44528C8.40363 3.35995 8.30919 3.29431 8.20321 3.25415L8.24539 2.3911L8.41681 2.21923C8.67486 1.94468 8.88888 1.47398 8.44156 0.791055C8.09781 0.266299 7.51391 0 6.70541 0C6.38641 0 5.65216 0 4.96834 0.45925C3.01582 0.500049 2.74999 1.40708 2.74999 2.29167C2.74999 2.49747 2.79995 2.96085 2.83295 3.24042C2.71387 3.27796 2.60735 3.34738 2.52495 3.44117C2.46045 3.51429 2.41222 3.60027 2.38346 3.69343C2.3547 3.78659 2.34606 3.8848 2.35812 3.98155L2.4727 4.89822C2.51027 5.19705 2.73715 5.43217 3.02407 5.4881C3.11895 6.1183 3.42419 6.7366 3.86694 7.19402L3.70744 7.83247L1.95157 8.27155C0.802074 8.558 0 9.58558 0 10.7708C0 10.8973 0.102674 11 0.229173 11H10.7708C10.8973 11 11 10.8964 11 10.7699C11.0007 10.1952 10.8089 9.63688 10.4553 9.1839C10.1017 8.73091 9.60653 8.40939 9.04886 8.27063Z" fill="#3B82F6"/>
</svg>
