<svg width="1539" height="450" viewBox="0 0 1539 450" fill="none" xmlns="http://www.w3.org/2000/svg">
<mask id="mask0_202_109" style="mask-type:alpha" maskUnits="userSpaceOnUse" x="0" y="0" width="1539" height="450">
<path d="M0 23C0 10.2974 10.2975 0 23 0H1516C1528.7 0 1539 10.2975 1539 23V427C1539 439.703 1528.7 450 1516 450H23C10.2975 450 0 439.703 0 427V23Z" fill="#F8FAFD"/>
</mask>
<g mask="url(#mask0_202_109)">
<path d="M1476.2 -8.60207C1476.86 -8.60207 1477.4 -9.13886 1477.4 -9.80103C1477.4 -10.4632 1476.86 -11 1476.2 -11C1475.54 -11 1475 -10.4632 1475 -9.80103C1475 -9.13886 1475.54 -8.60207 1476.2 -8.60207Z" fill="#A8C5F1"/>
<path d="M1486.47 -8.60207C1487.13 -8.60207 1487.66 -9.13886 1487.66 -9.80103C1487.66 -10.4632 1487.13 -11 1486.47 -11C1485.8 -11 1485.27 -10.4632 1485.27 -9.80103C1485.27 -9.13886 1485.8 -8.60207 1486.47 -8.60207Z" fill="#A8C5F1"/>
<path d="M1496.73 -8.60207C1497.39 -8.60207 1497.93 -9.13886 1497.93 -9.80103C1497.93 -10.4632 1497.39 -11 1496.73 -11C1496.07 -11 1495.54 -10.4632 1495.54 -9.80103C1495.54 -9.13886 1496.07 -8.60207 1496.73 -8.60207Z" fill="#A8C5F1"/>
<path d="M1508.2 -9.80103C1508.2 -9.5639 1508.13 -9.33209 1508 -9.13492C1507.87 -8.93776 1507.68 -8.78408 1507.46 -8.69334C1507.24 -8.60259 1507 -8.57885 1506.77 -8.62511C1506.54 -8.67137 1506.32 -8.78556 1506.15 -8.95324C1505.99 -9.12092 1505.87 -9.33455 1505.83 -9.56713C1505.78 -9.7997 1505.8 -10.0408 1505.89 -10.2599C1505.99 -10.4789 1506.14 -10.6662 1506.34 -10.7979C1506.53 -10.9297 1506.76 -11 1507 -11C1507.32 -11 1507.62 -10.8737 1507.85 -10.6488C1508.07 -10.424 1508.2 -10.119 1508.2 -9.80103Z" fill="#A8C5F1"/>
<path d="M1517.27 -8.60207C1517.93 -8.60207 1518.47 -9.13886 1518.47 -9.80103C1518.47 -10.4632 1517.93 -11 1517.27 -11C1516.61 -11 1516.07 -10.4632 1516.07 -9.80103C1516.07 -9.13886 1516.61 -8.60207 1517.27 -8.60207Z" fill="#A8C5F1"/>
<path d="M1527.54 -8.60207C1528.2 -8.60207 1528.73 -9.13886 1528.73 -9.80103C1528.73 -10.4632 1528.2 -11 1527.54 -11C1526.88 -11 1526.34 -10.4632 1526.34 -9.80103C1526.34 -9.13886 1526.88 -8.60207 1527.54 -8.60207Z" fill="#A8C5F1"/>
<path d="M1537.8 -8.60207C1538.46 -8.60207 1539 -9.13886 1539 -9.80103C1539 -10.4632 1538.46 -11 1537.8 -11C1537.14 -11 1536.6 -10.4632 1536.6 -9.80103C1536.6 -9.13886 1537.14 -8.60207 1537.8 -8.60207Z" fill="#A8C5F1"/>
<path d="M1476.2 1.67531C1476.86 1.67531 1477.4 1.13852 1477.4 0.476348C1477.4 -0.185822 1476.86 -0.722617 1476.2 -0.722617C1475.54 -0.722617 1475 -0.185822 1475 0.476348C1475 1.13852 1475.54 1.67531 1476.2 1.67531Z" fill="#A8C5F1"/>
<path d="M1486.47 1.67531C1487.13 1.67531 1487.66 1.13852 1487.66 0.476348C1487.66 -0.185822 1487.13 -0.722617 1486.47 -0.722617C1485.8 -0.722617 1485.27 -0.185822 1485.27 0.476348C1485.27 1.13852 1485.8 1.67531 1486.47 1.67531Z" fill="#A8C5F1"/>
<path d="M1496.73 1.67531C1497.39 1.67531 1497.93 1.13852 1497.93 0.476348C1497.93 -0.185822 1497.39 -0.722617 1496.73 -0.722617C1496.07 -0.722617 1495.54 -0.185822 1495.54 0.476348C1495.54 1.13852 1496.07 1.67531 1496.73 1.67531Z" fill="#A8C5F1"/>
<path d="M1508.2 0.476396C1508.2 0.713429 1508.13 0.945007 1508 1.14187C1507.86 1.33873 1507.68 1.49204 1507.46 1.58243C1507.24 1.67282 1507 1.69623 1506.77 1.64971C1506.53 1.60318 1506.32 1.4888 1506.15 1.32103C1505.99 1.15326 1505.87 0.939625 1505.83 0.707113C1505.78 0.4746 1505.8 0.233648 1505.89 0.014702C1505.99 -0.204244 1506.14 -0.391359 1506.34 -0.523C1506.53 -0.654641 1506.76 -0.724904 1507 -0.724904C1507.16 -0.724905 1507.31 -0.693812 1507.46 -0.633413C1507.61 -0.573013 1507.74 -0.48449 1507.85 -0.372908C1507.96 -0.261327 1508.05 -0.128879 1508.11 0.0168556C1508.17 0.16259 1508.2 0.31875 1508.2 0.476396Z" fill="#A8C5F1"/>
<path d="M1517.27 1.67531C1517.93 1.67531 1518.47 1.13852 1518.47 0.476348C1518.47 -0.185822 1517.93 -0.722617 1517.27 -0.722617C1516.61 -0.722617 1516.07 -0.185822 1516.07 0.476348C1516.07 1.13852 1516.61 1.67531 1517.27 1.67531Z" fill="#A8C5F1"/>
<path d="M1527.54 1.67531C1528.2 1.67531 1528.73 1.13852 1528.73 0.476348C1528.73 -0.185822 1528.2 -0.722617 1527.54 -0.722617C1526.88 -0.722617 1526.34 -0.185822 1526.34 0.476348C1526.34 1.13852 1526.88 1.67531 1527.54 1.67531Z" fill="#A8C5F1"/>
<path d="M1537.8 1.67531C1538.46 1.67531 1539 1.13852 1539 0.476348C1539 -0.185822 1538.46 -0.722617 1537.8 -0.722617C1537.14 -0.722617 1536.6 -0.185822 1536.6 0.476348C1536.6 1.13852 1537.14 1.67531 1537.8 1.67531Z" fill="#A8C5F1"/>
<path d="M1476.2 11.8876C1476.86 11.8876 1477.4 11.3508 1477.4 10.6886C1477.4 10.0265 1476.86 9.48966 1476.2 9.48966C1475.54 9.48966 1475 10.0265 1475 10.6886C1475 11.3508 1475.54 11.8876 1476.2 11.8876Z" fill="#A8C5F1"/>
<path d="M1486.47 11.8876C1487.13 11.8876 1487.66 11.3508 1487.66 10.6886C1487.66 10.0265 1487.13 9.48966 1486.47 9.48966C1485.8 9.48966 1485.27 10.0265 1485.27 10.6886C1485.27 11.3508 1485.8 11.8876 1486.47 11.8876Z" fill="#A8C5F1"/>
<path d="M1496.73 11.8876C1497.39 11.8876 1497.93 11.3508 1497.93 10.6886C1497.93 10.0265 1497.39 9.48966 1496.73 9.48966C1496.07 9.48966 1495.54 10.0265 1495.54 10.6886C1495.54 11.3508 1496.07 11.8876 1496.73 11.8876Z" fill="#A8C5F1"/>
<path d="M1508.2 10.6886C1508.2 10.9258 1508.13 11.1576 1508 11.3547C1507.87 11.5519 1507.68 11.7056 1507.46 11.7963C1507.24 11.8871 1507 11.9108 1506.77 11.8645C1506.54 11.8183 1506.32 11.7041 1506.15 11.5364C1505.99 11.3687 1505.87 11.1551 1505.83 10.9225C1505.78 10.69 1505.8 10.4489 1505.89 10.2298C1505.99 10.0107 1506.14 9.82346 1506.34 9.69172C1506.53 9.55998 1506.76 9.48966 1507 9.48966C1507.32 9.48966 1507.62 9.61598 1507.85 9.84082C1508.07 10.0657 1508.2 10.3706 1508.2 10.6886Z" fill="#A8C5F1"/>
<path d="M1517.27 11.8876C1517.93 11.8876 1518.47 11.3508 1518.47 10.6886C1518.47 10.0265 1517.93 9.48966 1517.27 9.48966C1516.61 9.48966 1516.07 10.0265 1516.07 10.6886C1516.07 11.3508 1516.61 11.8876 1517.27 11.8876Z" fill="#A8C5F1"/>
<path d="M1527.54 11.8876C1528.2 11.8876 1528.73 11.3508 1528.73 10.6886C1528.73 10.0265 1528.2 9.48966 1527.54 9.48966C1526.88 9.48966 1526.34 10.0265 1526.34 10.6886C1526.34 11.3508 1526.88 11.8876 1527.54 11.8876Z" fill="#A8C5F1"/>
<path d="M1537.8 11.8876C1538.46 11.8876 1539 11.3508 1539 10.6886C1539 10.0265 1538.46 9.48966 1537.8 9.48966C1537.14 9.48966 1536.6 10.0265 1536.6 10.6886C1536.6 11.3508 1537.14 11.8876 1537.8 11.8876Z" fill="#A8C5F1"/>
<path d="M1476.2 22.1674C1476.86 22.1674 1477.4 21.6306 1477.4 20.9685C1477.4 20.3063 1476.86 19.7695 1476.2 19.7695C1475.54 19.7695 1475 20.3063 1475 20.9685C1475 21.6306 1475.54 22.1674 1476.2 22.1674Z" fill="#A8C5F1"/>
<path d="M1486.47 22.1674C1487.13 22.1674 1487.66 21.6306 1487.66 20.9685C1487.66 20.3063 1487.13 19.7695 1486.47 19.7695C1485.8 19.7695 1485.27 20.3063 1485.27 20.9685C1485.27 21.6306 1485.8 22.1674 1486.47 22.1674Z" fill="#A8C5F1"/>
<path d="M1496.73 22.1674C1497.39 22.1674 1497.93 21.6306 1497.93 20.9685C1497.93 20.3063 1497.39 19.7695 1496.73 19.7695C1496.07 19.7695 1495.54 20.3063 1495.54 20.9685C1495.54 21.6306 1496.07 22.1674 1496.73 22.1674Z" fill="#A8C5F1"/>
<path d="M1508.2 20.9685C1508.2 21.2055 1508.13 21.4371 1508 21.634C1507.86 21.8308 1507.68 21.9842 1507.46 22.0745C1507.24 22.1649 1507 22.1883 1506.77 22.1418C1506.53 22.0953 1506.32 21.9809 1506.15 21.8132C1505.99 21.6454 1505.87 21.4317 1505.83 21.1992C1505.78 20.9667 1505.8 20.7258 1505.89 20.5068C1505.99 20.2879 1506.14 20.1008 1506.34 19.9691C1506.53 19.8375 1506.76 19.7672 1507 19.7672C1507.16 19.7672 1507.31 19.7983 1507.46 19.8587C1507.61 19.9191 1507.74 20.0076 1507.85 20.1192C1507.96 20.2308 1508.05 20.3632 1508.11 20.509C1508.17 20.6547 1508.2 20.8109 1508.2 20.9685Z" fill="#A8C5F1"/>
<path d="M1517.27 22.1674C1517.93 22.1674 1518.47 21.6306 1518.47 20.9685C1518.47 20.3063 1517.93 19.7695 1517.27 19.7695C1516.61 19.7695 1516.07 20.3063 1516.07 20.9685C1516.07 21.6306 1516.61 22.1674 1517.27 22.1674Z" fill="#A8C5F1"/>
<path d="M1527.54 22.1674C1528.2 22.1674 1528.73 21.6306 1528.73 20.9685C1528.73 20.3063 1528.2 19.7695 1527.54 19.7695C1526.88 19.7695 1526.34 20.3063 1526.34 20.9685C1526.34 21.6306 1526.88 22.1674 1527.54 22.1674Z" fill="#A8C5F1"/>
<path d="M1537.8 22.1674C1538.46 22.1674 1539 21.6306 1539 20.9685C1539 20.3063 1538.46 19.7695 1537.8 19.7695C1537.14 19.7695 1536.6 20.3063 1536.6 20.9685C1536.6 21.6306 1537.14 22.1674 1537.8 22.1674Z" fill="#A8C5F1"/>
<path d="M1476.2 32.4426C1476.86 32.4426 1477.4 31.9058 1477.4 31.2437C1477.4 30.5815 1476.86 30.0447 1476.2 30.0447C1475.54 30.0447 1475 30.5815 1475 31.2437C1475 31.9058 1475.54 32.4426 1476.2 32.4426Z" fill="#A8C5F1"/>
<path d="M1486.47 32.4426C1487.13 32.4426 1487.66 31.9058 1487.66 31.2437C1487.66 30.5815 1487.13 30.0447 1486.47 30.0447C1485.8 30.0447 1485.27 30.5815 1485.27 31.2437C1485.27 31.9058 1485.8 32.4426 1486.47 32.4426Z" fill="#A8C5F1"/>
<path d="M1496.73 32.4426C1497.39 32.4426 1497.93 31.9058 1497.93 31.2437C1497.93 30.5815 1497.39 30.0447 1496.73 30.0447C1496.07 30.0447 1495.54 30.5815 1495.54 31.2437C1495.54 31.9058 1496.07 32.4426 1496.73 32.4426Z" fill="#A8C5F1"/>
<path d="M1508.2 31.2437C1508.2 31.4808 1508.13 31.7126 1508 31.9098C1507.87 32.107 1507.68 32.2606 1507.46 32.3514C1507.24 32.4421 1507 32.4659 1506.77 32.4196C1506.54 32.3733 1506.32 32.2592 1506.15 32.0915C1505.99 31.9238 1505.87 31.7102 1505.83 31.4776C1505.78 31.245 1505.8 31.0039 1505.89 30.7849C1505.99 30.5658 1506.14 30.3785 1506.34 30.2468C1506.53 30.115 1506.76 30.0447 1507 30.0447C1507.32 30.0453 1507.62 30.1718 1507.85 30.3966C1508.07 30.6213 1508.2 30.9259 1508.2 31.2437Z" fill="#A8C5F1"/>
<path d="M1517.27 32.4426C1517.93 32.4426 1518.47 31.9058 1518.47 31.2437C1518.47 30.5815 1517.93 30.0447 1517.27 30.0447C1516.61 30.0447 1516.07 30.5815 1516.07 31.2437C1516.07 31.9058 1516.61 32.4426 1517.27 32.4426Z" fill="#A8C5F1"/>
<path d="M1527.54 32.4426C1528.2 32.4426 1528.73 31.9058 1528.73 31.2437C1528.73 30.5815 1528.2 30.0447 1527.54 30.0447C1526.88 30.0447 1526.34 30.5815 1526.34 31.2437C1526.34 31.9058 1526.88 32.4426 1527.54 32.4426Z" fill="#A8C5F1"/>
<path d="M1537.8 32.4426C1538.46 32.4426 1539 31.9058 1539 31.2437C1539 30.5815 1538.46 30.0447 1537.8 30.0447C1537.14 30.0447 1536.6 30.5815 1536.6 31.2437C1536.6 31.9058 1537.14 32.4426 1537.8 32.4426Z" fill="#A8C5F1"/>
<path d="M1476.2 42.6572C1476.86 42.6572 1477.4 42.1204 1477.4 41.4582C1477.4 40.7961 1476.86 40.2593 1476.2 40.2593C1475.54 40.2593 1475 40.7961 1475 41.4582C1475 42.1204 1475.54 42.6572 1476.2 42.6572Z" fill="#A8C5F1"/>
<path d="M1486.47 42.6572C1487.13 42.6572 1487.66 42.1204 1487.66 41.4582C1487.66 40.7961 1487.13 40.2593 1486.47 40.2593C1485.8 40.2593 1485.27 40.7961 1485.27 41.4582C1485.27 42.1204 1485.8 42.6572 1486.47 42.6572Z" fill="#A8C5F1"/>
<path d="M1496.73 42.6572C1497.39 42.6572 1497.93 42.1204 1497.93 41.4582C1497.93 40.7961 1497.39 40.2593 1496.73 40.2593C1496.07 40.2593 1495.54 40.7961 1495.54 41.4582C1495.54 42.1204 1496.07 42.6572 1496.73 42.6572Z" fill="#A8C5F1"/>
<path d="M1508.2 41.4582C1508.2 41.6954 1508.13 41.9272 1508 42.1244C1507.87 42.3215 1507.68 42.4752 1507.46 42.5659C1507.24 42.6567 1507 42.6804 1506.77 42.6342C1506.54 42.5879 1506.32 42.4737 1506.15 42.306C1505.99 42.1384 1505.87 41.9247 1505.83 41.6921C1505.78 41.4596 1505.8 41.2185 1505.89 40.9994C1505.99 40.7803 1506.14 40.5931 1506.34 40.4613C1506.53 40.3296 1506.76 40.2593 1507 40.2593C1507.32 40.2593 1507.62 40.3856 1507.85 40.6105C1508.07 40.8353 1508.2 41.1403 1508.2 41.4582Z" fill="#A8C5F1"/>
<path d="M1517.27 42.6572C1517.93 42.6572 1518.47 42.1204 1518.47 41.4582C1518.47 40.7961 1517.93 40.2593 1517.27 40.2593C1516.61 40.2593 1516.07 40.7961 1516.07 41.4582C1516.07 42.1204 1516.61 42.6572 1517.27 42.6572Z" fill="#A8C5F1"/>
<path d="M1527.54 42.6572C1528.2 42.6572 1528.73 42.1204 1528.73 41.4582C1528.73 40.7961 1528.2 40.2593 1527.54 40.2593C1526.88 40.2593 1526.34 40.7961 1526.34 41.4582C1526.34 42.1204 1526.88 42.6572 1527.54 42.6572Z" fill="#A8C5F1"/>
<path d="M1537.8 42.6572C1538.46 42.6572 1539 42.1204 1539 41.4582C1539 40.7961 1538.46 40.2593 1537.8 40.2593C1537.14 40.2593 1536.6 40.7961 1536.6 41.4582C1536.6 42.1204 1537.14 42.6572 1537.8 42.6572Z" fill="#A8C5F1"/>
<path d="M1476.2 53C1476.86 53 1477.4 52.4632 1477.4 51.801C1477.4 51.1389 1476.86 50.6021 1476.2 50.6021C1475.54 50.6021 1475 51.1389 1475 51.801C1475 52.4632 1475.54 53 1476.2 53Z" fill="#A8C5F1"/>
<path d="M1486.47 53C1487.13 53 1487.66 52.4632 1487.66 51.801C1487.66 51.1389 1487.13 50.6021 1486.47 50.6021C1485.8 50.6021 1485.27 51.1389 1485.27 51.801C1485.27 52.4632 1485.8 53 1486.47 53Z" fill="#A8C5F1"/>
<path d="M1496.73 53C1497.39 53 1497.93 52.4632 1497.93 51.801C1497.93 51.1389 1497.39 50.6021 1496.73 50.6021C1496.07 50.6021 1495.54 51.1389 1495.54 51.801C1495.54 52.4632 1496.07 53 1496.73 53Z" fill="#A8C5F1"/>
<path d="M1508.2 51.801C1508.2 52.0382 1508.13 52.27 1508 52.4671C1507.87 52.6643 1507.68 52.818 1507.46 52.9087C1507.24 52.9995 1507 53.0232 1506.77 52.977C1506.54 52.9307 1506.32 52.8165 1506.15 52.6488C1505.99 52.4811 1505.87 52.2675 1505.83 52.0349C1505.78 51.8024 1505.8 51.5613 1505.89 51.3422C1505.99 51.1231 1506.14 50.9359 1506.34 50.8041C1506.53 50.6724 1506.76 50.6021 1507 50.6021C1507.32 50.6021 1507.62 50.7284 1507.85 50.9532C1508.07 51.1781 1508.2 51.483 1508.2 51.801Z" fill="#A8C5F1"/>
<path d="M1517.27 53C1517.93 53 1518.47 52.4632 1518.47 51.801C1518.47 51.1389 1517.93 50.6021 1517.27 50.6021C1516.61 50.6021 1516.07 51.1389 1516.07 51.801C1516.07 52.4632 1516.61 53 1517.27 53Z" fill="#A8C5F1"/>
<path d="M1527.54 53C1528.2 53 1528.73 52.4632 1528.73 51.801C1528.73 51.1389 1528.2 50.6021 1527.54 50.6021C1526.88 50.6021 1526.34 51.1389 1526.34 51.801C1526.34 52.4632 1526.88 53 1527.54 53Z" fill="#A8C5F1"/>
<path d="M1537.8 53C1538.46 53 1539 52.4632 1539 51.801C1539 51.1389 1538.46 50.6021 1537.8 50.6021C1537.14 50.6021 1536.6 51.1389 1536.6 51.801C1536.6 52.4632 1537.14 53 1537.8 53Z" fill="#A8C5F1"/>
<circle cx="164" cy="73" r="5" fill="#3B82F6"/>
<circle cx="1438" cy="223" r="3" fill="#0F4C81"/>
</g>
<g opacity="0.2">
<path d="M443.067 114.098C443.656 114.098 444.133 113.628 444.133 113.049C444.133 112.47 443.656 112 443.067 112C442.478 112 442 112.47 442 113.049C442 113.628 442.478 114.098 443.067 114.098Z" fill="#0F4C81"/>
<path d="M452.211 114.098C452.8 114.098 453.278 113.628 453.278 113.049C453.278 112.47 452.8 112 452.211 112C451.622 112 451.145 112.47 451.145 113.049C451.145 113.628 451.622 114.098 452.211 114.098Z" fill="#0F4C81"/>
<path d="M461.356 114.098C461.945 114.098 462.423 113.628 462.423 113.049C462.423 112.47 461.945 112 461.356 112C460.767 112 460.289 112.47 460.289 113.049C460.289 113.628 460.767 114.098 461.356 114.098Z" fill="#0F4C81"/>
<path d="M471.568 113.049C471.568 113.257 471.505 113.459 471.388 113.632C471.271 113.804 471.104 113.939 470.909 114.018C470.714 114.098 470.5 114.119 470.293 114.078C470.086 114.038 469.896 113.938 469.747 113.791C469.598 113.644 469.496 113.457 469.455 113.254C469.414 113.05 469.435 112.839 469.516 112.648C469.596 112.456 469.733 112.292 469.908 112.177C470.084 112.062 470.29 112 470.501 112C470.784 112 471.055 112.111 471.255 112.307C471.455 112.504 471.568 112.771 471.568 113.049Z" fill="#0F4C81"/>
<path d="M479.646 114.098C480.235 114.098 480.712 113.628 480.712 113.049C480.712 112.47 480.235 112 479.646 112C479.057 112 478.579 112.47 478.579 113.049C478.579 113.628 479.057 114.098 479.646 114.098Z" fill="#0F4C81"/>
<path d="M488.791 114.098C489.38 114.098 489.858 113.628 489.858 113.049C489.858 112.47 489.38 112 488.791 112C488.202 112 487.724 112.47 487.724 113.049C487.724 113.628 488.202 114.098 488.791 114.098Z" fill="#0F4C81"/>
<path d="M497.933 114.098C498.522 114.098 499 113.628 499 113.049C499 112.47 498.522 112 497.933 112C497.344 112 496.867 112.47 496.867 113.049C496.867 113.628 497.344 114.098 497.933 114.098Z" fill="#0F4C81"/>
<path d="M443.067 123.091C443.656 123.091 444.133 122.621 444.133 122.042C444.133 121.462 443.656 120.993 443.067 120.993C442.478 120.993 442 121.462 442 122.042C442 122.621 442.478 123.091 443.067 123.091Z" fill="#0F4C81"/>
<path d="M452.211 123.091C452.8 123.091 453.278 122.621 453.278 122.042C453.278 121.462 452.8 120.993 452.211 120.993C451.622 120.993 451.145 121.462 451.145 122.042C451.145 122.621 451.622 123.091 452.211 123.091Z" fill="#0F4C81"/>
<path d="M461.356 123.091C461.945 123.091 462.423 122.621 462.423 122.042C462.423 121.462 461.945 120.993 461.356 120.993C460.767 120.993 460.289 121.462 460.289 122.042C460.289 122.621 460.767 123.091 461.356 123.091Z" fill="#0F4C81"/>
<path d="M471.568 122.042C471.567 122.249 471.504 122.452 471.387 122.624C471.269 122.796 471.103 122.931 470.908 123.01C470.713 123.089 470.498 123.109 470.292 123.068C470.085 123.028 469.895 122.928 469.746 122.781C469.597 122.634 469.496 122.447 469.455 122.244C469.414 122.04 469.435 121.829 469.516 121.638C469.597 121.446 469.733 121.283 469.909 121.167C470.084 121.052 470.29 120.991 470.501 120.991C470.641 120.991 470.78 121.018 470.91 121.071C471.039 121.124 471.157 121.201 471.256 121.299C471.355 121.396 471.434 121.512 471.487 121.64C471.541 121.767 471.568 121.904 471.568 122.042Z" fill="#0F4C81"/>
<path d="M479.646 123.091C480.235 123.091 480.712 122.621 480.712 122.042C480.712 121.462 480.235 120.993 479.646 120.993C479.057 120.993 478.579 121.462 478.579 122.042C478.579 122.621 479.057 123.091 479.646 123.091Z" fill="#0F4C81"/>
<path d="M488.791 123.091C489.38 123.091 489.858 122.621 489.858 122.042C489.858 121.462 489.38 120.993 488.791 120.993C488.202 120.993 487.724 121.462 487.724 122.042C487.724 122.621 488.202 123.091 488.791 123.091Z" fill="#0F4C81"/>
<path d="M497.933 123.091C498.522 123.091 499 122.621 499 122.042C499 121.462 498.522 120.993 497.933 120.993C497.344 120.993 496.867 121.462 496.867 122.042C496.867 122.621 497.344 123.091 497.933 123.091Z" fill="#0F4C81"/>
<path d="M443.067 132.027C443.656 132.027 444.133 131.557 444.133 130.978C444.133 130.398 443.656 129.928 443.067 129.928C442.478 129.928 442 130.398 442 130.978C442 131.557 442.478 132.027 443.067 132.027Z" fill="#0F4C81"/>
<path d="M452.211 132.027C452.8 132.027 453.278 131.557 453.278 130.978C453.278 130.398 452.8 129.928 452.211 129.928C451.622 129.928 451.145 130.398 451.145 130.978C451.145 131.557 451.622 132.027 452.211 132.027Z" fill="#0F4C81"/>
<path d="M461.356 132.027C461.945 132.027 462.423 131.557 462.423 130.978C462.423 130.398 461.945 129.928 461.356 129.928C460.767 129.928 460.289 130.398 460.289 130.978C460.289 131.557 460.767 132.027 461.356 132.027Z" fill="#0F4C81"/>
<path d="M471.568 130.978C471.568 131.185 471.505 131.388 471.388 131.56C471.271 131.733 471.104 131.867 470.909 131.947C470.714 132.026 470.5 132.047 470.293 132.006C470.086 131.966 469.896 131.866 469.747 131.719C469.598 131.573 469.496 131.386 469.455 131.182C469.414 130.979 469.435 130.768 469.516 130.576C469.596 130.384 469.733 130.221 469.908 130.105C470.084 129.99 470.29 129.928 470.501 129.928C470.784 129.928 471.055 130.039 471.255 130.236C471.455 130.432 471.568 130.699 471.568 130.978Z" fill="#0F4C81"/>
<path d="M479.646 132.027C480.235 132.027 480.712 131.557 480.712 130.978C480.712 130.398 480.235 129.928 479.646 129.928C479.057 129.928 478.579 130.398 478.579 130.978C478.579 131.557 479.057 132.027 479.646 132.027Z" fill="#0F4C81"/>
<path d="M488.791 132.027C489.38 132.027 489.858 131.557 489.858 130.978C489.858 130.398 489.38 129.928 488.791 129.928C488.202 129.928 487.724 130.398 487.724 130.978C487.724 131.557 488.202 132.027 488.791 132.027Z" fill="#0F4C81"/>
<path d="M497.933 132.027C498.522 132.027 499 131.557 499 130.978C499 130.398 498.522 129.928 497.933 129.928C497.344 129.928 496.867 130.398 496.867 130.978C496.867 131.557 497.344 132.027 497.933 132.027Z" fill="#0F4C81"/>
<path d="M443.067 141.022C443.656 141.022 444.133 140.552 444.133 139.972C444.133 139.393 443.656 138.923 443.067 138.923C442.478 138.923 442 139.393 442 139.972C442 140.552 442.478 141.022 443.067 141.022Z" fill="#0F4C81"/>
<path d="M452.211 141.022C452.8 141.022 453.278 140.552 453.278 139.972C453.278 139.393 452.8 138.923 452.211 138.923C451.622 138.923 451.145 139.393 451.145 139.972C451.145 140.552 451.622 141.022 452.211 141.022Z" fill="#0F4C81"/>
<path d="M461.356 141.022C461.945 141.022 462.423 140.552 462.423 139.972C462.423 139.393 461.945 138.923 461.356 138.923C460.767 138.923 460.289 139.393 460.289 139.972C460.289 140.552 460.767 141.022 461.356 141.022Z" fill="#0F4C81"/>
<path d="M471.568 139.972C471.567 140.18 471.504 140.382 471.387 140.555C471.269 140.727 471.103 140.861 470.908 140.94C470.713 141.019 470.498 141.04 470.292 140.999C470.085 140.958 469.895 140.858 469.746 140.712C469.597 140.565 469.496 140.378 469.455 140.174C469.414 139.971 469.435 139.76 469.516 139.568C469.597 139.377 469.733 139.213 469.909 139.098C470.084 138.983 470.29 138.921 470.501 138.921C470.641 138.921 470.78 138.949 470.91 139.001C471.039 139.054 471.157 139.132 471.256 139.229C471.355 139.327 471.434 139.443 471.487 139.57C471.541 139.698 471.568 139.835 471.568 139.972Z" fill="#0F4C81"/>
<path d="M479.646 141.022C480.235 141.022 480.712 140.552 480.712 139.972C480.712 139.393 480.235 138.923 479.646 138.923C479.057 138.923 478.579 139.393 478.579 139.972C478.579 140.552 479.057 141.022 479.646 141.022Z" fill="#0F4C81"/>
<path d="M488.791 141.022C489.38 141.022 489.858 140.552 489.858 139.972C489.858 139.393 489.38 138.923 488.791 138.923C488.202 138.923 487.724 139.393 487.724 139.972C487.724 140.552 488.202 141.022 488.791 141.022Z" fill="#0F4C81"/>
<path d="M497.933 141.022C498.522 141.022 499 140.552 499 139.972C499 139.393 498.522 138.923 497.933 138.923C497.344 138.923 496.867 139.393 496.867 139.972C496.867 140.552 497.344 141.022 497.933 141.022Z" fill="#0F4C81"/>
<path d="M443.067 150.012C443.656 150.012 444.133 149.543 444.133 148.963C444.133 148.384 443.656 147.914 443.067 147.914C442.478 147.914 442 148.384 442 148.963C442 149.543 442.478 150.012 443.067 150.012Z" fill="#0F4C81"/>
<path d="M452.211 150.012C452.8 150.012 453.278 149.543 453.278 148.963C453.278 148.384 452.8 147.914 452.211 147.914C451.622 147.914 451.145 148.384 451.145 148.963C451.145 149.543 451.622 150.012 452.211 150.012Z" fill="#0F4C81"/>
<path d="M461.356 150.012C461.945 150.012 462.423 149.543 462.423 148.963C462.423 148.384 461.945 147.914 461.356 147.914C460.767 147.914 460.289 148.384 460.289 148.963C460.289 149.543 460.767 150.012 461.356 150.012Z" fill="#0F4C81"/>
<path d="M471.568 148.963C471.568 149.171 471.505 149.374 471.388 149.546C471.271 149.719 471.104 149.853 470.909 149.932C470.714 150.012 470.5 150.033 470.293 149.992C470.086 149.952 469.896 149.852 469.747 149.705C469.598 149.558 469.496 149.371 469.455 149.168C469.414 148.964 469.435 148.753 469.516 148.562C469.596 148.37 469.733 148.206 469.908 148.091C470.084 147.976 470.29 147.914 470.501 147.914C470.784 147.915 471.055 148.025 471.255 148.222C471.454 148.419 471.567 148.685 471.568 148.963Z" fill="#0F4C81"/>
<path d="M479.646 150.012C480.235 150.012 480.712 149.543 480.712 148.963C480.712 148.384 480.235 147.914 479.646 147.914C479.057 147.914 478.579 148.384 478.579 148.963C478.579 149.543 479.057 150.012 479.646 150.012Z" fill="#0F4C81"/>
<path d="M488.791 150.012C489.38 150.012 489.858 149.543 489.858 148.963C489.858 148.384 489.38 147.914 488.791 147.914C488.202 147.914 487.724 148.384 487.724 148.963C487.724 149.543 488.202 150.012 488.791 150.012Z" fill="#0F4C81"/>
<path d="M497.933 150.012C498.522 150.012 499 149.543 499 148.963C499 148.384 498.522 147.914 497.933 147.914C497.344 147.914 496.867 148.384 496.867 148.963C496.867 149.543 497.344 150.012 497.933 150.012Z" fill="#0F4C81"/>
<path d="M443.067 158.95C443.656 158.95 444.133 158.48 444.133 157.901C444.133 157.322 443.656 156.852 443.067 156.852C442.478 156.852 442 157.322 442 157.901C442 158.48 442.478 158.95 443.067 158.95Z" fill="#0F4C81"/>
<path d="M452.211 158.95C452.8 158.95 453.278 158.48 453.278 157.901C453.278 157.322 452.8 156.852 452.211 156.852C451.622 156.852 451.145 157.322 451.145 157.901C451.145 158.48 451.622 158.95 452.211 158.95Z" fill="#0F4C81"/>
<path d="M461.356 158.95C461.945 158.95 462.423 158.48 462.423 157.901C462.423 157.322 461.945 156.852 461.356 156.852C460.767 156.852 460.289 157.322 460.289 157.901C460.289 158.48 460.767 158.95 461.356 158.95Z" fill="#0F4C81"/>
<path d="M471.568 157.901C471.568 158.108 471.505 158.311 471.388 158.484C471.271 158.656 471.104 158.791 470.909 158.87C470.714 158.95 470.5 158.97 470.293 158.93C470.086 158.889 469.896 158.79 469.747 158.643C469.598 158.496 469.496 158.309 469.455 158.106C469.414 157.902 469.435 157.691 469.516 157.499C469.596 157.308 469.733 157.144 469.908 157.029C470.084 156.913 470.29 156.852 470.501 156.852C470.784 156.852 471.055 156.962 471.255 157.159C471.455 157.356 471.568 157.623 471.568 157.901Z" fill="#0F4C81"/>
<path d="M479.646 158.95C480.235 158.95 480.712 158.48 480.712 157.901C480.712 157.322 480.235 156.852 479.646 156.852C479.057 156.852 478.579 157.322 478.579 157.901C478.579 158.48 479.057 158.95 479.646 158.95Z" fill="#0F4C81"/>
<path d="M488.791 158.95C489.38 158.95 489.858 158.48 489.858 157.901C489.858 157.322 489.38 156.852 488.791 156.852C488.202 156.852 487.724 157.322 487.724 157.901C487.724 158.48 488.202 158.95 488.791 158.95Z" fill="#0F4C81"/>
<path d="M497.933 158.95C498.522 158.95 499 158.48 499 157.901C499 157.322 498.522 156.852 497.933 156.852C497.344 156.852 496.867 157.322 496.867 157.901C496.867 158.48 497.344 158.95 497.933 158.95Z" fill="#0F4C81"/>
<path d="M443.067 168C443.656 168 444.133 167.53 444.133 166.951C444.133 166.372 443.656 165.902 443.067 165.902C442.478 165.902 442 166.372 442 166.951C442 167.53 442.478 168 443.067 168Z" fill="#0F4C81"/>
<path d="M452.211 168C452.8 168 453.278 167.53 453.278 166.951C453.278 166.372 452.8 165.902 452.211 165.902C451.622 165.902 451.145 166.372 451.145 166.951C451.145 167.53 451.622 168 452.211 168Z" fill="#0F4C81"/>
<path d="M461.356 168C461.945 168 462.423 167.53 462.423 166.951C462.423 166.372 461.945 165.902 461.356 165.902C460.767 165.902 460.289 166.372 460.289 166.951C460.289 167.53 460.767 168 461.356 168Z" fill="#0F4C81"/>
<path d="M471.568 166.951C471.568 167.158 471.505 167.361 471.388 167.534C471.271 167.706 471.104 167.841 470.909 167.92C470.714 168 470.5 168.02 470.293 167.98C470.086 167.939 469.896 167.839 469.747 167.693C469.598 167.546 469.496 167.359 469.455 167.156C469.414 166.952 469.435 166.741 469.516 166.549C469.596 166.358 469.733 166.194 469.908 166.079C470.084 165.963 470.29 165.902 470.501 165.902C470.784 165.902 471.055 166.012 471.255 166.209C471.455 166.406 471.568 166.673 471.568 166.951Z" fill="#0F4C81"/>
<path d="M479.646 168C480.235 168 480.712 167.53 480.712 166.951C480.712 166.372 480.235 165.902 479.646 165.902C479.057 165.902 478.579 166.372 478.579 166.951C478.579 167.53 479.057 168 479.646 168Z" fill="#0F4C81"/>
<path d="M488.791 168C489.38 168 489.858 167.53 489.858 166.951C489.858 166.372 489.38 165.902 488.791 165.902C488.202 165.902 487.724 166.372 487.724 166.951C487.724 167.53 488.202 168 488.791 168Z" fill="#0F4C81"/>
<path d="M497.933 168C498.522 168 499 167.53 499 166.951C499 166.372 498.522 165.902 497.933 165.902C497.344 165.902 496.867 166.372 496.867 166.951C496.867 167.53 497.344 168 497.933 168Z" fill="#0F4C81"/>
</g>
<g opacity="0.3">
<path d="M1204.4 212.773C1205.18 212.773 1205.81 212.152 1205.81 211.386C1205.81 210.621 1205.18 210 1204.4 210C1203.63 210 1203 210.621 1203 211.386C1203 212.152 1203.63 212.773 1204.4 212.773Z" fill="#3B82F6"/>
<path d="M1216.44 212.773C1217.21 212.773 1217.84 212.152 1217.84 211.386C1217.84 210.621 1217.21 210 1216.44 210C1215.66 210 1215.03 210.621 1215.03 211.386C1215.03 212.152 1215.66 212.773 1216.44 212.773Z" fill="#3B82F6"/>
<path d="M1228.47 212.773C1229.24 212.773 1229.87 212.152 1229.87 211.386C1229.87 210.621 1229.24 210 1228.47 210C1227.69 210 1227.07 210.621 1227.07 211.386C1227.07 212.152 1227.69 212.773 1228.47 212.773Z" fill="#3B82F6"/>
<path d="M1241.9 211.386C1241.9 211.66 1241.82 211.929 1241.67 212.156C1241.51 212.384 1241.29 212.562 1241.04 212.667C1240.78 212.772 1240.5 212.799 1240.23 212.746C1239.96 212.692 1239.71 212.56 1239.51 212.367C1239.31 212.173 1239.18 211.926 1239.12 211.657C1239.07 211.388 1239.1 211.109 1239.2 210.856C1239.31 210.602 1239.49 210.386 1239.72 210.234C1239.95 210.081 1240.22 210 1240.5 210C1240.87 210 1241.23 210.146 1241.49 210.406C1241.76 210.666 1241.9 211.019 1241.9 211.386Z" fill="#3B82F6"/>
<path d="M1252.53 212.773C1253.31 212.773 1253.94 212.152 1253.94 211.386C1253.94 210.621 1253.31 210 1252.53 210C1251.76 210 1251.13 210.621 1251.13 211.386C1251.13 212.152 1251.76 212.773 1252.53 212.773Z" fill="#3B82F6"/>
<path d="M1264.57 212.773C1265.34 212.773 1265.97 212.152 1265.97 211.386C1265.97 210.621 1265.34 210 1264.57 210C1263.79 210 1263.16 210.621 1263.16 211.386C1263.16 212.152 1263.79 212.773 1264.57 212.773Z" fill="#3B82F6"/>
<path d="M1276.6 212.773C1277.37 212.773 1278 212.152 1278 211.386C1278 210.621 1277.37 210 1276.6 210C1275.82 210 1275.19 210.621 1275.19 211.386C1275.19 212.152 1275.82 212.773 1276.6 212.773Z" fill="#3B82F6"/>
<path d="M1204.4 224.656C1205.18 224.656 1205.81 224.035 1205.81 223.27C1205.81 222.504 1205.18 221.883 1204.4 221.883C1203.63 221.883 1203 222.504 1203 223.27C1203 224.035 1203.63 224.656 1204.4 224.656Z" fill="#3B82F6"/>
<path d="M1216.44 224.656C1217.21 224.656 1217.84 224.035 1217.84 223.27C1217.84 222.504 1217.21 221.883 1216.44 221.883C1215.66 221.883 1215.03 222.504 1215.03 223.27C1215.03 224.035 1215.66 224.656 1216.44 224.656Z" fill="#3B82F6"/>
<path d="M1228.47 224.656C1229.24 224.656 1229.87 224.035 1229.87 223.27C1229.87 222.504 1229.24 221.883 1228.47 221.883C1227.69 221.883 1227.07 222.504 1227.07 223.27C1227.07 224.035 1227.69 224.656 1228.47 224.656Z" fill="#3B82F6"/>
<path d="M1241.9 223.27C1241.9 223.544 1241.82 223.811 1241.67 224.039C1241.51 224.267 1241.29 224.444 1241.04 224.548C1240.78 224.653 1240.5 224.68 1240.23 224.626C1239.95 224.572 1239.7 224.44 1239.51 224.246C1239.31 224.052 1239.18 223.805 1239.12 223.536C1239.07 223.268 1239.1 222.989 1239.2 222.736C1239.31 222.483 1239.49 222.266 1239.72 222.114C1239.95 221.962 1240.22 221.881 1240.5 221.881C1240.69 221.881 1240.87 221.917 1241.04 221.986C1241.21 222.056 1241.36 222.159 1241.49 222.288C1241.63 222.417 1241.73 222.57 1241.8 222.738C1241.87 222.907 1241.91 223.087 1241.9 223.27Z" fill="#3B82F6"/>
<path d="M1252.53 224.656C1253.31 224.656 1253.94 224.035 1253.94 223.27C1253.94 222.504 1253.31 221.883 1252.53 221.883C1251.76 221.883 1251.13 222.504 1251.13 223.27C1251.13 224.035 1251.76 224.656 1252.53 224.656Z" fill="#3B82F6"/>
<path d="M1264.57 224.656C1265.34 224.656 1265.97 224.035 1265.97 223.27C1265.97 222.504 1265.34 221.883 1264.57 221.883C1263.79 221.883 1263.16 222.504 1263.16 223.27C1263.16 224.035 1263.79 224.656 1264.57 224.656Z" fill="#3B82F6"/>
<path d="M1276.6 224.656C1277.37 224.656 1278 224.035 1278 223.27C1278 222.504 1277.37 221.883 1276.6 221.883C1275.82 221.883 1275.19 222.504 1275.19 223.27C1275.19 224.035 1275.82 224.656 1276.6 224.656Z" fill="#3B82F6"/>
<path d="M1204.4 236.464C1205.18 236.464 1205.81 235.843 1205.81 235.077C1205.81 234.312 1205.18 233.691 1204.4 233.691C1203.63 233.691 1203 234.312 1203 235.077C1203 235.843 1203.63 236.464 1204.4 236.464Z" fill="#3B82F6"/>
<path d="M1216.44 236.464C1217.21 236.464 1217.84 235.843 1217.84 235.077C1217.84 234.312 1217.21 233.691 1216.44 233.691C1215.66 233.691 1215.03 234.312 1215.03 235.077C1215.03 235.843 1215.66 236.464 1216.44 236.464Z" fill="#3B82F6"/>
<path d="M1228.47 236.464C1229.24 236.464 1229.87 235.843 1229.87 235.077C1229.87 234.312 1229.24 233.691 1228.47 233.691C1227.69 233.691 1227.07 234.312 1227.07 235.077C1227.07 235.843 1227.69 236.464 1228.47 236.464Z" fill="#3B82F6"/>
<path d="M1241.9 235.077C1241.9 235.352 1241.82 235.62 1241.67 235.848C1241.51 236.076 1241.29 236.253 1241.04 236.358C1240.78 236.463 1240.5 236.491 1240.23 236.437C1239.96 236.384 1239.71 236.252 1239.51 236.058C1239.31 235.864 1239.18 235.617 1239.12 235.348C1239.07 235.079 1239.1 234.8 1239.2 234.547C1239.31 234.294 1239.49 234.077 1239.72 233.925C1239.95 233.772 1240.22 233.691 1240.5 233.691C1240.87 233.691 1241.23 233.837 1241.49 234.097C1241.76 234.357 1241.9 234.71 1241.9 235.077Z" fill="#3B82F6"/>
<path d="M1252.53 236.464C1253.31 236.464 1253.94 235.843 1253.94 235.077C1253.94 234.312 1253.31 233.691 1252.53 233.691C1251.76 233.691 1251.13 234.312 1251.13 235.077C1251.13 235.843 1251.76 236.464 1252.53 236.464Z" fill="#3B82F6"/>
<path d="M1264.57 236.464C1265.34 236.464 1265.97 235.843 1265.97 235.077C1265.97 234.312 1265.34 233.691 1264.57 233.691C1263.79 233.691 1263.16 234.312 1263.16 235.077C1263.16 235.843 1263.79 236.464 1264.57 236.464Z" fill="#3B82F6"/>
<path d="M1276.6 236.464C1277.37 236.464 1278 235.843 1278 235.077C1278 234.312 1277.37 233.691 1276.6 233.691C1275.82 233.691 1275.19 234.312 1275.19 235.077C1275.19 235.843 1275.82 236.464 1276.6 236.464Z" fill="#3B82F6"/>
<path d="M1204.4 248.35C1205.18 248.35 1205.81 247.729 1205.81 246.964C1205.81 246.198 1205.18 245.577 1204.4 245.577C1203.63 245.577 1203 246.198 1203 246.964C1203 247.729 1203.63 248.35 1204.4 248.35Z" fill="#3B82F6"/>
<path d="M1216.44 248.35C1217.21 248.35 1217.84 247.729 1217.84 246.964C1217.84 246.198 1217.21 245.577 1216.44 245.577C1215.66 245.577 1215.03 246.198 1215.03 246.964C1215.03 247.729 1215.66 248.35 1216.44 248.35Z" fill="#3B82F6"/>
<path d="M1228.47 248.35C1229.24 248.35 1229.87 247.729 1229.87 246.964C1229.87 246.198 1229.24 245.577 1228.47 245.577C1227.69 245.577 1227.07 246.198 1227.07 246.964C1227.07 247.729 1227.69 248.35 1228.47 248.35Z" fill="#3B82F6"/>
<path d="M1241.9 246.964C1241.9 247.238 1241.82 247.505 1241.67 247.733C1241.51 247.961 1241.29 248.138 1241.04 248.242C1240.78 248.347 1240.5 248.374 1240.23 248.32C1239.95 248.266 1239.7 248.134 1239.51 247.94C1239.31 247.746 1239.18 247.499 1239.12 247.23C1239.07 246.962 1239.1 246.683 1239.2 246.43C1239.31 246.177 1239.49 245.96 1239.72 245.808C1239.95 245.656 1240.22 245.575 1240.5 245.575C1240.69 245.575 1240.87 245.611 1241.04 245.68C1241.21 245.75 1241.36 245.853 1241.49 245.982C1241.63 246.111 1241.73 246.264 1241.8 246.432C1241.87 246.601 1241.91 246.781 1241.9 246.964Z" fill="#3B82F6"/>
<path d="M1252.53 248.35C1253.31 248.35 1253.94 247.729 1253.94 246.964C1253.94 246.198 1253.31 245.577 1252.53 245.577C1251.76 245.577 1251.13 246.198 1251.13 246.964C1251.13 247.729 1251.76 248.35 1252.53 248.35Z" fill="#3B82F6"/>
<path d="M1264.57 248.35C1265.34 248.35 1265.97 247.729 1265.97 246.964C1265.97 246.198 1265.34 245.577 1264.57 245.577C1263.79 245.577 1263.16 246.198 1263.16 246.964C1263.16 247.729 1263.79 248.35 1264.57 248.35Z" fill="#3B82F6"/>
<path d="M1276.6 248.35C1277.37 248.35 1278 247.729 1278 246.964C1278 246.198 1277.37 245.577 1276.6 245.577C1275.82 245.577 1275.19 246.198 1275.19 246.964C1275.19 247.729 1275.82 248.35 1276.6 248.35Z" fill="#3B82F6"/>
<path d="M1204.4 260.231C1205.18 260.231 1205.81 259.61 1205.81 258.844C1205.81 258.079 1205.18 257.458 1204.4 257.458C1203.63 257.458 1203 258.079 1203 258.844C1203 259.61 1203.63 260.231 1204.4 260.231Z" fill="#3B82F6"/>
<path d="M1216.44 260.231C1217.21 260.231 1217.84 259.61 1217.84 258.844C1217.84 258.079 1217.21 257.458 1216.44 257.458C1215.66 257.458 1215.03 258.079 1215.03 258.844C1215.03 259.61 1215.66 260.231 1216.44 260.231Z" fill="#3B82F6"/>
<path d="M1228.47 260.231C1229.24 260.231 1229.87 259.61 1229.87 258.844C1229.87 258.079 1229.24 257.458 1228.47 257.458C1227.69 257.458 1227.07 258.079 1227.07 258.844C1227.07 259.61 1227.69 260.231 1228.47 260.231Z" fill="#3B82F6"/>
<path d="M1241.9 258.844C1241.9 259.118 1241.82 259.386 1241.67 259.614C1241.51 259.842 1241.29 260.02 1241.04 260.125C1240.78 260.23 1240.5 260.257 1240.23 260.204C1239.96 260.15 1239.71 260.018 1239.51 259.825C1239.31 259.631 1239.18 259.384 1239.12 259.115C1239.07 258.846 1239.1 258.567 1239.2 258.314C1239.31 258.06 1239.49 257.844 1239.72 257.692C1239.95 257.539 1240.22 257.458 1240.5 257.458C1240.87 257.459 1241.23 257.605 1241.49 257.865C1241.76 258.125 1241.9 258.477 1241.9 258.844Z" fill="#3B82F6"/>
<path d="M1252.53 260.231C1253.31 260.231 1253.94 259.61 1253.94 258.844C1253.94 258.079 1253.31 257.458 1252.53 257.458C1251.76 257.458 1251.13 258.079 1251.13 258.844C1251.13 259.61 1251.76 260.231 1252.53 260.231Z" fill="#3B82F6"/>
<path d="M1264.57 260.231C1265.34 260.231 1265.97 259.61 1265.97 258.844C1265.97 258.079 1265.34 257.458 1264.57 257.458C1263.79 257.458 1263.16 258.079 1263.16 258.844C1263.16 259.61 1263.79 260.231 1264.57 260.231Z" fill="#3B82F6"/>
<path d="M1276.6 260.231C1277.37 260.231 1278 259.61 1278 258.844C1278 258.079 1277.37 257.458 1276.6 257.458C1275.82 257.458 1275.19 258.079 1275.19 258.844C1275.19 259.61 1275.82 260.231 1276.6 260.231Z" fill="#3B82F6"/>
<path d="M1204.4 272.041C1205.18 272.041 1205.81 271.42 1205.81 270.655C1205.81 269.889 1205.18 269.269 1204.4 269.269C1203.63 269.269 1203 269.889 1203 270.655C1203 271.42 1203.63 272.041 1204.4 272.041Z" fill="#3B82F6"/>
<path d="M1216.44 272.041C1217.21 272.041 1217.84 271.42 1217.84 270.655C1217.84 269.889 1217.21 269.269 1216.44 269.269C1215.66 269.269 1215.03 269.889 1215.03 270.655C1215.03 271.42 1215.66 272.041 1216.44 272.041Z" fill="#3B82F6"/>
<path d="M1228.47 272.041C1229.24 272.041 1229.87 271.42 1229.87 270.655C1229.87 269.889 1229.24 269.269 1228.47 269.269C1227.69 269.269 1227.07 269.889 1227.07 270.655C1227.07 271.42 1227.69 272.041 1228.47 272.041Z" fill="#3B82F6"/>
<path d="M1241.9 270.655C1241.9 270.929 1241.82 271.197 1241.67 271.425C1241.51 271.653 1241.29 271.831 1241.04 271.936C1240.78 272.041 1240.5 272.068 1240.23 272.015C1239.96 271.961 1239.71 271.829 1239.51 271.635C1239.31 271.441 1239.18 271.194 1239.12 270.925C1239.07 270.656 1239.1 270.378 1239.2 270.124C1239.31 269.871 1239.49 269.654 1239.72 269.502C1239.95 269.35 1240.22 269.269 1240.5 269.269C1240.87 269.269 1241.23 269.415 1241.49 269.675C1241.76 269.935 1241.9 270.287 1241.9 270.655Z" fill="#3B82F6"/>
<path d="M1252.53 272.041C1253.31 272.041 1253.94 271.42 1253.94 270.655C1253.94 269.889 1253.31 269.269 1252.53 269.269C1251.76 269.269 1251.13 269.889 1251.13 270.655C1251.13 271.42 1251.76 272.041 1252.53 272.041Z" fill="#3B82F6"/>
<path d="M1264.57 272.041C1265.34 272.041 1265.97 271.42 1265.97 270.655C1265.97 269.889 1265.34 269.269 1264.57 269.269C1263.79 269.269 1263.16 269.889 1263.16 270.655C1263.16 271.42 1263.79 272.041 1264.57 272.041Z" fill="#3B82F6"/>
<path d="M1276.6 272.041C1277.37 272.041 1278 271.42 1278 270.655C1278 269.889 1277.37 269.269 1276.6 269.269C1275.82 269.269 1275.19 269.889 1275.19 270.655C1275.19 271.42 1275.82 272.041 1276.6 272.041Z" fill="#3B82F6"/>
<path d="M1204.4 284C1205.18 284 1205.81 283.379 1205.81 282.614C1205.81 281.848 1205.18 281.227 1204.4 281.227C1203.63 281.227 1203 281.848 1203 282.614C1203 283.379 1203.63 284 1204.4 284Z" fill="#3B82F6"/>
<path d="M1216.44 284C1217.21 284 1217.84 283.379 1217.84 282.614C1217.84 281.848 1217.21 281.227 1216.44 281.227C1215.66 281.227 1215.03 281.848 1215.03 282.614C1215.03 283.379 1215.66 284 1216.44 284Z" fill="#3B82F6"/>
<path d="M1228.47 284C1229.24 284 1229.87 283.379 1229.87 282.614C1229.87 281.848 1229.24 281.227 1228.47 281.227C1227.69 281.227 1227.07 281.848 1227.07 282.614C1227.07 283.379 1227.69 284 1228.47 284Z" fill="#3B82F6"/>
<path d="M1241.9 282.614C1241.9 282.888 1241.82 283.156 1241.67 283.384C1241.51 283.612 1241.29 283.79 1241.04 283.894C1240.78 283.999 1240.5 284.027 1240.23 283.973C1239.96 283.92 1239.71 283.788 1239.51 283.594C1239.31 283.4 1239.18 283.153 1239.12 282.884C1239.07 282.615 1239.1 282.336 1239.2 282.083C1239.31 281.83 1239.49 281.613 1239.72 281.461C1239.95 281.309 1240.22 281.227 1240.5 281.227C1240.87 281.227 1241.23 281.373 1241.49 281.633C1241.76 281.893 1241.9 282.246 1241.9 282.614Z" fill="#3B82F6"/>
<path d="M1252.53 284C1253.31 284 1253.94 283.379 1253.94 282.614C1253.94 281.848 1253.31 281.227 1252.53 281.227C1251.76 281.227 1251.13 281.848 1251.13 282.614C1251.13 283.379 1251.76 284 1252.53 284Z" fill="#3B82F6"/>
<path d="M1264.57 284C1265.34 284 1265.97 283.379 1265.97 282.614C1265.97 281.848 1265.34 281.227 1264.57 281.227C1263.79 281.227 1263.16 281.848 1263.16 282.614C1263.16 283.379 1263.79 284 1264.57 284Z" fill="#3B82F6"/>
<path d="M1276.6 284C1277.37 284 1278 283.379 1278 282.614C1278 281.848 1277.37 281.227 1276.6 281.227C1275.82 281.227 1275.19 281.848 1275.19 282.614C1275.19 283.379 1275.82 284 1276.6 284Z" fill="#3B82F6"/>
</g>
</svg>
