<svg width="9" height="12" viewBox="0 0 9 12" fill="none" xmlns="http://www.w3.org/2000/svg">
<path d="M7.97901 0H1.05851C0.494888 0 0 0.466484 0 1.01865V11.3183C0 11.5031 0.0511313 11.6572 0.133538 11.7762C0.181412 11.8455 0.245329 11.9021 0.319783 11.9411C0.394237 11.9801 0.476994 12.0003 0.560925 11.9999C0.7218 11.9999 0.893081 11.9279 1.05126 11.792L4.14748 9.14717C4.24311 9.06499 4.38047 9.01791 4.52329 9.01791C4.66605 9.01791 4.80313 9.06499 4.89904 9.14739L7.98491 11.7916C8.14365 11.9279 8.30312 12 8.46371 12C8.73529 12 9 11.7893 9 11.3184V1.01865C9 0.466484 8.54263 0 7.97901 0Z" fill="#0F4C81"/>
</svg>
