<svg width="13" height="12" viewBox="0 0 13 12" fill="none" xmlns="http://www.w3.org/2000/svg">
<path d="M1.14256 4.24172H0.380844C0.17033 4.24172 -1.52588e-05 4.39898 -1.52588e-05 4.59331C-1.52588e-05 4.78764 0.17033 4.94489 0.380844 4.94489H1.14256C1.35308 4.94489 1.52342 4.78764 1.52342 4.59331C1.52342 4.39898 1.35308 4.24172 1.14256 4.24172ZM1.32565 2.48382L0.787094 1.98668C0.63833 1.84935 0.397297 1.84935 0.248534 1.98668C0.0997699 2.12401 0.0997699 2.34651 0.248534 2.48384L0.787094 2.98098C0.935883 3.11833 1.17687 3.11833 1.32565 2.98098C1.47442 2.84365 1.47442 2.62115 1.32565 2.48382ZM1.32565 6.20566C1.17689 6.06833 0.935858 6.06831 0.787094 6.20566L0.248534 6.70282C0.0997699 6.84015 0.0997699 7.06265 0.248534 7.19998C0.397323 7.33733 0.638305 7.33733 0.787094 7.19998L1.32565 6.70282C1.47442 6.56549 1.47442 6.34299 1.32565 6.20566ZM12.6191 4.24172H11.8574C11.6469 4.24172 11.4765 4.39898 11.4765 4.59331C11.4765 4.78764 11.6469 4.94489 11.8574 4.94489H12.6191C12.8296 4.94489 13 4.78764 13 4.59331C13 4.39898 12.8296 4.24172 12.6191 4.24172ZM12.7514 1.98666C12.6027 1.84933 12.3616 1.84933 12.2129 1.98666L11.6743 2.48382C11.5256 2.62115 11.5256 2.84365 11.6743 2.98098C11.8231 3.11833 12.0641 3.11833 12.2129 2.98098L12.7514 2.48382C12.9002 2.34649 12.9002 2.12399 12.7514 1.98666ZM12.7514 6.70279L12.2129 6.20566C12.0641 6.06833 11.8231 6.06833 11.6743 6.20566C11.5256 6.34299 11.5256 6.56549 11.6743 6.70282L12.2129 7.19995C12.3617 7.33731 12.6026 7.33731 12.7514 7.19995C12.9002 7.06263 12.9002 6.84012 12.7514 6.70279ZM9.3806 0.942814C8.30645 0.136661 6.89722 -0.173715 5.51846 0.0940728C3.79939 0.425403 2.39942 1.73706 2.03494 3.3233C1.72513 4.67297 2.10746 6.0278 3.08342 7.04066C3.47799 7.45054 3.7187 7.94524 3.79764 8.46072H4.97655V5.29649C4.97655 5.16034 6.09333 3.15152 6.15929 3.02975C6.28873 2.79148 6.71123 2.79148 6.84068 3.02975C6.90976 3.15731 8.02342 5.16716 8.02342 5.29649V8.46072H9.20366C9.28529 7.9477 9.53305 7.44512 9.93887 7.01767C10.6684 6.24976 11.0706 5.26313 11.0703 4.24172C11.0703 2.96553 10.4544 1.74829 9.3806 0.942814Z" fill="#3B82F6"/>
<path d="M6.49998 5.96876C6.24247 5.96876 5.98598 5.92735 5.73827 5.85173V8.46075H7.2617V5.85173C7.01399 5.92735 6.7575 5.96876 6.49998 5.96876ZM3.83397 9.16391V9.51549C3.83397 10.0971 4.3465 10.5702 4.97655 10.5702H8.02342C8.65347 10.5702 9.166 10.0971 9.166 9.51549V9.16391H3.83397ZM6.49998 3.97326L5.87058 5.1353C6.27733 5.28913 6.72263 5.28913 7.12939 5.1353L6.49998 3.97326ZM4.66584 11.2734C4.82359 11.6817 5.24239 12 5.73827 12H7.2617C7.75758 12 8.17638 11.6817 8.33413 11.2734H4.66584Z" fill="#3B82F6"/>
</svg>
