<svg width="10" height="12" viewBox="0 0 10 12" fill="none" xmlns="http://www.w3.org/2000/svg">
<path d="M8.91601 0.907317H7.58777V0.439024C7.58777 0.190244 7.3893 0 7.12976 0C6.87021 0 6.67174 0.190244 6.67174 0.439024V0.907317H5.45037V0.439024C5.45037 0.190244 5.25189 0 4.99235 0C4.73281 0 4.53434 0.190244 4.53434 0.439024V0.907317H3.31296V0.439024C3.31296 0.190244 3.11449 0 2.85495 0C2.5954 0 2.39693 0.190244 2.39693 0.439024V0.907317H1.06869C0.473267 0.907317 -1.52588e-05 1.36098 -1.52588e-05 1.93171V10.9756C-1.52588e-05 11.5463 0.473267 12 1.06869 12H8.93128C9.5267 12 9.99998 11.5463 9.99998 10.9756V1.93171C9.98472 1.36098 9.51143 0.907317 8.91601 0.907317ZM3.35876 5.18049H6.62594C6.88548 5.18049 7.08395 5.37073 7.08395 5.61951C7.08395 5.86829 6.88548 6.05854 6.62594 6.05854H3.35876C3.09922 6.05854 2.90075 5.86829 2.90075 5.61951C2.90075 5.37073 3.09922 5.18049 3.35876 5.18049ZM7.46563 8.04878H2.51907C2.25953 8.04878 2.06105 7.85854 2.06105 7.60976C2.06105 7.36098 2.25953 7.17073 2.51907 7.17073H7.4809C7.74044 7.17073 7.93892 7.36098 7.93892 7.60976C7.93892 7.85854 7.72518 8.04878 7.46563 8.04878Z" fill="#3B82F6"/>
</svg>
