<svg width="17" height="17" viewBox="0 0 17 17" fill="none" xmlns="http://www.w3.org/2000/svg">
<path d="M8.5 3.30026C5.6283 3.30026 3.3003 5.62825 3.3003 8.49995C3.3003 11.3717 5.6283 13.6997 8.5 13.6997C11.3717 13.6997 13.6997 11.3717 13.6997 8.49995C13.6997 5.62825 11.3717 3.30026 8.5 3.30026ZM8.5 12.75V4.24998C10.518 4.24461 12.2583 5.66665 12.655 7.64522C12.7817 8.20801 12.7817 8.7919 12.655 9.35469C12.2582 11.3333 10.518 12.7554 8.5 12.75ZM12.6788 4.32124C12.7664 4.4107 12.8859 4.46191 13.0112 4.46371C13.1364 4.46193 13.2559 4.41072 13.3435 4.32124L14.5069 3.15783C14.7168 3.00045 14.7593 2.70283 14.6019 2.49301C14.4446 2.28318 14.1469 2.24069 13.9371 2.39803C13.9011 2.42503 13.8691 2.45701 13.8421 2.49301L12.6787 3.65641C12.4951 3.82483 12.4828 4.11023 12.6513 4.29379C12.6601 4.30333 12.6692 4.31246 12.6788 4.32124ZM4.22625 12.6788C4.14405 12.6171 4.04408 12.5838 3.94133 12.5838C3.83859 12.5838 3.73861 12.6171 3.65641 12.6788L2.49301 13.8422C2.30941 14.0106 2.29714 14.296 2.4656 14.4795C2.47434 14.4891 2.48348 14.4982 2.49301 14.5069C2.66143 14.6905 2.94683 14.7028 3.13038 14.5344C3.13991 14.5256 3.14905 14.5165 3.15778 14.5069L4.32119 13.3435C4.47857 13.1338 4.43608 12.8361 4.22625 12.6788ZM14.5069 13.8422L13.3435 12.6788C13.2521 12.6102 13.139 12.577 13.025 12.5851C12.911 12.5933 12.8038 12.6422 12.723 12.723C12.6422 12.8038 12.5932 12.9111 12.5851 13.025C12.5769 13.139 12.6102 13.2521 12.6787 13.3436L13.8421 14.507C14.0105 14.6906 14.2959 14.7029 14.4795 14.5344C14.489 14.5257 14.4982 14.5165 14.5069 14.507C14.6905 14.3386 14.7028 14.0532 14.5343 13.8696C14.5256 13.86 14.5165 13.8509 14.5069 13.8422ZM3.65641 4.32124C3.82483 4.50484 4.11023 4.51711 4.29379 4.34864C4.30331 4.33991 4.31246 4.33076 4.32119 4.32124C4.50479 4.15281 4.51706 3.86742 4.34859 3.68386C4.33986 3.67433 4.33072 3.66519 4.32119 3.65646L3.15778 2.49305C3.06633 2.42453 2.95323 2.39128 2.83924 2.39941C2.72526 2.40754 2.61802 2.4565 2.53721 2.5373C2.45641 2.61811 2.40745 2.72535 2.39932 2.83933C2.39119 2.95332 2.42444 3.06642 2.49296 3.15788L3.65641 4.32124ZM8.5 2.58799C8.76227 2.58799 8.97486 2.37539 8.97486 2.11313V0.474861C8.97486 0.212594 8.76227 0 8.5 0C8.23773 0 8.02514 0.212594 8.02514 0.474861V2.11313C8.02514 2.37539 8.23773 2.58799 8.5 2.58799ZM8.5 14.412C8.23773 14.412 8.02514 14.6246 8.02514 14.8869V16.5251C8.02514 16.7874 8.23773 17 8.5 17C8.76227 17 8.97486 16.7874 8.97486 16.5251V14.8869C8.97486 14.6246 8.76227 14.412 8.5 14.412ZM16.5251 8.02514H14.8869C14.6246 8.02514 14.412 8.23773 14.412 8.5C14.412 8.76227 14.6246 8.97486 14.8869 8.97486H16.5251C16.7874 8.97486 17 8.76227 17 8.5C17 8.23773 16.7874 8.02514 16.5251 8.02514ZM2.58799 8.5C2.58799 8.23773 2.37539 8.02514 2.11313 8.02514H0.474861C0.212594 8.02514 0 8.23773 0 8.5C0 8.76227 0.212594 8.97486 0.474861 8.97486H2.11313C2.37539 8.97486 2.58799 8.76227 2.58799 8.5Z" fill="white"/>
<circle cx="8.50015" cy="8.50003" r="4.92105" fill="white"/>
</svg>
