<svg width="16" height="16" viewBox="0 0 16 16" fill="none" xmlns="http://www.w3.org/2000/svg">
<path d="M14.1451 5.4952V3.52475C14.1451 3.08187 13.9692 2.65713 13.656 2.34397C13.3429 2.03081 12.9181 1.85488 12.4753 1.85488H10.5466L9.17726 0.485586C8.86439 0.174571 8.44116 0 8 0C7.55884 0 7.13561 0.174571 6.82274 0.485586L5.4952 1.85488H3.52475C3.08187 1.85488 2.65713 2.03081 2.34397 2.34397C2.03081 2.65713 1.85488 3.08187 1.85488 3.52475V5.4952L0.485586 6.82274C0.174571 7.13561 0 7.55884 0 8C0 8.44116 0.174571 8.86439 0.485586 9.17726L1.85488 10.5466V12.4753C1.85488 12.9181 2.03081 13.3429 2.34397 13.656C2.65713 13.9692 3.08187 14.1451 3.52475 14.1451H5.4952L6.82274 15.5144C7.13561 15.8254 7.55884 16 8 16C8.44116 16 8.86439 15.8254 9.17726 15.5144L10.5466 14.1451H12.4753C12.9181 14.1451 13.3429 13.9692 13.656 13.656C13.9692 13.3429 14.1451 12.9181 14.1451 12.4753V10.5466L15.5144 9.17726C15.8254 8.86439 16 8.44116 16 8C16 7.55884 15.8254 7.13561 15.5144 6.82274L14.1451 5.4952Z" fill="#1A3750"/>
<path d="M7.3738 10.0873C7.26392 10.088 7.15499 10.0669 7.05326 10.0254C6.95154 9.98381 6.85901 9.92259 6.781 9.84521L5.4952 8.5928C5.33797 8.43558 5.24965 8.22235 5.24965 8C5.24965 7.77766 5.33797 7.56442 5.4952 7.4072C5.65242 7.24998 5.86566 7.16165 6.088 7.16165C6.31034 7.16165 6.52358 7.24998 6.6808 7.4072L7.3404 8.07514L9.2524 6.15479C9.40963 5.98872 9.62638 5.89189 9.85499 5.88563C10.0836 5.87937 10.3053 5.96418 10.4714 6.1214C10.6375 6.27862 10.7343 6.49538 10.7406 6.72398C10.7468 6.95259 10.662 7.17432 10.5048 7.3404L8 9.84521C7.91806 9.92671 7.8201 9.99031 7.71231 10.032C7.60452 10.0737 7.48925 10.0925 7.3738 10.0873Z" fill="white"/>
</svg>
