<svg width="14" height="14" viewBox="0 0 14 14" fill="none" xmlns="http://www.w3.org/2000/svg">
<path d="M7.00001 0C3.13369 0 7.62939e-06 3.13399 7.62939e-06 7C7.62939e-06 10.866 3.13369 14 7.00001 14C10.8663 14 14 10.8657 14 7C14 3.1343 10.866 0 7.00001 0ZM7.42374 10.1182V10.9285C7.42374 11.0549 7.32535 11.1469 7.19862 11.1469H6.65852C6.5318 11.1469 6.42975 11.0549 6.42975 10.9285V10.1894C5.9326 10.1669 5.43118 10.0609 5.05162 9.91649C4.95223 9.87877 4.87021 9.80578 4.82122 9.71144C4.77222 9.6171 4.75968 9.50802 4.78599 9.40502L4.87402 9.06201C4.88917 9.00273 4.91673 8.94734 4.95487 8.89949C4.99301 8.85164 5.04087 8.81243 5.09529 8.78445C5.1497 8.75646 5.20943 8.74034 5.27054 8.73715C5.33164 8.73395 5.39273 8.74376 5.44977 8.76592C5.81136 8.90574 6.23844 9.00749 6.69447 9.00749C7.27508 9.00749 7.67262 8.78328 7.67262 8.37569C7.67262 7.98851 7.34667 7.7439 6.59242 7.48892C5.50216 7.12216 4.75552 6.61282 4.75552 5.62431C4.75552 4.72779 5.39006 4.02472 6.47483 3.81057V3.07154C6.47483 2.94512 6.58297 2.8318 6.7097 2.8318H7.2498C7.37653 2.8318 7.46944 2.94512 7.46944 3.07154V3.73898C7.94374 3.75939 8.28614 3.82976 8.57249 3.92297C8.78908 3.99365 8.91702 4.22059 8.86005 4.44175L8.78268 4.74881C8.76795 4.8067 8.74138 4.8609 8.70464 4.90799C8.6679 4.95508 8.62179 4.99404 8.56923 5.02241C8.51668 5.05078 8.4588 5.06794 8.39928 5.07281C8.33975 5.07768 8.27986 5.07015 8.22339 5.0507C7.89217 4.93652 7.54409 4.87895 7.19375 4.88041C6.53149 4.88041 6.31734 5.16585 6.31734 5.45128C6.31734 5.78759 6.67406 6.00144 7.54011 6.32769C8.75252 6.75569 9.23962 7.3162 9.23962 8.23282C9.23931 9.13969 8.59869 9.91466 7.42374 10.1182Z" fill="#3B82F6"/>
</svg>
