<svg width="9" height="12" viewBox="0 0 9 12" fill="none" xmlns="http://www.w3.org/2000/svg">
<path d="M8.94577 10.2926C7.31341 8.11623 6.13111 6.03324 5.86025 4.85657C5.8593 4.85244 5.85797 4.84851 5.85685 4.84446C5.85685 4.84401 5.85667 4.84356 5.85653 4.84312C5.70429 4.30545 5.95887 3.72046 5.96135 3.71485C6.33712 2.87516 6.24738 2.50246 6.09099 2.10254C6.04198 1.97737 5.99977 1.86929 5.98823 1.72612C5.95255 1.28598 6.175 0.592777 6.26365 0.362928C6.28676 0.298851 6.28563 0.227606 6.2605 0.164413C6.23536 0.10122 6.18821 0.0510898 6.12913 0.0247322C6.07004 -0.00162547 6.0037 -0.0021206 5.94428 0.0233527C5.88486 0.048826 5.83707 0.0982478 5.81111 0.16106C5.79786 0.195279 5.51991 0.921599 5.49629 1.54563C5.11837 1.67595 4.77617 1.90427 4.49995 2.21041C4.22368 1.90432 3.88146 1.67604 3.50354 1.54573C3.47992 0.921599 3.20198 0.195384 3.18872 0.161165C3.16359 0.0970092 3.11583 0.0461527 3.05588 0.0197206C2.99594 -0.00671155 2.92868 -0.00656758 2.86884 0.020121C2.80899 0.0468096 2.76142 0.0978703 2.73653 0.162133C2.71164 0.226396 2.71146 0.29863 2.73604 0.363033C2.82475 0.593014 3.04728 1.28622 3.01155 1.72636C2.99996 1.8694 2.95763 1.97748 2.90874 2.10277C2.75238 2.50269 2.66261 2.87537 3.03829 3.71482C3.04074 3.72069 3.29547 4.30569 3.14321 4.84335C3.14257 4.84562 3.1422 4.84788 3.14161 4.85014C3.14102 4.85241 3.14029 4.85451 3.13975 4.8568C2.86892 6.03343 1.68662 8.11647 0.0542312 10.2928C0.0333679 10.3207 0.0179932 10.3527 0.00904303 10.3871C9.28576e-05 10.4215 -0.00224557 10.4575 0.00217025 10.4929C0.00658606 10.5283 0.0176637 10.5624 0.0347287 10.5931C0.0517937 10.6237 0.0744891 10.6503 0.101433 10.6713C0.131847 10.695 0.857741 11.2541 1.87579 11.6418C2.50365 11.8808 3.10453 12 3.66578 12C4.33308 12 4.94437 11.8314 5.47778 11.4951L5.47803 11.4949H5.47825C7.20151 10.4032 8.6905 10.7126 8.70469 10.7158C8.75416 10.7269 8.80562 10.7213 8.85202 10.6998C8.89843 10.6783 8.93751 10.6419 8.96391 10.5956C8.99031 10.5493 9.00274 10.4954 8.9995 10.4412C8.99625 10.3871 8.9775 10.3353 8.9458 10.293L8.94577 10.2926Z" fill="#3B82F6"/>
</svg>
