<svg width="14" height="14" viewBox="0 0 14 14" fill="none" xmlns="http://www.w3.org/2000/svg">
<g clip-path="url(#clip0_144_4)">
<path d="M12.9267 3.04878H7.28214C6.95933 1.91266 5.9124 1.07812 4.67422 1.07812C3.43602 1.07812 2.38909 1.91266 2.0663 3.04878H1.07325C0.664605 3.04875 0.333328 3.38006 0.333328 3.78868C0.333328 4.1973 0.664605 4.52863 1.07325 4.52863H2.06625C2.38906 5.66475 3.43596 6.49928 4.67417 6.49928C5.91235 6.49928 6.9593 5.66475 7.28209 4.52863H12.9267C13.3354 4.52863 13.6666 4.19733 13.6666 3.7887C13.6666 3.38008 13.3353 3.04878 12.9267 3.04878ZM4.6742 5.01938C3.99555 5.01938 3.44346 4.46727 3.44346 3.78865C3.44346 3.11003 3.99555 2.55792 4.6742 2.55792C5.35284 2.55792 5.90493 3.11003 5.90493 3.78865C5.90493 4.46727 5.35284 5.01938 4.6742 5.01938Z" fill="#0F4C81"/>
<path d="M12.9267 9.47133H11.9319C11.6091 8.3352 10.5622 7.50067 9.32402 7.50067C8.08582 7.50067 7.03889 8.3352 6.7161 9.47133H1.07325C0.664605 9.47133 0.333328 9.80263 0.333328 10.2112C0.333328 10.6199 0.664605 10.9512 1.07325 10.9512H6.7161C7.03892 12.0873 8.08582 12.9218 9.32402 12.9218C10.5622 12.9218 11.6092 12.0873 11.9319 10.9512H12.9267C13.3354 10.9512 13.6667 10.6199 13.6667 10.2112C13.6667 9.8026 13.3354 9.47133 12.9267 9.47133ZM9.32402 11.442C8.64538 11.442 8.09329 10.8899 8.09329 10.2112C8.09329 9.5326 8.6454 8.98052 9.32402 8.98052C10.0027 8.98052 10.5548 9.53263 10.5548 10.2112C10.5548 10.8899 10.0026 11.442 9.32402 11.442Z" fill="#0F4C81"/>
</g>
<defs>
<clipPath id="clip0_144_4">
<rect width="13.3333" height="13.3333" fill="white" transform="translate(0.333328 0.333313)"/>
</clipPath>
</defs>
</svg>
