<svg width="22" height="22" viewBox="0 0 22 22" fill="none" xmlns="http://www.w3.org/2000/svg">
<circle cx="11" cy="11" r="11" fill="white"/>
<path d="M17.8638 9.62905H17.3V9.6H11V12.4H14.956C14.3789 14.03 12.828 15.2 11 15.2C8.68055 15.2 6.8 13.3194 6.8 11C6.8 8.68055 8.68055 6.8 11 6.8C12.0707 6.8 13.0447 7.2039 13.7864 7.86365L15.7663 5.8837C14.5161 4.71855 12.8438 4 11 4C7.13425 4 4 7.13425 4 11C4 14.8658 7.13425 18 11 18C14.8658 18 18 14.8658 18 11C18 10.5307 17.9517 10.0725 17.8638 9.62905Z" fill="#FFC107"/>
<path d="M4.80685 7.74185L7.1067 9.4285C7.729 7.8878 9.2361 6.8 10.9998 6.8C12.0704 6.8 13.0445 7.2039 13.7861 7.86365L15.7661 5.8837C14.5159 4.71855 12.8436 4 10.9998 4C8.31105 4 5.97935 5.51795 4.80685 7.74185Z" fill="#FF3D00"/>
<path d="M10.9999 18C12.808 18 14.4509 17.3081 15.693 16.1828L13.5265 14.3495C12.8237 14.8819 11.9501 15.2 10.9999 15.2C9.17918 15.2 7.63323 14.0391 7.05083 12.4189L4.76813 14.1777C5.92663 16.4446 8.27933 18 10.9999 18Z" fill="#4CAF50"/>
<path d="M17.8636 9.62903H17.2998V9.59998H10.9998V12.4H14.9558C14.6786 13.1829 14.175 13.8581 13.5254 14.3498L13.5264 14.3491L15.6929 16.1824C15.5396 16.3217 17.9998 14.5 17.9998 11C17.9998 10.5306 17.9515 10.0725 17.8636 9.62903Z" fill="#1976D2"/>
</svg>
