<svg width="17" height="17" viewBox="0 0 17 17" fill="none" xmlns="http://www.w3.org/2000/svg">
<path d="M7.39331 15.5188L7.93109 14.996L7.89785 14.9618L7.86054 14.9321L7.39331 15.5188ZM14.0205 14.3157L13.3061 14.0874L13.298 14.1127L13.2917 14.1386L14.0205 14.3157ZM15.8917 8.46071L15.1832 8.21473L15.1802 8.22352L15.1773 8.23239L15.8917 8.46071ZM10.512 5.41291L9.77044 5.30027L9.76912 5.30974L10.512 5.41291ZM10.9018 2.84634L10.1687 2.68798L10.1638 2.71071L10.1603 2.73371L10.9018 2.84634ZM9.88825 1.08182L9.61832 1.78156L9.63156 1.78667L9.64498 1.79127L9.88825 1.08182ZM8.17298 1.64326L8.80084 2.05349L8.80237 2.05115L8.17298 1.64326ZM4.50909 14.1805L6.92607 16.1054L7.86054 14.9321L5.44356 13.0072L4.50909 14.1805ZM6.85553 16.0415C7.1439 16.3382 7.54294 16.5049 7.86403 16.5993C8.20268 16.6988 8.56621 16.75 8.87468 16.75V15.25C8.71535 15.25 8.49413 15.221 8.28701 15.1601C8.06233 15.0941 7.95458 15.0202 7.93109 14.996L6.85553 16.0415ZM8.87468 16.75H11.8374V15.25H8.87468V16.75ZM11.8374 16.75C12.4906 16.75 13.1329 16.502 13.6432 16.118C14.1547 15.7329 14.5841 15.1724 14.7493 14.4928L13.2917 14.1386C13.223 14.4214 13.0287 14.7031 12.7411 14.9195C12.4521 15.137 12.1198 15.25 11.8374 15.25V16.75ZM14.7349 14.544L16.6061 8.68902L15.1773 8.23239L13.3061 14.0874L14.7349 14.544ZM16.6002 8.70669C16.865 7.94396 16.7771 7.16279 16.3455 6.56023C15.9149 5.95909 15.2065 5.62537 14.4103 5.62537V7.12537C14.7837 7.12537 15.0109 7.27289 15.1261 7.43369C15.2402 7.59308 15.3082 7.85458 15.1832 8.21473L16.6002 8.70669ZM14.4103 5.62537H11.2917V7.12537H14.4103V5.62537ZM11.2917 5.62537C11.2756 5.62537 11.2695 5.61992 11.2664 5.61639C11.2645 5.61418 11.2604 5.60862 11.2569 5.59644C11.2536 5.58456 11.2489 5.55898 11.2549 5.51607L9.76912 5.30974C9.6301 6.31083 10.3573 7.12537 11.2917 7.12537V5.62537ZM11.2535 5.52553L11.6433 2.95897L10.1603 2.73371L9.7705 5.30028L11.2535 5.52553ZM11.6349 3.0047C11.8738 1.89874 11.1806 0.732109 10.1315 0.372375L9.64498 1.79127C9.9993 1.91277 10.2417 2.35025 10.1687 2.68798L11.6349 3.0047ZM10.1582 0.382085C9.64462 0.183968 9.1053 0.228575 8.66362 0.384758C8.22649 0.539337 7.80575 0.830842 7.54359 1.23538L8.80237 2.05115C8.85207 1.97445 8.9771 1.86493 9.1637 1.79894C9.34577 1.73456 9.50815 1.73907 9.61832 1.78156L10.1582 0.382085ZM7.54511 1.23303L4.34846 6.12555L5.60419 6.94601L8.80084 2.05349L7.54511 1.23303ZM1.75 13.5938V5.73373H0.25V13.5938H1.75ZM1.75 5.73373C1.75 5.25181 1.85427 5.12544 1.88678 5.09457C1.92843 5.05502 2.07493 4.95983 2.55934 4.95983V3.45983C1.95222 3.45983 1.31905 3.56515 0.853903 4.00684C0.379632 4.45719 0.25 5.09278 0.25 5.73373H1.75ZM2.55934 4.95983H3.33901V3.45983H2.55934V4.95983ZM3.33901 4.95983C3.82343 4.95983 3.96993 5.05502 4.01157 5.09457C4.04409 5.12544 4.14836 5.25181 4.14836 5.73373H5.64836C5.64836 5.09278 5.51872 4.45719 5.04445 4.00684C4.57931 3.56515 3.94614 3.45983 3.33901 3.45983V4.95983ZM4.14836 5.73373V13.5938H5.64836V5.73373H4.14836ZM4.14836 13.5938C4.14836 14.0758 4.04409 14.2021 4.01157 14.233C3.96993 14.2725 3.82343 14.3677 3.33901 14.3677V15.8677C3.94614 15.8677 4.57931 15.7624 5.04445 15.3207C5.51872 14.8704 5.64836 14.2348 5.64836 13.5938H4.14836ZM3.33901 14.3677H2.55934V15.8677H3.33901V14.3677ZM2.55934 14.3677C2.07493 14.3677 1.92843 14.2725 1.88678 14.233C1.85427 14.2021 1.75 14.0758 1.75 13.5938H0.25C0.25 14.2348 0.379632 14.8704 0.853904 15.3207C1.31905 15.7624 1.95222 15.8677 2.55934 15.8677V14.3677Z" fill="#4E6C87"/>
</svg>
