<svg width="14" height="14" viewBox="0 0 14 14" fill="none" xmlns="http://www.w3.org/2000/svg">
<mask id="mask0_107_1793" style="mask-type:luminance" maskUnits="userSpaceOnUse" x="0" y="0" width="14" height="14">
<path d="M13.384 0.639343H0V14H13.384V0.639343Z" fill="white"/>
</mask>
<g mask="url(#mask0_107_1793)">
<path d="M1.67334 3.97955C1.67334 3.53663 1.84929 3.1118 2.16307 2.79862C2.47686 2.48539 2.90266 2.30945 3.34607 2.30945H8.36486C8.80885 2.30945 9.23466 2.48539 9.54785 2.79862C9.86164 3.1118 10.0382 3.53663 10.0382 3.97955V13.5825C10.0382 13.658 10.0176 13.7321 9.97893 13.7969C9.93964 13.8617 9.88392 13.9147 9.81705 13.9504C9.75078 13.986 9.67571 14.0029 9.60005 13.9993C9.52439 13.9957 9.45108 13.9717 9.38832 13.9299L5.85575 11.5792L2.32318 13.9299C2.25984 13.9717 2.18711 13.9957 2.11145 13.9993C2.03579 14.0029 1.96072 13.986 1.89385 13.9504C1.82699 13.9147 1.77128 13.8617 1.73257 13.7969C1.69386 13.7321 1.67334 13.658 1.67334 13.5825V3.97955Z" fill="#3B82F6"/>
<path d="M3.56958 1.47437C3.71621 1.2205 3.92736 1.00966 4.1819 0.863116C4.43645 0.71651 4.72501 0.639343 5.01827 0.639343H10.0376C10.4811 0.639343 10.9069 0.815282 11.2206 1.12846C11.5344 1.4417 11.7104 1.86647 11.7104 2.30939V11.9124C11.7104 11.9879 11.6899 12.062 11.6511 12.1268C11.6119 12.1915 11.5561 12.2446 11.4899 12.2802C11.423 12.3159 11.3479 12.3328 11.2723 12.3292C11.1966 12.3256 11.1233 12.3016 11.0605 12.2598L10.874 12.1362V2.30939C10.874 2.08796 10.786 1.87554 10.6289 1.71892C10.4723 1.56236 10.2594 1.47437 10.0376 1.47437H3.56958Z" fill="#3B82F6"/>
</g>
</svg>
