<svg width="178" height="40" viewBox="0 0 178 40" fill="none" xmlns="http://www.w3.org/2000/svg">
<path d="M35.7273 0C34.4747 0 33.4557 1.01014 33.4557 2.25188C33.4557 2.93482 33.7705 3.53991 34.2562 3.95326L30.7995 8.77591L0.560088 8.77698L0 9.29629V39.3788L0.596246 40H34.8953L35.3469 39.3788V10.9187L34.8953 10.5017H2.4136L1.81741 10.9187V37.7169L2.4136 38.3381H33.2189L33.6705 37.7169V12.7883L33.2189 12.3713H4.29965L3.70397 12.7883V35.8468L4.29965 36.4684H31.3333L31.785 35.8468V14.4144L31.3333 13.9974H6.15633L5.56066 14.4144V34.1854L6.15633 34.8065H11.1565L11.5368 34.606L16.4824 29.4053H16.7344H27.7242H28.4325V28.4752V27.9506V27.075V18.3749V18.3251V17.7726H27.7242H16.7339H15.8579V18.3251V18.3749V27.0755V27.9511V28.4757V28.5733L10.9312 33.7678H6.60845V15.0361H30.7372V35.4297H4.75177V13.4095H32.6232V37.2994H2.86572V11.5399H34.2996V38.9613H1.04836V9.8156L31.052 9.8146L31.5146 9.59594L35.2008 4.43622C35.3705 4.47678 35.5455 4.50376 35.7278 4.50376C36.9809 4.50376 38 3.49369 38 2.25188C38 1.01014 36.9804 0 35.7273 0ZM16.6966 18.3958H27.5938V27.1207H16.6966V18.3958ZM16.7339 27.9511H27.5938V28.5743H16.6966V27.9511H16.7339ZM35.7273 3.79277C34.8692 3.79277 34.1734 3.1031 34.1734 2.25188C34.1734 1.40122 34.8692 0.710988 35.7273 0.710988C36.5865 0.710988 37.2822 1.40122 37.2822 2.25188C37.2822 3.1026 36.5865 3.79277 35.7273 3.79277Z" fill="url(#paint0_linear_206_88)"/>
<path d="M47.3603 25.4328V38.3045C47.3603 38.4717 47.6322 38.5195 47.6322 38.3045V31.8806H51.8044C52.0307 31.8806 52.0307 31.5463 51.8044 31.5463H47.6322V25.6239H52.7109C52.87 25.6239 52.9144 25.3135 52.7109 25.3135H47.4962C47.4287 25.3135 47.3603 25.3373 47.3603 25.4328ZM48.7889 39.7612H46.1814C46.0681 39.7612 46 39.6657 46 39.5463V24.2149C46 24.0955 46.0681 24 46.1814 24H53.89C54.0028 24 54.0941 24.0955 54.0941 24.2149V26.7701C54.0941 26.8895 54.0028 26.985 53.89 26.985H48.9923V30.2328H52.8015C52.9144 30.2328 52.9828 30.3283 52.9828 30.4477V33.0507C52.9828 33.1702 52.9144 33.2657 52.8015 33.2657H48.9923V39.5463C48.9923 39.6657 48.9023 39.7612 48.7889 39.7612ZM64.4776 34.2448V24.2149C64.4776 24.0955 64.5682 24 64.6817 24H67.2662C67.3797 24 67.4709 24.0955 67.4709 24.2149V35.009C67.4709 38.4478 65.6789 40 62.3014 40C59.1045 40 57.1096 38.6628 57.1096 35.009V24.2149C57.1096 24.0955 57.1996 24 57.3137 24H59.9204C60.0345 24 60.1245 24.0955 60.1245 24.2149V34.2448C60.1245 36.3224 61.2358 36.7761 62.1657 36.7761H62.4377C63.843 36.7761 64.4776 35.7731 64.4776 34.2448ZM58.515 25.5283V34.8179C58.515 36.9672 59.8982 38.5195 62.0516 38.5195H62.619C64.7724 38.5195 66.1778 36.8955 66.1778 34.8179V25.5283C66.1778 25.3135 65.9058 25.2895 65.9058 25.5283V34.8179C65.9058 36.7761 64.5682 38.209 62.619 38.209H62.0516C60.1473 38.209 58.7869 36.9195 58.7869 34.8179V25.5283C58.7869 25.3135 58.515 25.3135 58.515 25.5283ZM73.8862 26.985H70.6671C70.5537 26.985 70.463 26.8895 70.463 26.7701V24.2149C70.463 24.0955 70.5537 24 70.6671 24H80.1213C80.2348 24 80.3255 24.0955 80.3255 24.2149V26.7701C80.3255 26.8895 80.2348 26.985 80.1213 26.985H76.9023V39.5463C76.9023 39.6657 76.811 39.7612 76.6982 39.7612H74.0903C73.9774 39.7612 73.8862 39.6657 73.8862 39.5463V26.985ZM78.7381 25.3135H71.8919C71.7327 25.3135 71.7327 25.6239 71.8919 25.6239H75.2465V38.2806C75.2465 38.4478 75.5419 38.4478 75.5419 38.2806V25.6239H78.7381C78.9651 25.6239 78.9423 25.3135 78.7381 25.3135ZM90.7096 34.2448V24.2149C90.7096 24.0955 90.7996 24 90.9131 24H93.4976C93.6117 24 93.7017 24.0955 93.7017 24.2149V35.009C93.7017 38.4478 91.9109 40 88.5328 40C85.3359 40 83.3404 38.6628 83.3404 35.009V24.2149C83.3404 24.0955 83.4316 24 83.5451 24H86.1524C86.2652 24 86.3559 24.0955 86.3559 24.2149V34.2448C86.3559 36.3224 87.4671 36.7761 88.3965 36.7761H88.6684C90.0744 36.7761 90.7096 35.7731 90.7096 34.2448ZM84.7464 25.5283V34.8179C84.7464 36.9672 86.1296 38.5195 88.2836 38.5195H88.8504C91.0044 38.5195 92.4091 36.8955 92.4091 34.8179V25.5283C92.4091 25.3135 92.1372 25.2895 92.1372 25.5283V34.8179C92.1372 36.7761 90.7996 38.209 88.8504 38.209H88.2836C86.3787 38.209 85.0183 36.9195 85.0183 34.8179V25.5283C85.0183 25.3135 84.7464 25.3135 84.7464 25.5283ZM106.285 33.5284C105.967 34.2209 105.514 34.7463 104.879 35.0567L106.784 39.4746C106.852 39.6179 106.761 39.7612 106.625 39.7612H103.836C103.745 39.7612 103.7 39.7135 103.678 39.6418L101.909 35.5821H100.753V39.5463C100.753 39.6657 100.662 39.7612 100.549 39.7612H97.9413C97.8513 39.7612 97.7828 39.6657 97.7828 39.5463V24.2149C97.7828 24.0955 97.8513 24 97.9413 24H102.657C105.174 24 106.693 25.5045 106.693 28.2984V31.3074C106.693 32.1433 106.557 32.9314 106.285 33.5284ZM103.723 30.5672V29.015C103.723 27.3433 103.134 27.1761 101.41 27.1761H100.753V32.4537H101.41C102.839 32.4537 103.678 32.4298 103.723 30.5672ZM99.438 38.3045V34.2209H102.703L104.607 38.3523C104.653 38.4717 104.925 38.4239 104.857 38.209L102.952 34.1493C104.72 33.8866 105.332 32.9075 105.332 31.1403V28.1552C105.332 25.5283 103.065 25.3135 102.363 25.3135H99.3017C99.2561 25.3135 99.166 25.385 99.166 25.4567V38.3045C99.166 38.4717 99.438 38.4717 99.438 38.3045ZM105.06 28.1552V31.1403C105.06 33.5761 103.587 33.9105 102.158 33.9105H99.438V25.6239H102.363C104.811 25.6239 105.06 27.3672 105.06 28.1552ZM110.887 39.7612C110.774 39.7612 110.706 39.6657 110.706 39.5463V24.2149C110.706 24.0955 110.774 24 110.887 24H118.596C118.709 24 118.8 24.0955 118.8 24.2149V26.7701C118.8 26.8895 118.709 26.985 118.596 26.985H113.699V30.2328H117.507C117.621 30.2328 117.689 30.3283 117.689 30.4477V33.0507C117.689 33.1702 117.621 33.2657 117.507 33.2657H113.699V36.7761H118.596C118.709 36.7761 118.8 36.8717 118.8 36.991V39.5463C118.8 39.6657 118.709 39.7612 118.596 39.7612H110.887ZM112.021 25.5045V38.209C112.021 38.3523 112.112 38.4 112.202 38.4H117.417C117.621 38.4 117.576 38.1135 117.417 38.1135H112.315V31.8806H116.487C116.623 31.8806 116.623 31.5463 116.487 31.5463H112.315V25.6239H117.417C117.576 25.6239 117.621 25.3135 117.417 25.3135H112.202C112.112 25.3135 112.021 25.385 112.021 25.5045ZM127.505 24C130.022 24 131.541 25.5045 131.541 28.2984V31.3074C131.541 33.8627 130.045 35.5821 127.505 35.5821H125.602V39.5463C125.602 39.6657 125.511 39.7612 125.397 39.7612H122.789C122.699 39.7612 122.632 39.6657 122.632 39.5463V24.2149C122.632 24.0955 122.699 24 122.789 24H127.505ZM128.571 30.591V29.015C128.571 27.3672 127.846 27.2 126.259 27.2H125.602V32.4537H126.259C127.505 32.4537 128.571 32.215 128.571 30.591ZM130.181 31.1403V28.1552C130.181 25.5283 128.254 25.3135 127.211 25.3135H124.151C124.105 25.3135 124.014 25.385 124.014 25.4567V38.3045C124.014 38.4717 124.287 38.4717 124.287 38.3045V34.2448H127.007C129.002 34.2448 130.181 33.5045 130.181 31.1403ZM124.287 25.6239H127.211C129.728 25.6239 129.887 27.3672 129.887 28.1552V31.1403C129.887 33.5761 128.435 33.9105 127.007 33.9105H124.287V25.6239ZM134.92 39.7612C134.806 39.7612 134.738 39.6657 134.738 39.5463V24.2149C134.738 24.0955 134.806 24 134.92 24H142.628C142.741 24 142.833 24.0955 142.833 24.2149V26.7701C142.833 26.8895 142.741 26.985 142.628 26.985H137.731V30.2328H141.539C141.653 30.2328 141.721 30.3283 141.721 30.4477V33.0507C141.721 33.1702 141.653 33.2657 141.539 33.2657H137.731V36.7761H142.628C142.741 36.7761 142.833 36.8717 142.833 36.991V39.5463C142.833 39.6657 142.741 39.7612 142.628 39.7612H134.92ZM136.053 25.5045V38.209C136.053 38.3523 136.144 38.4 136.235 38.4H141.449C141.653 38.4 141.608 38.1135 141.449 38.1135H136.348V31.8806H140.519C140.656 31.8806 140.656 31.5463 140.519 31.5463H136.348V25.6239H141.449C141.608 25.6239 141.653 25.3135 141.449 25.3135H136.235C136.144 25.3135 136.053 25.385 136.053 25.5045ZM152.513 24C154.055 24 155.211 24.4537 155.982 25.3373C156.661 26.1253 157.002 27.2955 157.002 28.7283V35.0567C157.002 37.9463 155.415 39.7612 152.513 39.7612H146.845C146.732 39.7612 146.663 39.6657 146.663 39.5463V24.2149C146.663 24.0955 146.732 24 146.845 24H152.513ZM154.032 34.3404V29.4448C154.032 27.9403 153.284 26.985 151.697 26.985H149.657V36.7761H151.697C153.057 36.7761 154.032 35.8448 154.032 34.3404ZM148.047 25.4567V38.3045C148.047 38.4 148.138 38.4239 148.182 38.4239H151.878C154.486 38.4239 155.664 36.7761 155.664 35.2478V29.1343C155.664 26.6029 154.395 25.3135 151.81 25.3135H148.182C148.138 25.3135 148.047 25.3373 148.047 25.4567ZM155.392 29.1343V35.2478C155.392 37.1583 153.579 38.1612 151.878 38.1612H148.319V25.6239H151.81C154.191 25.6239 155.392 26.7462 155.392 29.1343ZM161.151 39.7612C161.038 39.7612 160.97 39.6657 160.97 39.5463V24.2149C160.97 24.0955 161.038 24 161.151 24H163.736C163.849 24 163.94 24.0955 163.94 24.2149V39.5463C163.94 39.6657 163.849 39.7612 163.736 39.7612H161.151ZM162.33 25.4328V38.3045C162.33 38.5195 162.58 38.5195 162.58 38.3045V25.4328C162.58 25.2656 162.33 25.2656 162.33 25.4328ZM170.945 24.1433C170.968 24.0716 171.013 24 171.104 24H173.915C174.006 24 174.052 24.0716 174.074 24.1433L177.997 39.4985C178.019 39.6418 177.928 39.7612 177.792 39.7612H175.207C175.139 39.7612 175.072 39.7135 175.049 39.6179L174.164 36.2746H170.855L169.993 39.6179C169.971 39.7135 169.925 39.7612 169.835 39.7612H167.227C167.091 39.7612 167 39.6418 167.023 39.4985L170.945 24.1433ZM171.58 33.3134H173.462L172.487 29.7075L171.58 33.3134ZM175.072 34.7224L176.114 38.3045C176.16 38.4478 176.409 38.4239 176.341 38.2328L172.714 25.5283C172.646 25.2179 172.26 25.194 172.192 25.5283L168.678 38.2328C168.61 38.4 168.859 38.4717 168.928 38.3283L169.925 34.7224H175.072ZM169.993 34.4119L172.464 25.6239L174.981 34.4119H169.993Z" fill="#111111"/>
<path d="M47 16.8853V10.1913H51.2547V10.8511H47.8389V13.2036H50.7454V13.8538H47.8389V16.8853H47ZM54.2977 17C53.8253 17 53.4058 16.898 53.0391 16.694C52.6731 16.4837 52.3834 16.1936 52.1702 15.8238C51.9639 15.454 51.8608 15.0173 51.8608 14.5137C51.8608 14.0164 51.9639 13.5829 52.1702 13.2131C52.3771 12.837 52.6629 12.5469 53.0296 12.3429C53.402 12.1325 53.8317 12.0273 54.3174 12.0273C54.7974 12.0273 55.21 12.1325 55.5563 12.3429C55.909 12.5469 56.1789 12.8179 56.3654 13.1558C56.5513 13.4937 56.6449 13.857 56.6449 14.2459C56.6449 14.3161 56.6417 14.3862 56.6347 14.4563C56.6347 14.5264 56.6347 14.6061 56.6347 14.6954H52.6896C52.71 15.0588 52.7966 15.3616 52.9494 15.6038C53.1092 15.8397 53.3059 16.0183 53.5389 16.1394C53.7782 16.2605 54.0316 16.3211 54.2977 16.3211C54.644 16.3211 54.9337 16.2445 55.1667 16.0915C55.3997 15.9385 55.5697 15.7314 55.676 15.47H56.5048C56.3718 15.9099 56.1152 16.2764 55.7358 16.5697C55.3634 16.8566 54.8834 17 54.2977 17ZM54.2977 12.7063C53.8986 12.7063 53.5421 12.8243 53.2288 13.0602C52.9226 13.2896 52.7463 13.6275 52.6998 14.0738H55.816C55.7957 13.6467 55.6429 13.312 55.3564 13.0697C55.0699 12.8274 54.7172 12.7063 54.2977 12.7063ZM59.4046 17C58.9921 17 58.6489 16.9331 58.3758 16.7992C58.1027 16.6653 57.8996 16.4868 57.7666 16.2637C57.6335 16.0406 57.5673 15.7983 57.5673 15.5369C57.5673 15.0524 57.7602 14.6795 58.146 14.418C58.5324 14.1567 59.0583 14.026 59.7242 14.026H61.063V13.9686C61.063 13.5542 60.9496 13.2419 60.723 13.0314C60.4964 12.8147 60.194 12.7063 59.8139 12.7063C59.488 12.7063 59.2047 12.786 58.9653 12.9454C58.7323 13.0984 58.5859 13.3247 58.5261 13.6243H57.6666C57.7004 13.2801 57.8201 12.99 58.0263 12.7541C58.2396 12.5183 58.5025 12.3397 58.8157 12.2186C59.1283 12.0911 59.4612 12.0273 59.8139 12.0273C60.5066 12.0273 61.026 12.2059 61.3723 12.5629C61.725 12.9135 61.9014 13.3821 61.9014 13.9686V16.8853H61.1527L61.1024 16.0342C60.963 16.302 60.7561 16.5314 60.4836 16.7227C60.2169 16.9076 59.8572 17 59.4046 17ZM59.5345 16.3211C59.854 16.3211 60.1271 16.2414 60.3538 16.082C60.5868 15.9226 60.7631 15.7154 60.8828 15.4604C61.0025 15.2054 61.063 14.9377 61.063 14.6572V14.6476H59.7942C59.3015 14.6476 58.952 14.7304 58.7457 14.8962C58.5458 15.0556 58.4459 15.2564 58.4459 15.4986C58.4459 15.7473 58.5394 15.9481 58.7253 16.1011C58.9189 16.2478 59.1881 16.3211 59.5345 16.3211ZM64.9813 16.8853C64.5287 16.8853 64.1722 16.7801 63.9124 16.5697C63.6527 16.3593 63.5228 15.98 63.5228 15.4317V12.8211H62.664V12.1421H63.5228L63.6329 11.0041H64.3619V12.1421H65.8203V12.8211H64.3619V15.4317C64.3619 15.7314 64.4249 15.9354 64.5516 16.0437C64.6783 16.1457 64.9011 16.1967 65.2206 16.1967H65.7401V16.8853H64.9813ZM68.694 17C68.1077 17 67.6417 16.8311 67.2954 16.4932C66.949 16.149 66.7759 15.623 66.7759 14.9153V12.1421H67.6149V14.8292C67.6149 15.8174 68.0376 16.3115 68.8837 16.3115C69.316 16.3115 69.6725 16.1649 69.9519 15.8716C70.2384 15.572 70.3816 15.148 70.3816 14.5997V12.1421H71.2207V16.8853H70.4612L70.4014 16.0342C70.2486 16.3338 70.0188 16.5697 69.7126 16.7419C69.4127 16.9139 69.0734 17 68.694 17ZM72.6015 16.8853V12.1421H73.3603L73.4304 13.0506C73.5838 12.7382 73.8168 12.4896 74.1294 12.3047C74.4426 12.1198 74.8284 12.0273 75.288 12.0273V12.8689H75.0582C74.7653 12.8689 74.4954 12.9199 74.2497 13.0219C74.0033 13.1175 73.8066 13.2832 73.6602 13.5191C73.5138 13.755 73.4405 14.0802 73.4405 14.4945V16.8853H72.6015ZM78.2718 17C77.7988 17 77.3792 16.898 77.0132 16.694C76.6471 16.4837 76.3575 16.1936 76.1442 15.8238C75.938 15.454 75.8348 15.0173 75.8348 14.5137C75.8348 14.0164 75.938 13.5829 76.1442 13.2131C76.3505 12.837 76.637 12.5469 77.003 12.3429C77.3761 12.1325 77.8058 12.0273 78.2915 12.0273C78.7709 12.0273 79.184 12.1325 79.5297 12.3429C79.883 12.5469 80.1523 12.8179 80.3388 13.1558C80.5254 13.4937 80.6183 13.857 80.6183 14.2459C80.6183 14.3161 80.6151 14.3862 80.6088 14.4563C80.6088 14.5264 80.6088 14.6061 80.6088 14.6954H76.6637C76.6834 15.0588 76.77 15.3616 76.9234 15.6038C77.0832 15.8397 77.2793 16.0183 77.5123 16.1394C77.7523 16.2605 78.005 16.3211 78.2718 16.3211C78.6181 16.3211 78.9077 16.2445 79.1407 16.0915C79.3737 15.9385 79.5431 15.7314 79.65 15.47H80.4789C80.3458 15.9099 80.0893 16.2764 79.7099 16.5697C79.3368 16.8566 78.8575 17 78.2718 17ZM78.2718 12.7063C77.872 12.7063 77.5161 12.8243 77.2029 13.0602C76.8967 13.2896 76.7204 13.6275 76.6739 14.0738H79.7895C79.7697 13.6467 79.6163 13.312 79.3305 13.0697C79.044 12.8274 78.6913 12.7063 78.2718 12.7063ZM83.9777 17C83.485 17 83.0521 16.8916 82.6797 16.6749C82.313 16.4581 82.0271 16.1617 81.8202 15.7855C81.621 15.4094 81.521 14.9823 81.521 14.5041C81.521 14.026 81.6242 13.602 81.8304 13.2323C82.0367 12.8561 82.3232 12.5629 82.6892 12.3525C83.0559 12.1357 83.4882 12.0273 83.9879 12.0273C84.3941 12.0273 84.7537 12.107 85.0663 12.2664C85.3795 12.4258 85.6221 12.649 85.7952 12.9358V10H86.6343V16.8853H85.8754L85.7952 16.1011C85.6354 16.3306 85.4063 16.5378 85.1064 16.7227C84.8066 16.9076 84.4303 17 83.9777 17ZM84.0675 16.3019C84.4004 16.3019 84.6933 16.2286 84.9466 16.082C85.2064 15.929 85.4063 15.7186 85.5457 15.4508C85.6921 15.1831 85.7653 14.8707 85.7653 14.5137C85.7653 14.1567 85.6921 13.8443 85.5457 13.5766C85.4063 13.3088 85.2064 13.1016 84.9466 12.9549C84.6933 12.8019 84.4004 12.7255 84.0675 12.7255C83.7415 12.7255 83.4487 12.8019 83.1889 12.9549C82.9356 13.1016 82.7357 13.3088 82.5893 13.5766C82.4498 13.8443 82.3798 14.1567 82.3798 14.5137C82.3798 14.8707 82.4498 15.1831 82.5893 15.4508C82.7357 15.7186 82.9356 15.929 83.1889 16.082C83.4487 16.2286 83.7415 16.3019 84.0675 16.3019ZM92.9023 17C92.4363 17 92.0168 16.898 91.6437 16.694C91.2713 16.49 90.9747 16.2031 90.755 15.8333C90.5418 15.4572 90.4355 15.0173 90.4355 14.5137C90.4355 14.0101 90.5456 13.5733 90.7652 13.2036C90.9849 12.8274 91.2809 12.5373 91.6539 12.3333C92.0334 12.1294 92.4561 12.0273 92.9221 12.0273C93.3887 12.0273 93.8076 12.1294 94.1806 12.3333C94.5537 12.5373 94.8465 12.8274 95.0598 13.2036C95.2794 13.5733 95.3889 14.0101 95.3889 14.5137C95.3889 15.0173 95.2794 15.4572 95.0598 15.8333C94.8402 16.2031 94.5403 16.49 94.1609 16.694C93.7879 16.898 93.3683 17 92.9023 17ZM92.9023 16.3115C93.1888 16.3115 93.4549 16.2445 93.7013 16.1107C93.9476 15.9768 94.1475 15.776 94.3003 15.5082C94.4537 15.2405 94.5301 14.909 94.5301 14.5137C94.5301 14.1184 94.4537 13.7869 94.3003 13.5191C94.1539 13.2514 93.9578 13.0506 93.7115 12.9167C93.4651 12.7828 93.2022 12.7159 92.9221 12.7159C92.6362 12.7159 92.3695 12.7828 92.1231 12.9167C91.8768 13.0506 91.6775 13.2514 91.5241 13.5191C91.3707 13.7869 91.2943 14.1184 91.2943 14.5137C91.2943 14.909 91.3707 15.2405 91.5241 15.5082C91.6775 15.776 91.8736 15.9768 92.1136 16.1107C92.3599 16.2445 92.6229 16.3115 92.9023 16.3115ZM96.5558 16.8853V12.1421H97.3147L97.365 12.9932C97.5247 12.6936 97.7539 12.4577 98.0538 12.2855C98.3536 12.1134 98.6929 12.0273 99.0723 12.0273C99.6587 12.0273 100.125 12.1995 100.471 12.5437C100.824 12.8816 101 13.4044 101 14.112V16.8853H100.161V14.1981C100.161 13.21 99.7351 12.7159 98.8826 12.7159C98.4567 12.7159 98.1002 12.8657 97.8144 13.1653C97.5343 13.4586 97.3949 13.8794 97.3949 14.4276V16.8853H96.5558Z" fill="black"/>
<defs>
<linearGradient id="paint0_linear_206_88" x1="-18.05" y1="0" x2="43.7" y2="0" gradientUnits="userSpaceOnUse">
<stop stop-color="#280B45"/>
<stop offset="1" stop-color="#00AEEF"/>
</linearGradient>
</defs>
</svg>
