<svg width="11" height="11" viewBox="0 0 11 11" fill="none" xmlns="http://www.w3.org/2000/svg">
<path d="M1.62207 9.71094C1.71037 9.71088 1.79504 9.67578 1.85748 9.61334C1.91992 9.5509 1.95502 9.46623 1.95508 9.37793V2.59961H1.18164C0.868355 2.59995 0.567998 2.72455 0.346471 2.94608C0.124945 3.16761 0.000341208 3.46796 0 3.78125V9.37793C2.91146e-05 9.631 0.0593105 9.88055 0.173098 10.1066C0.286885 10.3326 0.452018 10.5289 0.655273 10.6797V10.6777C0.655558 10.4214 0.757508 10.1757 0.938756 9.99442C1.12 9.81317 1.36575 9.71122 1.62207 9.71094Z" fill="#3B82F6"/>
<path d="M9.81836 0H3.78125C3.46796 0.000341208 3.16761 0.124945 2.94608 0.346471C2.72455 0.567998 2.59995 0.868355 2.59961 1.18164V9.37793C2.59933 9.6371 2.49624 9.88558 2.31298 10.0688C2.12972 10.2521 1.88124 10.3552 1.62207 10.3555C1.5366 10.3555 1.45463 10.3894 1.39419 10.4499C1.33376 10.5103 1.2998 10.5923 1.2998 10.6777C1.2998 10.7632 1.33376 10.8452 1.39419 10.9056C1.45463 10.966 1.5366 11 1.62207 11H8.95898C9.5001 10.9994 10.0189 10.7841 10.4015 10.4015C10.7841 10.0189 10.9994 9.5001 11 8.95898V1.18164C10.9997 0.868355 10.8751 0.567998 10.6535 0.346471C10.432 0.124945 10.1316 0.000341208 9.81836 0ZM4.43652 3.0293H7.44434C7.52981 3.0293 7.61178 3.06325 7.67221 3.12369C7.73265 3.18412 7.7666 3.26609 7.7666 3.35156C7.7666 3.43703 7.73265 3.519 7.67221 3.57944C7.61178 3.63988 7.52981 3.67383 7.44434 3.67383H4.43652C4.35105 3.67383 4.26908 3.63988 4.20865 3.57944C4.14821 3.519 4.11426 3.43703 4.11426 3.35156C4.11426 3.26609 4.14821 3.18412 4.20865 3.12369C4.26908 3.06325 4.35105 3.0293 4.43652 3.0293ZM9.16309 7.9707H4.43652C4.35105 7.9707 4.26908 7.93675 4.20865 7.87631C4.14821 7.81588 4.11426 7.73391 4.11426 7.64844C4.11426 7.56297 4.14821 7.481 4.20865 7.42056C4.26908 7.36012 4.35105 7.32617 4.43652 7.32617H9.16309C9.24856 7.32617 9.33053 7.36012 9.39096 7.42056C9.4514 7.481 9.48535 7.56297 9.48535 7.64844C9.48535 7.73391 9.4514 7.81588 9.39096 7.87631C9.33053 7.93675 9.24856 7.9707 9.16309 7.9707ZM9.16309 5.69594H4.43652C4.35105 5.69594 4.26908 5.66198 4.20865 5.60155C4.14821 5.54111 4.11426 5.45914 4.11426 5.37367C4.11426 5.2882 4.14821 5.20623 4.20865 5.1458C4.26908 5.08536 4.35105 5.05141 4.43652 5.05141H9.16309C9.24856 5.05141 9.33053 5.08536 9.39096 5.1458C9.4514 5.20623 9.48535 5.2882 9.48535 5.37367C9.48535 5.45914 9.4514 5.54111 9.39096 5.60155C9.33053 5.66198 9.24856 5.69594 9.16309 5.69594Z" fill="#3B82F6"/>
</svg>
