<svg width="17" height="17" viewBox="0 0 17 17" fill="none" xmlns="http://www.w3.org/2000/svg">
<path d="M9.60669 1.48123L9.06891 2.00401L9.10215 2.0382L9.13946 2.06791L9.60669 1.48123ZM2.97949 2.68431L3.69389 2.91263L3.70199 2.88728L3.70827 2.86142L2.97949 2.68431ZM1.10828 8.53929L1.81679 8.78527L1.81984 8.77648L1.82268 8.76761L1.10828 8.53929ZM6.48801 11.5871L7.22956 11.6997L7.23088 11.6903L6.48801 11.5871ZM6.09817 14.1537L6.83126 14.312L6.83617 14.2893L6.83967 14.2663L6.09817 14.1537ZM7.11175 15.9182L7.38168 15.2184L7.36844 15.2133L7.35502 15.2087L7.11175 15.9182ZM8.82702 15.3567L8.19916 14.9465L8.19763 14.9489L8.82702 15.3567ZM12.4909 2.81948L10.0739 0.894557L9.13946 2.06791L11.5564 3.99283L12.4909 2.81948ZM10.1445 0.958459C9.8561 0.661802 9.45706 0.495119 9.13597 0.400745C8.79732 0.30121 8.43379 0.25 8.12532 0.25V1.75C8.28465 1.75 8.50587 1.779 8.71299 1.83987C8.93767 1.90591 9.04542 1.97984 9.06891 2.00401L10.1445 0.958459ZM8.12532 0.25H5.16257V1.75H8.12532V0.25ZM5.16257 0.25C4.50936 0.25 3.86707 0.497966 3.35685 0.882013C2.84529 1.26707 2.41586 1.82759 2.2507 2.5072L3.70827 2.86142C3.77702 2.57857 3.97132 2.29693 4.25893 2.08045C4.54787 1.86296 4.88017 1.75 5.16257 1.75V0.25ZM2.26509 2.45599L0.393873 8.31098L1.82268 8.76761L3.69389 2.91263L2.26509 2.45599ZM0.39976 8.29331C0.134957 9.05604 0.222878 9.83721 0.654486 10.4398C1.08507 11.0409 1.79352 11.3746 2.58965 11.3746V9.87463C2.21628 9.87463 1.98912 9.72711 1.87393 9.56631C1.75977 9.40692 1.69176 9.14542 1.81679 8.78527L0.39976 8.29331ZM2.58965 11.3746H5.70834V9.87463H2.58965V11.3746ZM5.70834 11.3746C5.72443 11.3746 5.73054 11.3801 5.73356 11.3836C5.73545 11.3858 5.73962 11.3914 5.74306 11.4036C5.74641 11.4154 5.7511 11.441 5.74514 11.4839L7.23088 11.6903C7.3699 10.6892 6.64266 9.87463 5.70834 9.87463V11.3746ZM5.74651 11.4745L5.35668 14.041L6.83967 14.2663L7.2295 11.6997L5.74651 11.4745ZM5.36508 13.9953C5.12617 15.1013 5.81939 16.2679 6.86847 16.6276L7.35502 15.2087C7.0007 15.0872 6.75831 14.6498 6.83126 14.312L5.36508 13.9953ZM6.84181 16.6179C7.35538 16.816 7.8947 16.7714 8.33638 16.6152C8.77351 16.4607 9.19425 16.1692 9.45641 15.7646L8.19763 14.9489C8.14793 15.0256 8.0229 15.1351 7.8363 15.2011C7.65423 15.2654 7.49185 15.2609 7.38168 15.2184L6.84181 16.6179ZM9.45489 15.767L12.6515 10.8744L11.3958 10.054L8.19916 14.9465L9.45489 15.767ZM15.25 3.40616V11.2663H16.75V3.40616H15.25ZM15.25 11.2663C15.25 11.7482 15.1457 11.8746 15.1132 11.9054C15.0716 11.945 14.9251 12.0402 14.4407 12.0402V13.5402C15.0478 13.5402 15.681 13.4349 16.1461 12.9932C16.6204 12.5428 16.75 11.9072 16.75 11.2663H15.25ZM14.4407 12.0402H13.661V13.5402H14.4407V12.0402ZM13.661 12.0402C13.1766 12.0402 13.0301 11.945 12.9884 11.9054C12.9559 11.8746 12.8516 11.7482 12.8516 11.2663H11.3516C11.3516 11.9072 11.4813 12.5428 11.9555 12.9932C12.4207 13.4349 13.0539 13.5402 13.661 13.5402V12.0402ZM12.8516 11.2663V3.40616H11.3516V11.2663H12.8516ZM12.8516 3.40616C12.8516 2.92424 12.9559 2.79787 12.9884 2.76699C13.0301 2.72745 13.1766 2.63226 13.661 2.63226V1.13226C13.0539 1.13226 12.4207 1.23758 11.9555 1.67926C11.4813 2.12962 11.3516 2.7652 11.3516 3.40616H12.8516ZM13.661 2.63226H14.4407V1.13226H13.661V2.63226ZM14.4407 2.63226C14.9251 2.63226 15.0716 2.72745 15.1132 2.76699C15.1457 2.79787 15.25 2.92424 15.25 3.40616H16.75C16.75 2.7652 16.6204 2.12962 16.1461 1.67926C15.681 1.23758 15.0478 1.13226 14.4407 1.13226V2.63226Z" fill="#4E6C87"/>
</svg>
