<svg width="14" height="12" viewBox="0 0 14 12" fill="none" xmlns="http://www.w3.org/2000/svg">
<path d="M10.1112 12H2.33334C1.71004 12 1.12409 11.7919 0.683401 11.4142C0.242707 11.0364 0 10.5342 0 9.99999V3.33333C0 2.7991 0.242735 2.29687 0.683428 1.91913C1.12412 1.5414 1.71006 1.33334 2.33336 1.33334H5.44449C5.87407 1.33334 6.22228 1.6318 6.22228 2.00001C6.22228 2.36822 5.87407 2.66668 5.44449 2.66668H2.33334C2.12557 2.66668 1.93027 2.73603 1.78339 2.86193C1.63652 2.98783 1.55558 3.15524 1.55558 3.33333V9.99999C1.55558 10.1781 1.63649 10.3455 1.78339 10.4714C1.93027 10.5973 2.12557 10.6667 2.33334 10.6667H10.1111C10.3189 10.6667 10.5142 10.5973 10.6611 10.4714C10.808 10.3455 10.8889 10.1781 10.8889 9.99997V7.33333C10.8889 6.96512 11.2371 6.66668 11.6667 6.66668C12.0963 6.66668 12.4445 6.96514 12.4445 7.33333V9.99999C12.4445 10.5342 12.2018 11.0364 11.7611 11.4142C11.3204 11.7919 10.7344 12 10.1112 12ZM5.44449 7.99998C5.24542 7.99998 5.04637 7.93491 4.89452 7.80473C4.59079 7.54439 4.59079 7.12225 4.89452 6.86191L11.3445 1.33334H8.55562C8.12603 1.33334 7.77785 1.03488 7.77785 0.666671C7.77785 0.298462 8.12603 4.40278e-07 8.55562 4.40278e-07H13.2223C13.4254 -0.000199783 13.6205 0.0678979 13.7656 0.189659L13.7657 0.189706L13.7672 0.19101L13.7677 0.191383L13.7739 0.196716L13.7747 0.197461L13.7755 0.198136C13.7761 0.198577 13.7766 0.199052 13.7772 0.199557L13.7787 0.200884L13.7787 0.200931C13.9208 0.325355 14.0002 0.492566 14 0.666648V4.66665C14 5.03486 13.6518 5.33332 13.2222 5.33332C12.7926 5.33332 12.4444 5.03486 12.4444 4.66665V2.27616L5.99432 7.80475C5.84258 7.93493 5.64354 7.99998 5.44449 7.99998Z" fill="#3B82F6"/>
</svg>
