<svg width="9" height="11" viewBox="0 0 9 11" fill="none" xmlns="http://www.w3.org/2000/svg">
<path d="M0.560925 10.4999L0.559016 10.5C0.549343 10.5 0.541338 10.4978 0.536122 10.4953C0.533927 10.4942 0.532645 10.4933 0.532064 10.4929C0.517578 10.4735 0.5 10.439 0.5 10.3751V0.93376C0.5 0.763693 0.707011 0.5 1.05851 0.5H7.97901C8.3061 0.5 8.5 0.741762 8.5 0.93376V10.3752C8.5 10.432 8.49132 10.4655 8.48527 10.4819C8.48187 10.4911 8.47891 10.4962 8.47734 10.4984C8.47514 10.4991 8.47089 10.5 8.46371 10.5C8.44775 10.5 8.39419 10.4948 8.2942 10.4161L8.29376 10.4157L5.20839 7.9923C5.20828 7.99221 5.20816 7.99211 5.20804 7.99202C5.00921 7.83559 4.7577 7.76642 4.52329 7.76642C4.28934 7.76642 4.03749 7.8353 3.83867 7.99167C3.83847 7.99182 3.83828 7.99197 3.83809 7.99212L0.743001 10.4156L0.741847 10.4165C0.650578 10.4884 0.585181 10.4999 0.560925 10.4999ZM8.47927 10.4975C8.47935 10.4975 8.47901 10.4978 8.47812 10.4982L8.47927 10.4975Z" stroke="#3B82F6"/>
</svg>
