<svg width="11" height="11" viewBox="0 0 11 11" fill="none" xmlns="http://www.w3.org/2000/svg">
<path d="M5.5 1.58446C5.40883 1.58446 5.3214 1.54824 5.25693 1.48378C5.19247 1.41931 5.15625 1.33188 5.15625 1.24071V0.34375C5.15625 0.252582 5.19247 0.165148 5.25693 0.100682C5.3214 0.0362164 5.40883 0 5.5 0C5.59117 0 5.6786 0.0362164 5.74307 0.100682C5.80753 0.165148 5.84375 0.252582 5.84375 0.34375V1.24071C5.84375 1.33188 5.80753 1.41931 5.74307 1.48378C5.6786 1.54824 5.59117 1.58446 5.5 1.58446ZM8.51171 2.83204C8.44367 2.83207 8.37715 2.81191 8.32058 2.77411C8.26401 2.73632 8.21993 2.68258 8.19392 2.61971C8.1679 2.55684 8.16113 2.48767 8.17446 2.42095C8.18779 2.35423 8.22062 2.29297 8.26879 2.24492L8.90312 1.61058C8.93505 1.57865 8.97296 1.55332 9.01468 1.53604C9.0564 1.51876 9.10111 1.50987 9.14627 1.50987C9.19143 1.50987 9.23614 1.51876 9.27786 1.53604C9.31958 1.55332 9.35749 1.57865 9.38942 1.61058C9.42135 1.64251 9.44668 1.68042 9.46396 1.72214C9.48124 1.76386 9.49013 1.80857 9.49013 1.85373C9.49013 1.89889 9.48124 1.9436 9.46396 1.98532C9.44668 2.02704 9.42135 2.06494 9.38942 2.09687L8.75508 2.73121C8.69051 2.79572 8.60298 2.83198 8.51171 2.83204ZM10.6562 5.84375H9.75929C9.66812 5.84375 9.58069 5.80753 9.51622 5.74307C9.45176 5.6786 9.41554 5.59117 9.41554 5.5C9.41554 5.40883 9.45176 5.3214 9.51622 5.25693C9.58069 5.19247 9.66812 5.15625 9.75929 5.15625H10.6562C10.7474 5.15625 10.8349 5.19247 10.8993 5.25693C10.9638 5.3214 11 5.40883 11 5.5C11 5.59117 10.9638 5.6786 10.8993 5.74307C10.8349 5.80753 10.7474 5.84375 10.6562 5.84375ZM9.14604 9.48979C9.10089 9.4899 9.05617 9.48105 9.01447 9.46374C8.97277 9.44643 8.93492 9.42101 8.90312 9.38896L8.26879 8.75463C8.23686 8.72269 8.21153 8.68479 8.19425 8.64307C8.17697 8.60135 8.16808 8.55663 8.16808 8.51148C8.16808 8.46632 8.17697 8.42161 8.19425 8.37989C8.21153 8.33817 8.23686 8.30026 8.26879 8.26833C8.30072 8.2364 8.33863 8.21107 8.38035 8.19379C8.42207 8.17651 8.46678 8.16762 8.51194 8.16762C8.55709 8.16762 8.60181 8.17651 8.64353 8.19379C8.68525 8.21107 8.72315 8.2364 8.75508 8.26833L9.38942 8.90267C9.43762 8.95074 9.47045 9.01205 9.48377 9.07881C9.49708 9.14557 9.49027 9.21478 9.46421 9.27767C9.43814 9.34056 9.39398 9.39429 9.33734 9.43206C9.2807 9.46982 9.21412 9.48991 9.14604 9.48979ZM1.85396 9.48979C1.78592 9.48982 1.7194 9.46966 1.66283 9.43186C1.60626 9.39407 1.56218 9.34033 1.53617 9.27746C1.51015 9.21459 1.50338 9.14542 1.51671 9.0787C1.53004 9.01198 1.56287 8.95072 1.61104 8.90267L2.24538 8.26833C2.27731 8.2364 2.31521 8.21107 2.35693 8.19379C2.39865 8.17651 2.44336 8.16762 2.48852 8.16762C2.53368 8.16762 2.57839 8.17651 2.62011 8.19379C2.66183 8.21107 2.69974 8.2364 2.73167 8.26833C2.7636 8.30026 2.78893 8.33817 2.80621 8.37989C2.82349 8.42161 2.83238 8.46632 2.83238 8.51148C2.83238 8.55663 2.82349 8.60135 2.80621 8.64307C2.78893 8.68479 2.7636 8.72269 2.73167 8.75463L2.09733 9.38896C2.06542 9.42098 2.02749 9.44638 1.98572 9.46369C1.94395 9.48099 1.89917 9.48986 1.85396 9.48979ZM1.24071 5.84375H0.34375C0.252582 5.84375 0.165148 5.80753 0.100682 5.74307C0.0362164 5.6786 0 5.59117 0 5.5C0 5.40883 0.0362164 5.3214 0.100682 5.25693C0.165148 5.19247 0.252582 5.15625 0.34375 5.15625H1.24071C1.33188 5.15625 1.41931 5.19247 1.48378 5.25693C1.54824 5.3214 1.58446 5.40883 1.58446 5.5C1.58446 5.59117 1.54824 5.6786 1.48378 5.74307C1.41931 5.80753 1.33188 5.84375 1.24071 5.84375ZM2.48829 2.83204C2.44314 2.83215 2.39842 2.8233 2.35672 2.80599C2.31502 2.78868 2.27717 2.76326 2.24538 2.73121L1.61104 2.09687C1.57911 2.06494 1.55378 2.02704 1.5365 1.98532C1.51922 1.9436 1.51033 1.89889 1.51033 1.85373C1.51033 1.80857 1.51922 1.76386 1.5365 1.72214C1.55378 1.68042 1.57911 1.64251 1.61104 1.61058C1.64297 1.57865 1.68088 1.55332 1.7226 1.53604C1.76432 1.51876 1.80903 1.50987 1.85419 1.50987C1.89934 1.50987 1.94406 1.51876 1.98578 1.53604C2.0275 1.55332 2.0654 1.57865 2.09733 1.61058L2.73167 2.24492C2.77987 2.29299 2.8127 2.3543 2.82602 2.42106C2.83933 2.48782 2.83252 2.55703 2.80646 2.61992C2.78039 2.68281 2.73623 2.73654 2.67959 2.77431C2.62295 2.81207 2.55637 2.83216 2.48829 2.83204ZM6.875 9.625V10.1979C6.875 10.6379 6.51292 11 6.07292 11H4.92708C4.54208 11 4.125 10.7067 4.125 10.065V9.625H6.875ZM7.52125 3.00667C7.1465 2.7039 6.70859 2.48907 6.23979 2.37802C5.77099 2.26697 5.28325 2.26252 4.8125 2.365C3.59792 2.61708 2.6125 3.60708 2.36042 4.82167C2.10375 6.06833 2.57125 7.30583 3.57042 8.06208C3.84083 8.26375 4.02875 8.57542 4.09292 8.9375V8.94208C4.10208 8.9375 4.11583 8.9375 4.125 8.9375H6.875C6.88417 8.9375 6.88875 8.9375 6.89792 8.94208V8.9375C6.96208 8.58917 7.16833 8.26833 7.48458 8.02083C7.86634 7.72094 8.1749 7.33814 8.38691 6.90142C8.59892 6.46469 8.70883 5.98547 8.70833 5.5C8.70833 4.52833 8.2775 3.62083 7.52125 3.00667ZM7.21875 5.72917C7.03083 5.72917 6.875 5.57333 6.875 5.38542C6.875 4.68875 6.31125 4.125 5.61458 4.125C5.42667 4.125 5.27083 3.96917 5.27083 3.78125C5.27083 3.59333 5.42667 3.4375 5.61458 3.4375C6.13083 3.43871 6.62559 3.64433 6.99063 4.00937C7.35568 4.37441 7.56129 4.86917 7.5625 5.38542C7.5625 5.57333 7.40667 5.72917 7.21875 5.72917Z" fill="#3B82F6"/>
<path d="M4.09292 8.9375H4.125C4.11583 8.9375 4.10208 8.9375 4.09292 8.94208V8.9375ZM6.89792 8.9375V8.94208C6.88875 8.9375 6.88417 8.9375 6.875 8.9375H6.89792Z" fill="#3B82F6"/>
</svg>
