<svg width="13" height="13" viewBox="0 0 13 13" fill="none" xmlns="http://www.w3.org/2000/svg">
<path d="M12 6.5C12 9.536 9.536 12 6.5 12C3.464 12 1 9.536 1 6.5C1 3.464 3.464 1 6.5 1C9.536 1 12 3.464 12 6.5Z" fill="#3B82F6"/>
<path d="M8.5405 8.249L6.8355 7.2315C6.5385 7.0555 6.2965 6.632 6.2965 6.2855V4.0305" fill="#3B82F6"/>
<path d="M8.5405 8.249L6.8355 7.2315C6.5385 7.0555 6.2965 6.632 6.2965 6.2855V4.0305M12 6.5C12 9.536 9.536 12 6.5 12C3.464 12 1 9.536 1 6.5C1 3.464 3.464 1 6.5 1C9.536 1 12 3.464 12 6.5Z" stroke="#3B82F6" stroke-width="1.5" stroke-linecap="round" stroke-linejoin="round"/>
<path d="M6 4V7H9" stroke="white" stroke-linecap="round"/>
</svg>
