<svg width="19" height="19" viewBox="0 0 19 19" fill="none" xmlns="http://www.w3.org/2000/svg">
<path d="M9.5 3.68852C6.29045 3.68852 3.68857 6.2904 3.68857 9.49995C3.68857 12.7095 6.29045 15.3114 9.5 15.3114C12.7096 15.3114 15.3114 12.7095 15.3114 9.49995C15.3114 6.2904 12.7096 3.68852 9.5 3.68852ZM9.5 14.25V4.74997C11.7554 4.74398 13.7004 6.33332 14.1439 8.54465C14.2854 9.17366 14.2854 9.82624 14.1439 10.4552C13.7004 12.6667 11.7554 14.256 9.5 14.25ZM14.1704 4.82962C14.2684 4.92961 14.4019 4.98684 14.5419 4.98885C14.6819 4.98686 14.8154 4.92963 14.9134 4.82962L16.2136 3.52934C16.4482 3.35345 16.4956 3.02081 16.3198 2.7863C16.144 2.55179 15.8113 2.5043 15.5768 2.68015C15.5365 2.71032 15.5008 2.74607 15.4706 2.7863L14.1703 4.08658C13.9651 4.27481 13.9514 4.59379 14.1397 4.79894C14.1495 4.8096 14.1597 4.81981 14.1704 4.82962ZM4.72346 14.1704C4.63159 14.1015 4.51985 14.0642 4.40502 14.0642C4.29019 14.0642 4.17845 14.1015 4.08658 14.1704L2.7863 15.4707C2.5811 15.6589 2.56739 15.9779 2.75567 16.183C2.76543 16.1937 2.77565 16.2039 2.7863 16.2136C2.97454 16.4188 3.29351 16.4326 3.49866 16.2443C3.50931 16.2345 3.51953 16.2243 3.52929 16.2136L4.82957 14.9134C5.00546 14.6789 4.95797 14.3462 4.72346 14.1704ZM16.2136 15.4707L14.9134 14.1704C14.8112 14.0938 14.6848 14.0566 14.5574 14.0657C14.43 14.0748 14.3101 14.1295 14.2198 14.2198C14.1295 14.3102 14.0748 14.43 14.0657 14.5574C14.0566 14.6848 14.0937 14.8112 14.1703 14.9134L15.4706 16.2137C15.6588 16.4189 15.9778 16.4326 16.183 16.2443C16.1936 16.2346 16.2038 16.2243 16.2136 16.2137C16.4188 16.0255 16.4325 15.7065 16.2442 15.5013C16.2345 15.4906 16.2243 15.4804 16.2136 15.4707ZM4.08658 4.82962C4.27481 5.03482 4.59379 5.04853 4.79894 4.86024C4.80959 4.85048 4.81981 4.84026 4.82957 4.82962C5.03477 4.64138 5.04848 4.32241 4.86019 4.11726C4.85043 4.10661 4.84021 4.09639 4.82957 4.08663L3.52929 2.78635C3.42707 2.70977 3.30067 2.67261 3.17327 2.68169C3.04587 2.69078 2.92602 2.7455 2.83571 2.83581C2.74539 2.92612 2.69068 3.04597 2.68159 3.17337C2.67251 3.30077 2.70967 3.42718 2.78625 3.52939L4.08658 4.82962ZM9.5 2.89246C9.79312 2.89246 10.0307 2.65485 10.0307 2.36173V0.530727C10.0307 0.237605 9.79312 0 9.5 0C9.20688 0 8.96927 0.237605 8.96927 0.530727V2.36173C8.96927 2.65485 9.20688 2.89246 9.5 2.89246ZM9.5 16.1075C9.20688 16.1075 8.96927 16.3451 8.96927 16.6383V18.4693C8.96927 18.7624 9.20688 19 9.5 19C9.79312 19 10.0307 18.7624 10.0307 18.4693V16.6383C10.0307 16.3451 9.79312 16.1075 9.5 16.1075ZM18.4693 8.96927H16.6383C16.3451 8.96927 16.1075 9.20688 16.1075 9.5C16.1075 9.79312 16.3451 10.0307 16.6383 10.0307H18.4693C18.7624 10.0307 19 9.79312 19 9.5C19 9.20688 18.7623 8.96927 18.4693 8.96927ZM2.89246 9.5C2.89246 9.20688 2.65485 8.96927 2.36173 8.96927H0.530727C0.237605 8.96927 0 9.20688 0 9.5C0 9.79312 0.237605 10.0307 0.530727 10.0307H2.36173C2.65485 10.0307 2.89246 9.79312 2.89246 9.5Z" fill="#3B82F6"/>
</svg>
