<svg width="8" height="12" viewBox="0 0 8 12" fill="none" xmlns="http://www.w3.org/2000/svg">
<path d="M7.37686 4.97017H6.94163V3.26743C6.94163 1.4658 5.62203 0 4.00005 0H3.99997C2.37806 4.88281e-05 1.05846 1.46582 1.05846 3.26746V3.30249H2.10805V3.26746C2.10805 2.68801 2.32021 2.16262 2.66281 1.78208C2.7486 1.68677 2.8424 1.60078 2.94291 1.52527C3.25494 1.29067 3.62317 1.16547 3.99997 1.16587H4.00005C5.04335 1.16587 5.89204 2.10857 5.89204 3.26746V4.97019H0.623116C0.278963 4.97019 0 5.28005 0 5.66233V11.3079C0 11.6901 0.278963 12 0.623116 12H7.37688C7.72099 12 8 11.6901 8 11.3079V5.66233C7.99996 5.28003 7.72099 4.97017 7.37686 4.97017ZM4.62423 9.84319H3.37571L3.59919 8.66045C3.39024 8.51274 3.25065 8.25483 3.25065 7.9593C3.25065 7.49963 3.58612 7.12698 3.99997 7.12698C4.41384 7.12698 4.74929 7.49961 4.74929 7.9593C4.74929 8.25481 4.60972 8.51274 4.40078 8.66043L4.62423 9.84319Z" fill="#3B82F6"/>
</svg>
