<svg width="9" height="12" viewBox="0 0 9 12" fill="none" xmlns="http://www.w3.org/2000/svg">
<path d="M4.5 0C3.84265 0 3.21221 0.252856 2.7474 0.702944C2.28258 1.15303 2.02144 1.76348 2.02144 2.4V2.8H1.67858C1.3308 2.79965 0.996281 2.92919 0.744662 3.16165C0.493044 3.39412 0.343714 3.7116 0.327761 4.048L0.00141779 10.628C-0.00694795 10.8049 0.0217733 10.9817 0.0858503 11.1476C0.149927 11.3135 0.248033 11.4651 0.374254 11.5933C0.500475 11.7215 0.652198 11.8236 0.820276 11.8935C0.988355 11.9634 1.16931 11.9996 1.35223 12H7.64777C7.83069 11.9996 8.01165 11.9634 8.17972 11.8935C8.3478 11.8236 8.49953 11.7215 8.62575 11.5933C8.75197 11.4651 8.85007 11.3135 8.91415 11.1476C8.97823 10.9817 9.00695 10.8049 8.99858 10.628L8.67224 4.048C8.65629 3.7116 8.50696 3.39412 8.25534 3.16165C8.00372 2.92919 7.6692 2.79965 7.32143 2.8H6.97856V2.4C6.97856 1.76348 6.71743 1.15303 6.25261 0.702944C5.78779 0.252856 5.15735 0 4.5 0ZM2.84763 2.4C2.84763 1.97565 3.02172 1.56869 3.3316 1.26863C3.64148 0.968571 4.06176 0.8 4.5 0.8C4.93824 0.8 5.35852 0.968571 5.6684 1.26863C5.97828 1.56869 6.15237 1.97565 6.15237 2.4V2.8H2.84763V2.4ZM2.17016 4.476C2.17016 4.39689 2.19438 4.31955 2.23977 4.25377C2.28517 4.18799 2.34968 4.13672 2.42517 4.10645C2.50065 4.07617 2.58371 4.06825 2.66384 4.08369C2.74397 4.09912 2.81758 4.13722 2.87535 4.19316C2.93312 4.2491 2.97247 4.32037 2.9884 4.39796C3.00434 4.47556 2.99616 4.55598 2.9649 4.62907C2.93363 4.70216 2.88068 4.76464 2.81275 4.80859C2.74482 4.85254 2.66495 4.876 2.58325 4.876C2.47369 4.876 2.36862 4.83386 2.29115 4.75884C2.21368 4.68383 2.17016 4.58209 2.17016 4.476ZM6.00366 4.476C6.00366 4.39689 6.02789 4.31955 6.07328 4.25377C6.11867 4.18799 6.18318 4.13672 6.25867 4.10645C6.33415 4.07617 6.41721 4.06825 6.49734 4.08369C6.57747 4.09912 6.65108 4.13722 6.70885 4.19316C6.76662 4.2491 6.80597 4.32037 6.82191 4.39796C6.83785 4.47556 6.82967 4.55598 6.7984 4.62907C6.76713 4.70216 6.71419 4.76464 6.64625 4.80859C6.57832 4.85254 6.49845 4.876 6.41675 4.876C6.30719 4.876 6.20212 4.83386 6.12465 4.75884C6.04718 4.68383 6.00366 4.58209 6.00366 4.476Z" fill="#3B82F6"/>
</svg>
