<svg width="132" height="45" viewBox="0 0 132 45" fill="none" xmlns="http://www.w3.org/2000/svg">
<g clip-path="url(#clip0_241_139)">
<path d="M21.129 28.6743C21.0172 28.6743 20.9054 28.6743 20.7656 28.6465V41.1619C20.8774 41.1341 21.0172 41.1341 21.129 41.1341C21.2687 41.1341 21.3805 41.1619 21.4923 41.1619V28.6465C21.4084 28.6743 21.2687 28.6743 21.129 28.6743Z" fill="white"/>
<path d="M21.129 18.6619C21.2687 18.6619 21.3805 18.6619 21.5202 18.6897V7.31458H20.7656V18.6897C20.9054 18.6619 21.0172 18.6619 21.129 18.6619Z" fill="white"/>
<path d="M62.5764 21.5543H59.53L58.1326 18.8566L54.8067 12.3485L51.4809 18.8566L50.0835 21.5543H47.0371L48.4345 18.8566L54.8067 6.39673L61.179 18.8566L62.5764 21.5543Z" fill="#3B82F6"/>
<path d="M63.8896 21.5543V6.39673H66.6006V21.5543H63.8896Z" fill="#3B82F6"/>
<path d="M85.9135 6.42456V9.12234H79.6531V21.5822H76.9421V9.12234H70.6816V6.42456H85.9135Z" fill="#3B82F6"/>
<path d="M101.397 13.9894C101.397 18.1613 97.9868 21.5821 93.7666 21.5821C89.5464 21.5821 86.1367 18.1891 86.1367 13.9894C86.1367 9.78981 89.5464 6.39673 93.7666 6.39673C97.9868 6.39673 101.397 9.78981 101.397 13.9894ZM98.6855 13.9894C98.6855 11.2917 96.4776 9.12232 93.7946 9.12232C91.1115 9.12232 88.9036 11.3195 88.9036 13.9894C88.9036 16.6594 91.1115 18.8566 93.7946 18.8566C96.4776 18.8566 98.6855 16.6594 98.6855 13.9894Z" fill="#3B82F6"/>
<path d="M117.774 13.9894C117.774 18.1613 114.365 21.5821 110.145 21.5821C105.924 21.5821 102.515 18.1891 102.515 13.9894C102.515 9.78981 105.924 6.39673 110.145 6.39673C114.365 6.39673 117.774 9.78981 117.774 13.9894ZM115.063 13.9894C115.063 11.2917 112.856 9.12232 110.172 9.12232C107.489 9.12232 105.282 11.3195 105.282 13.9894C105.282 16.6594 107.489 18.8566 110.172 18.8566C112.856 18.8566 115.063 16.6594 115.063 13.9894Z" fill="#3B82F6"/>
<path d="M132 18.8844V21.5822H124.258C123.503 21.5822 122.777 21.4153 122.134 21.0815C121.184 20.6087 120.401 19.83 119.926 18.8844C119.591 18.2447 119.423 17.5216 119.423 16.7707V6.42456H122.134V17.021C122.274 17.9666 123.028 18.7453 123.978 18.8566L132 18.8844Z" fill="#3B82F6"/>
<path d="M39.5193 17.16H37.4512V30.037H39.5193V17.16Z" fill="#3B82F6"/>
<path d="M3.49321 15.9641C3.35347 15.9641 3.24168 15.9363 3.12988 15.9363V28.3961C3.35347 28.3683 3.605 28.3683 3.88449 28.3683V15.9363C3.74475 15.9363 3.63295 15.9641 3.49321 15.9641Z" fill="white"/>
<path d="M3.49359 15.1021C4.3271 15.1021 5.0028 14.4297 5.0028 13.6002C5.0028 12.7708 4.3271 12.0984 3.49359 12.0984C2.66007 12.0984 1.98438 12.7708 1.98438 13.6002C1.98438 14.4297 2.66007 15.1021 3.49359 15.1021Z" fill="white"/>
<path d="M3.49345 15.1855C2.62705 15.1855 1.90039 14.4624 1.90039 13.6002C1.90039 12.738 2.62705 12.0149 3.49345 12.0149C4.35984 12.0149 5.0865 12.738 5.0865 13.6002C5.0865 14.4624 4.35984 15.1855 3.49345 15.1855ZM3.49345 12.154C2.68294 12.154 2.04013 12.7936 2.04013 13.6002C2.04013 14.4067 2.68294 15.0464 3.49345 15.0464C4.30395 15.0464 4.94676 14.4067 4.94676 13.6002C4.94676 12.7936 4.30395 12.154 3.49345 12.154Z" fill="white"/>
<path d="M3.85687 29.5365C1.7328 29.5365 0 31.2609 0 33.3746C0 35.4883 1.7328 37.2126 3.85687 37.2126C5.98094 37.2126 7.71374 35.4883 7.71374 33.3746C7.71374 31.2609 5.98094 29.5365 3.85687 29.5365ZM3.82892 34.0699C3.43765 34.0699 3.13021 33.7639 3.13021 33.3746C3.13021 32.9852 3.43765 32.6793 3.82892 32.6793C4.2202 32.6793 4.52763 32.9852 4.52763 33.3746C4.52763 33.7639 4.2202 34.0699 3.82892 34.0699Z" fill="#3B82F6"/>
<path d="M57.9087 36.4895L59.1664 38.9091H56.4275L55.1698 36.4895L53.8562 33.9586L53.8003 33.8473C53.3811 33.152 52.5986 32.6792 51.7322 32.6792H49.3006V38.9369H46.8691V25.3646H55.4772C56.4834 25.3646 57.4057 25.7818 58.0764 26.4215C58.7472 27.089 59.1385 28.0068 59.1385 29.008C59.1385 30.4821 58.2721 31.7614 56.9864 32.3455C56.6511 32.5123 56.3157 32.5958 55.9244 32.6236L57.9087 36.4895ZM55.4772 30.2596C55.6449 30.2596 55.8406 30.2317 55.9803 30.1483C56.4275 29.9536 56.7349 29.5086 56.7349 29.0358C56.7349 28.5908 56.5113 28.2849 56.3716 28.1458C56.2039 27.979 55.9244 27.7843 55.5052 27.7843H49.3286V30.2874L55.4772 30.2596Z" fill="white"/>
<path d="M63.5539 28.9803V30.2318H72.3297V32.6515H63.5539V35.2102C63.5539 35.8777 64.1129 36.4617 64.8116 36.4617H74.7892V38.8814H64.8116C62.7714 38.8814 61.1504 37.2405 61.1504 35.2102V28.9524C61.1504 26.9222 62.7993 25.2812 64.8116 25.2812H74.7892V27.7009H64.8116C64.1409 27.7565 63.5539 28.3128 63.5539 28.9803Z" fill="white"/>
<path d="M87.953 26.4216C88.6238 27.0891 89.015 28.0069 89.015 29.0081C89.015 30.4822 88.1486 31.7615 86.863 32.3456C86.5276 32.5124 86.1923 32.5959 85.801 32.6237H85.6892V32.6515H79.1493V38.9092H76.7178V25.3369H85.3259C86.3599 25.3369 87.2822 25.7263 87.953 26.4216ZM85.8848 30.1206C86.332 29.9259 86.6394 29.4809 86.6394 29.0081C86.6394 28.5631 86.4158 28.2572 86.2761 28.1181C86.1084 27.9513 85.8289 27.7566 85.4097 27.7566H79.2331V30.2597H85.4097C85.5494 30.2597 85.7171 30.204 85.8848 30.1206Z" fill="white"/>
<path d="M103.297 32.1231C103.297 35.8777 100.223 38.9092 96.4776 38.9092C92.7325 38.9092 89.6582 35.8499 89.6582 32.1231C89.6582 28.3962 92.7325 25.3369 96.4776 25.3369C100.223 25.3369 103.297 28.3684 103.297 32.1231ZM100.838 32.1231C100.838 29.7034 98.8812 27.7566 96.4497 27.7566C94.0181 27.7566 92.0618 29.7034 92.0618 32.1231C92.0618 34.5427 94.0181 36.4896 96.4497 36.4896C98.8812 36.4896 100.838 34.5149 100.838 32.1231Z" fill="white"/>
<path d="M115.79 36.5173L117.047 38.9369H114.308L113.051 36.5173L111.737 33.9864L111.681 33.8751C111.262 33.1798 110.479 32.707 109.613 32.707H107.182V38.9369H104.75V25.3646H113.358C114.364 25.3646 115.287 25.7818 115.957 26.4215C116.628 27.089 117.019 28.0068 117.019 29.008C117.019 30.4821 116.153 31.7614 114.867 32.3455C114.532 32.5123 114.197 32.5958 113.805 32.6236L115.79 36.5173ZM113.358 30.2596C113.526 30.2596 113.721 30.2317 113.861 30.1483C114.308 29.9536 114.616 29.5086 114.616 29.0358C114.616 28.5908 114.392 28.2849 114.252 28.1458C114.085 27.979 113.805 27.7843 113.386 27.7843H107.209V30.2874L113.358 30.2596Z" fill="white"/>
<path d="M132 25.3369V27.7566H126.41V38.937H123.978V27.7844H118.389V25.3647H132V25.3369Z" fill="white"/>
<path d="M3.85733 35.5439C2.62761 35.5439 1.64941 34.5704 1.64941 33.3467C1.64941 32.123 2.62761 31.1495 3.85733 31.1495C5.08706 31.1495 6.06525 32.123 6.06525 33.3467C6.06525 34.5704 5.08706 35.5439 3.85733 35.5439ZM3.85733 31.4277C2.7953 31.4277 1.9289 32.2898 1.9289 33.3467C1.9289 34.4036 2.7953 35.2657 3.85733 35.2657C4.91937 35.2657 5.78577 34.4036 5.78577 33.3467C5.78577 32.2898 4.91937 31.4277 3.85733 31.4277Z" fill="#66A4FF"/>
<path d="M38.4291 29.5365C36.3051 29.5365 34.5723 31.2609 34.5723 33.3746C34.5723 35.4883 36.3051 37.2126 38.4291 37.2126C40.5532 37.2126 42.286 35.4883 42.286 33.3746C42.286 31.2609 40.5532 29.5365 38.4291 29.5365ZM38.4012 34.0977C38.0099 34.0977 37.7025 33.7918 37.7025 33.4024C37.7025 33.013 38.0099 32.7071 38.4012 32.7071C38.7925 32.7071 39.0999 33.013 39.0999 33.4024C39.0999 33.7918 38.7925 34.0977 38.4012 34.0977Z" fill="#3B82F6"/>
<path d="M38.4286 35.5439C37.1989 35.5439 36.2207 34.5704 36.2207 33.3467C36.2207 32.123 37.1989 31.1495 38.4286 31.1495C39.6583 31.1495 40.6365 32.123 40.6365 33.3467C40.6365 34.5704 39.6583 35.5439 38.4286 35.5439ZM38.4286 31.4277C37.3666 31.4277 36.5002 32.2898 36.5002 33.3467C36.5002 34.4036 37.3666 35.2657 38.4286 35.2657C39.4907 35.2657 40.3571 34.4036 40.3571 33.3467C40.3571 32.2898 39.4907 31.4277 38.4286 31.4277Z" fill="#66A4FF"/>
<path d="M19.1169 42.3301L8.24503 36.0446C8.10528 36.2671 7.96554 36.4617 7.79785 36.6564L18.8374 43.0254C18.8933 42.7751 18.9772 42.5526 19.1169 42.3301Z" fill="white"/>
<path d="M21.3527 42.8585L21.0173 43.4426L20.5702 43.1923C20.5143 43.2757 20.4863 43.3869 20.4863 43.4982C20.4863 43.8598 20.7938 44.1657 21.1571 44.1657C21.2968 44.1657 21.4366 44.1101 21.5204 44.0266L21.8278 43.526V43.4982C21.8278 43.1923 21.6322 42.942 21.3527 42.8585Z" fill="white"/>
<path d="M23.4767 43.0252L34.6002 36.6006C34.4325 36.406 34.2928 36.2113 34.153 35.9888L23.1973 42.3021C23.337 42.5524 23.4209 42.7749 23.4767 43.0252Z" fill="white"/>
<path d="M20.0949 41.3844L4.97484 15.4357C4.7792 15.6025 4.55562 15.7138 4.33203 15.825L19.48 41.8572C19.6757 41.6347 19.8713 41.4956 20.0949 41.3844Z" fill="white"/>
<path d="M21.1571 44.1656C21.5204 44.1656 21.8278 43.8596 21.8278 43.4981C21.8278 43.3868 21.7999 43.2756 21.744 43.1921L21.2968 43.4425L20.9614 42.8584C20.682 42.9418 20.4863 43.1921 20.4863 43.4981V43.5259L20.7938 44.0265C20.9056 44.1099 21.0173 44.1656 21.1571 44.1656Z" fill="white"/>
<path d="M21.1567 45C21.9902 45 22.6659 44.3276 22.6659 43.4982C22.6659 42.6687 21.9902 41.9963 21.1567 41.9963C20.3232 41.9963 19.6475 42.6687 19.6475 43.4982C19.6475 44.3276 20.3232 45 21.1567 45Z" fill="white"/>
<path d="M20.7939 42.9419V43.9432H21.5485V42.9419C21.4368 42.8585 21.325 42.8029 21.1852 42.8029C21.0175 42.8029 20.9057 42.8585 20.7939 42.9419Z" fill="white"/>
<path d="M25.6846 25.8374C25.5728 26.0599 25.461 26.2824 25.3213 26.4771L33.8455 31.3164C33.9573 31.0939 34.0691 30.8714 34.2089 30.6489L25.6846 25.8374Z" fill="white"/>
<path d="M16.9644 20.859L5.70122 14.4344C5.61737 14.6848 5.47763 14.8794 5.33789 15.0741L16.629 21.4987C16.7129 21.2762 16.8247 21.0815 16.9644 20.859Z" fill="white"/>
<path d="M16.3499 25.2256L7.71387 30.1483C8.16104 30.6768 8.49642 31.2886 8.69206 31.9561L17.384 27.0056C16.9368 26.5049 16.5735 25.8931 16.3499 25.2256Z" fill="#3B82F6"/>
<path d="M25.9364 22.1385L35.8301 16.4926L34.7961 14.7126L24.9023 20.3585C25.3775 20.8591 25.7128 21.471 25.9364 22.1385Z" fill="#3B82F6"/>
<path d="M21.1293 19.8579C19.0053 19.8579 17.2725 21.5823 17.2725 23.696C17.2725 25.8097 19.0053 27.5341 21.1293 27.5341C23.2534 27.5341 24.9862 25.8097 24.9862 23.696C24.9862 21.5544 23.2534 19.8579 21.1293 19.8579ZM21.1293 24.3357C20.7381 24.3357 20.4306 24.0297 20.4306 23.6404C20.4306 23.251 20.7381 22.9451 21.1293 22.9451C21.5206 22.9451 21.828 23.251 21.828 23.6404C21.828 24.0297 21.5206 24.3357 21.1293 24.3357Z" fill="#3B82F6"/>
<path d="M35.7178 18.2169L22.2188 41.4122C22.4423 41.5235 22.6659 41.6625 22.8336 41.8294L36.3886 18.5507C36.137 18.4672 35.9414 18.3282 35.7178 18.2169Z" fill="white"/>
<path d="M38.4291 10.1514C36.3051 10.1514 34.5723 11.8757 34.5723 13.9894C34.5723 16.1032 36.3051 17.7997 38.4291 17.7997C40.5532 17.7997 42.286 16.0753 42.286 13.9616C42.286 11.8479 40.5532 10.1514 38.4291 10.1514ZM38.4291 14.6847C38.0379 14.6847 37.7304 14.3788 37.7304 13.9894C37.7304 13.6001 38.0379 13.2941 38.4291 13.2941C38.8204 13.2941 39.1278 13.6001 39.1278 13.9894C39.1278 14.3788 38.8204 14.6847 38.4291 14.6847Z" fill="#3B82F6"/>
<path d="M36.4165 28.7577L23.8118 5.92395L21.9951 6.89737L34.7116 29.9536C35.1867 29.453 35.7736 29.0358 36.4165 28.7577Z" fill="#3B82F6"/>
<path d="M18.9214 4.53331C18.8655 4.47768 18.8096 4.42206 18.7816 4.33862L5.31055 12.126C5.47824 12.3207 5.59003 12.5432 5.70182 12.7657L19.3686 4.89487C19.2009 4.78362 19.0332 4.64456 18.9214 4.53331Z" fill="white"/>
<path d="M23.2817 4.22742L23.1699 5.03397L34.1536 11.3473C34.2934 11.1248 34.4331 10.9301 34.6008 10.7355L23.2817 4.22742Z" fill="white"/>
<path d="M21.1293 0C19.0053 0 17.2725 1.72435 17.2725 3.83807C17.2725 5.95179 19.0053 7.67614 21.1293 7.67614C23.2534 7.67614 24.9862 5.95179 24.9862 3.83807C24.9862 1.72435 23.2534 0 21.1293 0ZM21.1293 4.53337C20.7381 4.53337 20.4306 4.22744 20.4306 3.83807C20.4306 3.4487 20.7381 3.14277 21.1293 3.14277C21.5206 3.14277 21.828 3.4487 21.828 3.83807C21.856 4.22744 21.5206 4.53337 21.1293 4.53337Z" fill="#3B82F6"/>
<path d="M21.1288 6.03518C19.8991 6.03518 18.9209 5.06176 18.9209 3.83803C18.9209 2.61429 19.8991 1.64087 21.1288 1.64087C22.3585 1.64087 23.3367 2.61429 23.3367 3.83803C23.3367 5.06176 22.3585 6.03518 21.1288 6.03518ZM21.1288 1.91899C20.0668 1.91899 19.2004 2.78117 19.2004 3.83803C19.2004 4.89489 20.0668 5.75706 21.1288 5.75706C22.1909 5.75706 23.0573 4.89489 23.0573 3.83803C23.0573 2.78117 22.1909 1.91899 21.1288 1.91899Z" fill="#66A4FF"/>
<path d="M38.4286 16.1867C37.1989 16.1867 36.2207 15.2132 36.2207 13.9895C36.2207 12.7658 37.1989 11.7924 38.4286 11.7924C39.6583 11.7924 40.6365 12.7658 40.6365 13.9895C40.6365 15.2132 39.6583 16.1867 38.4286 16.1867ZM38.4286 12.0705C37.3666 12.0705 36.5002 12.9327 36.5002 13.9895C36.5002 15.0464 37.3666 15.9086 38.4286 15.9086C39.4907 15.9086 40.3571 15.0464 40.3571 13.9895C40.3571 12.9327 39.4907 12.0705 38.4286 12.0705Z" fill="#66A4FF"/>
<path d="M21.1288 25.8653C19.8991 25.8653 18.9209 24.8918 18.9209 23.6681C18.9209 22.4444 19.8991 21.4709 21.1288 21.4709C22.3585 21.4709 23.3367 22.4444 23.3367 23.6681C23.3367 24.8918 22.3585 25.8653 21.1288 25.8653ZM21.1288 21.7491C20.0668 21.7491 19.2004 22.6112 19.2004 23.6681C19.2004 24.725 20.0668 25.5871 21.1288 25.5871C22.1909 25.5871 23.0573 24.725 23.0573 23.6681C23.0573 22.6112 22.1909 21.7491 21.1288 21.7491Z" fill="#66A4FF"/>
<path d="M7.0432 29.4809L20.2348 7.2312L18.4741 6.20215L5.22656 28.5353C5.86937 28.73 6.51219 29.0359 7.0432 29.4809Z" fill="#3B82F6"/>
</g>
<defs>
<clipPath id="clip0_241_139">
<rect width="132" height="45" fill="white"/>
</clipPath>
</defs>
</svg>
