<svg width="132" height="45" viewBox="0 0 132 45" fill="none" xmlns="http://www.w3.org/2000/svg">
<g clip-path="url(#clip0_241_88)">
<path d="M21.129 28.6743C21.0172 28.6743 20.9054 28.6743 20.7656 28.6465V41.1619C20.8774 41.1341 21.0172 41.1341 21.129 41.1341C21.2687 41.1341 21.3805 41.1619 21.4923 41.1619V28.6465C21.4084 28.6743 21.2687 28.6743 21.129 28.6743Z" fill="#0F4C81"/>
<path d="M21.129 18.6619C21.2687 18.6619 21.3805 18.6619 21.5202 18.6897V7.31458H20.7656V18.6897C20.9054 18.6619 21.0172 18.6619 21.129 18.6619Z" fill="#0F4C81"/>
<path d="M62.5763 21.5543H59.53L58.1325 18.8566L54.8067 12.3485L51.4808 18.8566L50.0834 21.5543H47.037L48.4345 18.8566L54.8067 6.39673L61.1789 18.8566L62.5763 21.5543Z" fill="#3B82F6"/>
<path d="M63.8899 21.5543V6.39673H66.6009V21.5543H63.8899Z" fill="#3B82F6"/>
<path d="M85.9132 6.42456V9.12234H79.6528V21.5822H76.9418V9.12234H70.6813V6.42456H85.9132Z" fill="#3B82F6"/>
<path d="M101.397 13.9894C101.397 18.1613 97.9869 21.5821 93.7667 21.5821C89.5465 21.5821 86.1368 18.1891 86.1368 13.9894C86.1368 9.78981 89.5465 6.39673 93.7667 6.39673C97.9869 6.39673 101.397 9.78981 101.397 13.9894ZM98.6856 13.9894C98.6856 11.2917 96.4777 9.12232 93.7946 9.12232C91.1116 9.12232 88.9037 11.3195 88.9037 13.9894C88.9037 16.6594 91.1116 18.8566 93.7946 18.8566C96.4777 18.8566 98.6856 16.6594 98.6856 13.9894Z" fill="#3B82F6"/>
<path d="M117.774 13.9894C117.774 18.1613 114.365 21.5821 110.144 21.5821C105.924 21.5821 102.514 18.1891 102.514 13.9894C102.514 9.78981 105.924 6.39673 110.144 6.39673C114.365 6.39673 117.774 9.78981 117.774 13.9894ZM115.063 13.9894C115.063 11.2917 112.855 9.12232 110.172 9.12232C107.489 9.12232 105.281 11.3195 105.281 13.9894C105.281 16.6594 107.489 18.8566 110.172 18.8566C112.855 18.8566 115.063 16.6594 115.063 13.9894Z" fill="#3B82F6"/>
<path d="M132 18.8844V21.5822H124.258C123.504 21.5822 122.777 21.4153 122.134 21.0815C121.184 20.6087 120.401 19.83 119.926 18.8844C119.591 18.2447 119.423 17.5216 119.423 16.7707V6.42456H122.134V17.021C122.274 17.9666 123.029 18.7453 123.979 18.8566L132 18.8844Z" fill="#3B82F6"/>
<path d="M39.519 17.16H37.4508V30.037H39.519V17.16Z" fill="#3B82F6"/>
<path d="M3.49352 15.9641C3.35377 15.9641 3.24198 15.9363 3.13019 15.9363V28.3961C3.35377 28.3683 3.60531 28.3683 3.88479 28.3683V15.9363C3.74505 15.9363 3.63326 15.9641 3.49352 15.9641Z" fill="#0F4C81"/>
<path d="M3.49359 15.1021C4.3271 15.1021 5.0028 14.4297 5.0028 13.6002C5.0028 12.7708 4.3271 12.0984 3.49359 12.0984C2.66007 12.0984 1.98438 12.7708 1.98438 13.6002C1.98438 14.4297 2.66007 15.1021 3.49359 15.1021Z" fill="#0F4C81"/>
<path d="M3.49357 15.1855C2.62717 15.1855 1.90051 14.4624 1.90051 13.6002C1.90051 12.738 2.62717 12.0149 3.49357 12.0149C4.35997 12.0149 5.08662 12.738 5.08662 13.6002C5.08662 14.4624 4.35997 15.1855 3.49357 15.1855ZM3.49357 12.154C2.68307 12.154 2.04025 12.7936 2.04025 13.6002C2.04025 14.4067 2.68307 15.0464 3.49357 15.0464C4.30407 15.0464 4.94688 14.4067 4.94688 13.6002C4.94688 12.7936 4.30407 12.154 3.49357 12.154Z" fill="#0F4C81"/>
<path d="M3.85687 29.5365C1.7328 29.5365 0 31.2609 0 33.3746C0 35.4883 1.7328 37.2126 3.85687 37.2126C5.98094 37.2126 7.71374 35.4883 7.71374 33.3746C7.71374 31.2609 5.98094 29.5365 3.85687 29.5365ZM3.82892 34.0699C3.43765 34.0699 3.13021 33.7639 3.13021 33.3746C3.13021 32.9852 3.43765 32.6793 3.82892 32.6793C4.2202 32.6793 4.52763 32.9852 4.52763 33.3746C4.52763 33.7639 4.2202 34.0699 3.82892 34.0699Z" fill="#3B82F6"/>
<path d="M57.909 36.4895L59.1667 38.9091H56.4277L55.17 36.4895L53.8565 33.9586L53.8006 33.8473C53.3813 33.152 52.5988 32.6792 51.7324 32.6792H49.3009V38.9369H46.8694V25.3646H55.4775C56.4836 25.3646 57.4059 25.7818 58.0767 26.4215C58.7474 27.089 59.1387 28.0068 59.1387 29.008C59.1387 30.4821 58.2723 31.7614 56.9867 32.3455C56.6513 32.5123 56.3159 32.5958 55.9246 32.6236L57.909 36.4895ZM55.4775 30.2596C55.6452 30.2596 55.8408 30.2317 55.9805 30.1483C56.4277 29.9536 56.7351 29.5086 56.7351 29.0358C56.7351 28.5908 56.5116 28.2849 56.3718 28.1458C56.2041 27.979 55.9246 27.7843 55.5054 27.7843H49.3288V30.2874L55.4775 30.2596Z" fill="#0F4C81"/>
<path d="M63.5545 28.9803V30.2318H72.3303V32.6515H63.5545V35.2102C63.5545 35.8777 64.1135 36.4617 64.8122 36.4617H74.7898V38.8814H64.8122C62.772 38.8814 61.151 37.2405 61.151 35.2102V28.9524C61.151 26.9222 62.7999 25.2812 64.8122 25.2812H74.7898V27.7009H64.8122C64.1414 27.7565 63.5545 28.3128 63.5545 28.9803Z" fill="#0F4C81"/>
<path d="M87.9534 26.4216C88.6242 27.0891 89.0155 28.0069 89.0155 29.0081C89.0155 30.4822 88.1491 31.7615 86.8634 32.3456C86.5281 32.5124 86.1927 32.5959 85.8014 32.6237H85.6896V32.6515H79.1497V38.9092H76.7182V25.3369H85.3263C86.3604 25.3369 87.2827 25.7263 87.9534 26.4216ZM85.8853 30.1206C86.3324 29.9259 86.6399 29.4809 86.6399 29.0081C86.6399 28.5631 86.4163 28.2572 86.2765 28.1181C86.1088 27.9513 85.8294 27.7566 85.4101 27.7566H79.2336V30.2597H85.4101C85.5499 30.2597 85.7176 30.204 85.8853 30.1206Z" fill="#0F4C81"/>
<path d="M103.297 32.1231C103.297 35.8777 100.223 38.9092 96.4777 38.9092C92.7326 38.9092 89.6583 35.8499 89.6583 32.1231C89.6583 28.3962 92.7326 25.3369 96.4777 25.3369C100.223 25.3369 103.297 28.3684 103.297 32.1231ZM100.838 32.1231C100.838 29.7034 98.8813 27.7566 96.4497 27.7566C94.0182 27.7566 92.0619 29.7034 92.0619 32.1231C92.0619 34.5427 94.0182 36.4896 96.4497 36.4896C98.8813 36.4896 100.838 34.5149 100.838 32.1231Z" fill="#0F4C81"/>
<path d="M115.79 36.5173L117.048 38.9369H114.309L113.051 36.5173L111.737 33.9864L111.682 33.8751C111.262 33.1798 110.48 32.707 109.613 32.707H107.182V38.9369H104.75V25.3646H113.358C114.365 25.3646 115.287 25.7818 115.958 26.4215C116.628 27.089 117.02 28.0068 117.02 29.008C117.02 30.4821 116.153 31.7614 114.868 32.3455C114.532 32.5123 114.197 32.5958 113.806 32.6236L115.79 36.5173ZM113.358 30.2596C113.526 30.2596 113.722 30.2317 113.862 30.1483C114.309 29.9536 114.616 29.5086 114.616 29.0358C114.616 28.5908 114.393 28.2849 114.253 28.1458C114.085 27.979 113.806 27.7843 113.386 27.7843H107.21V30.2874L113.358 30.2596Z" fill="#0F4C81"/>
<path d="M132 25.3369V27.7566H126.41V38.937H123.979V27.7844H118.389V25.3647H132V25.3369Z" fill="#0F4C81"/>
<path d="M3.85684 35.5439C2.62712 35.5439 1.64893 34.5704 1.64893 33.3467C1.64893 32.123 2.62712 31.1495 3.85684 31.1495C5.08657 31.1495 6.06476 32.123 6.06476 33.3467C6.06476 34.5704 5.08657 35.5439 3.85684 35.5439ZM3.85684 31.4277C2.79481 31.4277 1.92841 32.2898 1.92841 33.3467C1.92841 34.4036 2.79481 35.2657 3.85684 35.2657C4.91888 35.2657 5.78528 34.4036 5.78528 33.3467C5.78528 32.2898 4.91888 31.4277 3.85684 31.4277Z" fill="#66A4FF"/>
<path d="M38.429 29.5365C36.3049 29.5365 34.5721 31.2609 34.5721 33.3746C34.5721 35.4883 36.3049 37.2126 38.429 37.2126C40.553 37.2126 42.2858 35.4883 42.2858 33.3746C42.2858 31.2609 40.553 29.5365 38.429 29.5365ZM38.401 34.0977C38.0097 34.0977 37.7023 33.7918 37.7023 33.4024C37.7023 33.013 38.0097 32.7071 38.401 32.7071C38.7923 32.7071 39.0997 33.013 39.0997 33.4024C39.0997 33.7918 38.7923 34.0977 38.401 34.0977Z" fill="#3B82F6"/>
<path d="M38.429 35.5439C37.1993 35.5439 36.2211 34.5704 36.2211 33.3467C36.2211 32.123 37.1993 31.1495 38.429 31.1495C39.6587 31.1495 40.6369 32.123 40.6369 33.3467C40.6369 34.5704 39.6587 35.5439 38.429 35.5439ZM38.429 31.4277C37.3669 31.4277 36.5006 32.2898 36.5006 33.3467C36.5006 34.4036 37.3669 35.2657 38.429 35.2657C39.491 35.2657 40.3574 34.4036 40.3574 33.3467C40.3574 32.2898 39.491 31.4277 38.429 31.4277Z" fill="#66A4FF"/>
<path d="M19.1167 42.3301L8.24478 36.0446C8.10504 36.2671 7.9653 36.4617 7.79761 36.6564L18.8372 43.0254C18.8931 42.7751 18.9769 42.5526 19.1167 42.3301Z" fill="#0F4C81"/>
<path d="M21.3525 42.8585L21.0172 43.4426L20.57 43.1923C20.5141 43.2757 20.4861 43.3869 20.4861 43.4982C20.4861 43.8598 20.7936 44.1657 21.1569 44.1657C21.2966 44.1657 21.4364 44.1101 21.5202 44.0266L21.8277 43.526V43.4982C21.8277 43.1923 21.632 42.942 21.3525 42.8585Z" fill="#0F4C81"/>
<path d="M23.4766 43.0252L34.6 36.6006C34.4323 36.406 34.2926 36.2113 34.1528 35.9888L23.1971 42.3021C23.3368 42.5524 23.4207 42.7749 23.4766 43.0252Z" fill="#0F4C81"/>
<path d="M20.0948 41.3844L4.97478 15.4357C4.77914 15.6025 4.55556 15.7138 4.33197 15.825L19.48 41.8572C19.6756 41.6347 19.8712 41.4956 20.0948 41.3844Z" fill="#0F4C81"/>
<path d="M21.1568 44.1656C21.5202 44.1656 21.8276 43.8596 21.8276 43.4981C21.8276 43.3868 21.7997 43.2756 21.7438 43.1921L21.2966 43.4425L20.9612 42.8584C20.6817 42.9418 20.4861 43.1921 20.4861 43.4981V43.5259L20.7935 44.0265C20.9053 44.1099 21.0171 44.1656 21.1568 44.1656Z" fill="#0F4C81"/>
<path d="M21.1569 45C21.9904 45 22.6661 44.3276 22.6661 43.4982C22.6661 42.6687 21.9904 41.9963 21.1569 41.9963C20.3234 41.9963 19.6477 42.6687 19.6477 43.4982C19.6477 44.3276 20.3234 45 21.1569 45Z" fill="#0F4C81"/>
<path d="M20.7936 42.9419V43.9432H21.5482V42.9419C21.4364 42.8585 21.3246 42.8029 21.1849 42.8029C21.0172 42.8029 20.9054 42.8585 20.7936 42.9419Z" fill="#0F4C81"/>
<path d="M25.6845 25.8374C25.5727 26.0599 25.4609 26.2824 25.3212 26.4771L33.8454 31.3164C33.9572 31.0939 34.069 30.8714 34.2087 30.6489L25.6845 25.8374Z" fill="#0F4C81"/>
<path d="M16.9646 20.859L5.70146 14.4344C5.61762 14.6848 5.47788 14.8794 5.33813 15.0741L16.6293 21.4987C16.7131 21.2762 16.8249 21.0815 16.9646 20.859Z" fill="#0F4C81"/>
<path d="M16.3498 25.2256L7.71375 30.1483C8.16092 30.6768 8.4963 31.2886 8.69194 31.9561L17.3839 27.0056C16.9367 26.5049 16.5734 25.8931 16.3498 25.2256Z" fill="#3B82F6"/>
<path d="M25.9361 22.1385L35.8298 16.4926L34.7957 14.7126L24.902 20.3585C25.3771 20.8591 25.7125 21.471 25.9361 22.1385Z" fill="#3B82F6"/>
<path d="M21.129 19.8579C19.0049 19.8579 17.2721 21.5823 17.2721 23.696C17.2721 25.8097 19.0049 27.5341 21.129 27.5341C23.253 27.5341 24.9858 25.8097 24.9858 23.696C24.9858 21.5544 23.253 19.8579 21.129 19.8579ZM21.129 24.3357C20.7377 24.3357 20.4303 24.0297 20.4303 23.6404C20.4303 23.251 20.7377 22.9451 21.129 22.9451C21.5202 22.9451 21.8277 23.251 21.8277 23.6404C21.8277 24.0297 21.5202 24.3357 21.129 24.3357Z" fill="#3B82F6"/>
<path d="M35.718 18.2169L22.2189 41.4122C22.4425 41.5235 22.6661 41.6625 22.8338 41.8294L36.3887 18.5507C36.1372 18.4672 35.9416 18.3282 35.718 18.2169Z" fill="#0F4C81"/>
<path d="M38.429 10.1514C36.3049 10.1514 34.5721 11.8757 34.5721 13.9894C34.5721 16.1032 36.3049 17.7997 38.429 17.7997C40.553 17.7997 42.2858 16.0753 42.2858 13.9616C42.2858 11.8479 40.553 10.1514 38.429 10.1514ZM38.429 14.6847C38.0377 14.6847 37.7302 14.3788 37.7302 13.9894C37.7302 13.6001 38.0377 13.2941 38.429 13.2941C38.8202 13.2941 39.1277 13.6001 39.1277 13.9894C39.1277 14.3788 38.8202 14.6847 38.429 14.6847Z" fill="#3B82F6"/>
<path d="M36.4167 28.7577L23.812 5.92395L21.9954 6.89737L34.7119 29.9536C35.187 29.453 35.7739 29.0358 36.4167 28.7577Z" fill="#3B82F6"/>
<path d="M18.921 4.53331C18.8651 4.47768 18.8092 4.42206 18.7813 4.33862L5.31018 12.126C5.47787 12.3207 5.58966 12.5432 5.70146 12.7657L19.3682 4.89487C19.2005 4.78362 19.0328 4.64456 18.921 4.53331Z" fill="#0F4C81"/>
<path d="M23.281 4.22742L23.1692 5.03397L34.1529 11.3473C34.2926 11.1248 34.4324 10.9301 34.6001 10.7355L23.281 4.22742Z" fill="#0F4C81"/>
<path d="M21.129 0C19.0049 0 17.2721 1.72435 17.2721 3.83807C17.2721 5.95179 19.0049 7.67614 21.129 7.67614C23.253 7.67614 24.9858 5.95179 24.9858 3.83807C24.9858 1.72435 23.253 0 21.129 0ZM21.129 4.53337C20.7377 4.53337 20.4303 4.22744 20.4303 3.83807C20.4303 3.4487 20.7377 3.14277 21.129 3.14277C21.5202 3.14277 21.8277 3.4487 21.8277 3.83807C21.8556 4.22744 21.5202 4.53337 21.129 4.53337Z" fill="#3B82F6"/>
<path d="M21.1289 6.03518C19.8992 6.03518 18.921 5.06176 18.921 3.83803C18.921 2.61429 19.8992 1.64087 21.1289 1.64087C22.3587 1.64087 23.3369 2.61429 23.3369 3.83803C23.3369 5.06176 22.3587 6.03518 21.1289 6.03518ZM21.1289 1.91899C20.0669 1.91899 19.2005 2.78117 19.2005 3.83803C19.2005 4.89489 20.0669 5.75706 21.1289 5.75706C22.191 5.75706 23.0574 4.89489 23.0574 3.83803C23.0574 2.78117 22.191 1.91899 21.1289 1.91899Z" fill="#66A4FF"/>
<path d="M38.429 16.1867C37.1993 16.1867 36.2211 15.2132 36.2211 13.9895C36.2211 12.7658 37.1993 11.7924 38.429 11.7924C39.6587 11.7924 40.6369 12.7658 40.6369 13.9895C40.6369 15.2132 39.6587 16.1867 38.429 16.1867ZM38.429 12.0705C37.3669 12.0705 36.5006 12.9327 36.5006 13.9895C36.5006 15.0464 37.3669 15.9086 38.429 15.9086C39.491 15.9086 40.3574 15.0464 40.3574 13.9895C40.3574 12.9327 39.491 12.0705 38.429 12.0705Z" fill="#66A4FF"/>
<path d="M21.1289 25.8653C19.8992 25.8653 18.921 24.8918 18.921 23.6681C18.921 22.4444 19.8992 21.4709 21.1289 21.4709C22.3587 21.4709 23.3369 22.4444 23.3369 23.6681C23.3369 24.8918 22.3587 25.8653 21.1289 25.8653ZM21.1289 21.7491C20.0669 21.7491 19.2005 22.6112 19.2005 23.6681C19.2005 24.725 20.0669 25.5871 21.1289 25.5871C22.191 25.5871 23.0574 24.725 23.0574 23.6681C23.0574 22.6112 22.191 21.7491 21.1289 21.7491Z" fill="#66A4FF"/>
<path d="M7.04296 29.4809L20.2346 7.2312L18.4738 6.20215L5.22632 28.5353C5.86913 28.73 6.51194 29.0359 7.04296 29.4809Z" fill="#3B82F6"/>
</g>
<defs>
<clipPath id="clip0_241_88">
<rect width="132" height="45" fill="white"/>
</clipPath>
</defs>
</svg>
