<svg width="14" height="10" viewBox="0 0 14 10" fill="none" xmlns="http://www.w3.org/2000/svg">
<path d="M13.6841 3.8191C13.5853 3.63495 13.4753 3.45518 13.3546 3.28052L11.7995 6.83774C11.7402 6.97064 11.654 7.09387 11.5446 7.20193C11.962 7.16713 12.3643 7.05162 12.72 6.86439C13.0757 6.67717 13.3752 6.42329 13.5952 6.12256C13.8153 5.82182 13.9498 5.48236 13.9884 5.13063C14.027 4.7789 13.9687 4.42442 13.8179 4.09481C13.7767 4.00175 13.7321 3.9098 13.6841 3.8191ZM4.75866 0.613246C3.85126 0.885242 3.01836 1.30862 2.30982 1.85803C1.60128 2.40744 1.03167 3.0716 0.635079 3.81073C0.238493 4.54987 0.023087 5.34879 0.00175611 6.15967C-0.0195747 6.97055 0.153608 7.77672 0.510937 8.52992C0.520379 8.54608 0.526774 8.56198 0.536216 8.57814C0.726053 8.9599 1.03512 9.29123 1.43061 9.53696C1.82609 9.78269 2.29323 9.93364 2.7824 9.97378C3.27157 10.0139 3.76452 9.94174 4.2089 9.76492C4.65327 9.58809 5.03248 9.31323 5.30626 8.96951C5.87887 8.24316 6.7009 7.68112 7.66266 7.35837C7.69311 7.34811 7.72357 7.34042 7.75402 7.33093C7.86231 7.12057 8.02344 6.93247 8.22634 6.77959C8.42924 6.62671 8.66907 6.51268 8.92933 6.44534C8.92299 6.2522 8.97001 6.06045 9.06669 5.88522L11.4727 1.49781C10.5276 0.894507 9.41966 0.497928 8.24797 0.34356C7.07627 0.189192 5.87741 0.281852 4.75866 0.613246ZM2.8917 7.30708C2.65075 7.30708 2.41521 7.24691 2.21487 7.13419C2.01454 7.02146 1.85839 6.86124 1.76618 6.67379C1.67398 6.48634 1.64985 6.28007 1.69686 6.08107C1.74386 5.88207 1.85989 5.69927 2.03027 5.5558C2.20064 5.41233 2.41771 5.31462 2.65403 5.27504C2.89035 5.23546 3.13529 5.25577 3.3579 5.33342C3.58051 5.41107 3.77077 5.54255 3.90463 5.71126C4.03849 5.87996 4.10994 6.07831 4.10994 6.2812C4.10994 6.55328 3.98159 6.81422 3.75313 7.00661C3.52466 7.199 3.2148 7.30708 2.8917 7.30708ZM4.41451 4.35769C4.17356 4.35769 3.93802 4.29752 3.73768 4.1848C3.53734 4.07207 3.3812 3.91185 3.28899 3.7244C3.19679 3.53695 3.17266 3.33068 3.21967 3.13168C3.26667 2.93268 3.3827 2.74988 3.55307 2.60641C3.72345 2.46294 3.94052 2.36524 4.17684 2.32565C4.41315 2.28607 4.6581 2.30638 4.88071 2.38403C5.10331 2.46168 5.29358 2.59316 5.42744 2.76187C5.5613 2.93057 5.63275 3.12892 5.63275 3.33181C5.63275 3.60389 5.5044 3.86483 5.27594 4.05722C5.04747 4.24961 4.7376 4.35769 4.41451 4.35769ZM8.06925 3.46005C7.8283 3.46005 7.59277 3.39988 7.39243 3.28716C7.19209 3.17443 7.03594 3.01421 6.94373 2.82676C6.85153 2.63931 6.8274 2.43304 6.87441 2.23404C6.92141 2.03504 7.03744 1.85224 7.20782 1.70877C7.37819 1.5653 7.59526 1.46759 7.83158 1.42801C8.0679 1.38843 8.31284 1.40874 8.53545 1.48639C8.75805 1.56404 8.94832 1.69552 9.08218 1.86423C9.21605 2.03293 9.28749 2.23128 9.28749 2.43417C9.28749 2.70625 9.15914 2.96719 8.93068 3.15958C8.70221 3.35197 8.39235 3.46005 8.06925 3.46005ZM13.5447 0.0364484C13.4095 -0.0108154 13.2579 -0.0121612 13.1216 0.0326932C12.9853 0.0775477 12.875 0.165115 12.8137 0.277016L9.62069 6.10014C9.54716 6.23409 9.52338 6.38361 9.55245 6.52913C9.58152 6.67465 9.6621 6.80939 9.78363 6.91571C9.48681 6.85708 9.17491 6.88913 8.90353 7.00614C8.63216 7.12314 8.41896 7.31751 8.30193 7.55457C7.80885 8.55736 8.58883 8.99721 8.09544 10C8.65791 9.94708 9.19372 9.76972 9.64842 9.48592C10.1031 9.20213 10.4605 8.82203 10.6842 8.38425C10.7895 8.16867 10.8094 7.93022 10.7408 7.70438C10.6722 7.47854 10.5188 7.27739 10.3035 7.13088C10.4982 7.15202 10.6957 7.11694 10.8637 7.03137C11.0317 6.9458 11.1603 6.8148 11.2285 6.65975L13.8599 0.640176C13.9098 0.524729 13.905 0.397495 13.8462 0.285012C13.7875 0.17253 13.6795 0.0834838 13.5447 0.0364484Z" fill="#3B82F6"/>
</svg>
