<svg width="21" height="21" viewBox="0 0 21 21" fill="none" xmlns="http://www.w3.org/2000/svg">
<path d="M20.6352 18.8751L16.5985 14.8394C17.8295 13.235 18.4955 11.2689 18.493 9.24686C18.493 6.77665 17.5308 4.45514 15.7838 2.70856C14.927 1.84719 13.9079 1.16428 12.7853 0.699358C11.6627 0.234437 10.459 -0.00325706 9.24395 3.37071e-05C6.77375 3.37071e-05 4.45168 0.961988 2.70406 2.70856C-0.901352 6.31371 -0.901352 12.18 2.70406 15.7852C3.56084 16.6466 4.58002 17.3295 5.7026 17.7944C6.82519 18.2593 8.02886 18.497 9.24395 18.4937C11.294 18.4937 13.2365 17.8223 14.8385 16.599L18.8752 20.6354C19.1179 20.878 19.4366 21 19.7552 21C20.0739 21 20.3925 20.878 20.6352 20.6354C20.7509 20.5198 20.8426 20.3826 20.9052 20.2316C20.9678 20.0806 21 19.9187 21 19.7552C21 19.5918 20.9678 19.4299 20.9052 19.2789C20.8426 19.1279 20.7509 18.9907 20.6352 18.8751ZM4.46475 14.0255C1.829 11.3904 1.82962 7.10331 4.46475 4.4682C5.09108 3.83888 5.83602 3.33997 6.65647 3.00033C7.47691 2.6607 8.35658 2.48709 9.24457 2.48954C10.1325 2.4871 11.012 2.66072 11.8324 3.00036C12.6527 3.33999 13.3976 3.8389 14.0238 4.4682C14.6534 5.09429 15.1526 5.83902 15.4924 6.65928C15.8323 7.47953 16.006 8.35903 16.0035 9.24686C16.0035 11.0519 15.3003 12.7487 14.0238 14.0255C12.7473 15.3023 11.0501 16.0042 9.24395 16.0042C7.43907 16.0042 5.74124 15.3011 4.46413 14.0255H4.46475Z" fill="#3B82F6"/>
</svg>
