<svg width="13" height="12" viewBox="0 0 13 12" fill="none" xmlns="http://www.w3.org/2000/svg">
<path d="M4.73873 9.18993V11.61C4.73914 11.6923 4.76642 11.7723 4.81668 11.8388C4.86694 11.9053 4.93765 11.9549 5.01879 11.9805C5.09993 12.0061 5.18738 12.0065 5.26876 11.9816C5.35014 11.9567 5.42132 11.9077 5.47222 11.8417L6.94189 9.91523L4.73873 9.18993ZM12.8293 0.0725686C12.7682 0.0306963 12.6963 0.00590269 12.6216 0.000929873C12.5468 -0.00404294 12.4721 0.0109988 12.4057 0.0443916L0.21702 6.17551C0.146891 6.21121 0.0891079 6.26586 0.0507626 6.33274C0.0124173 6.39963 -0.00482201 6.47584 0.00116049 6.55202C0.00714299 6.62821 0.036087 6.70106 0.0844403 6.76163C0.132794 6.82219 0.198453 6.86785 0.273359 6.89298L3.6618 8.00858L10.878 2.06531L5.29399 8.54551L10.9728 10.4151C11.0292 10.4333 11.089 10.4395 11.148 10.4331C11.2071 10.4268 11.264 10.408 11.3148 10.3783C11.3656 10.3485 11.409 10.3084 11.442 10.2608C11.475 10.2131 11.4968 10.1591 11.5059 10.1026L12.9956 0.449306C13.0066 0.377846 12.9969 0.304841 12.9676 0.238356C12.9382 0.171871 12.8904 0.114496 12.8293 0.0725686Z" fill="white"/>
</svg>
