<svg width="12" height="12" viewBox="0 0 12 12" fill="none" xmlns="http://www.w3.org/2000/svg">
<path d="M10.6088 4.1214V2.64356C10.6088 2.3114 10.4769 1.99285 10.242 1.75798C10.0071 1.52311 9.6886 1.39116 9.35644 1.39116H7.90991L6.88294 0.36419C6.64829 0.130928 6.33087 0 6 0C5.66913 0 5.35171 0.130928 5.11706 0.36419L4.1214 1.39116H2.64356C2.3114 1.39116 1.99285 1.52311 1.75798 1.75798C1.52311 1.99285 1.39116 2.3114 1.39116 2.64356V4.1214L0.36419 5.11706C0.130928 5.35171 0 5.66913 0 6C0 6.33087 0.130928 6.64829 0.36419 6.88294L1.39116 7.90991V9.35644C1.39116 9.6886 1.52311 10.0071 1.75798 10.242C1.99285 10.4769 2.3114 10.6088 2.64356 10.6088H4.1214L5.11706 11.6358C5.35171 11.8691 5.66913 12 6 12C6.33087 12 6.64829 11.8691 6.88294 11.6358L7.90991 10.6088H9.35644C9.6886 10.6088 10.0071 10.4769 10.242 10.242C10.4769 10.0071 10.6088 9.6886 10.6088 9.35644V7.90991L11.6358 6.88294C11.8691 6.64829 12 6.33087 12 6C12 5.66913 11.8691 5.35171 11.6358 5.11706L10.6088 4.1214Z" fill="white"/>
<path d="M5.53035 7.5655C5.44794 7.56598 5.36624 7.55018 5.28995 7.51902C5.21365 7.48786 5.14426 7.44194 5.08575 7.3839L4.1214 6.4446C4.00348 6.32669 3.93724 6.16676 3.93724 6C3.93724 5.83324 4.00348 5.67331 4.1214 5.5554C4.23931 5.43748 4.39924 5.37124 4.566 5.37124C4.73276 5.37124 4.89269 5.43748 5.0106 5.5554L5.5053 6.05636L6.9393 4.6161C7.05722 4.49154 7.21979 4.41892 7.39124 4.41422C7.5627 4.40953 7.729 4.47313 7.85356 4.59105C7.97812 4.70896 8.05073 4.87153 8.05543 5.04299C8.06013 5.21444 7.99652 5.38074 7.8786 5.5053L6 7.3839C5.93855 7.44503 5.86508 7.49273 5.78423 7.52399C5.70339 7.55525 5.61694 7.56939 5.53035 7.5655Z" fill="#42749F"/>
</svg>
