<svg width="16" height="10" viewBox="0 0 16 10" fill="none" xmlns="http://www.w3.org/2000/svg">
<path d="M0.909091 5.89286L12.9091 5.89286L10.2727 8.48214C9.90909 8.83929 9.90909 9.375 10.2727 9.73214C10.6364 10.0893 11.1818 10.0893 11.5455 9.73214L15.7273 5.625C16.0909 5.26786 16.0909 4.73214 15.7273 4.375L11.5455 0.267858C11.1818 -0.0892844 10.6364 -0.0892844 10.2727 0.267858C9.90909 0.625 9.90909 1.16071 10.2727 1.51786L12.9091 4.10714L0.909092 4.10714C0.454546 4.10714 4.83947e-07 4.46428 4.37114e-07 5C3.9028e-07 5.53571 0.454546 5.89286 0.909091 5.89286Z" fill="#0F4C81"/>
</svg>
