<svg width="15" height="15" viewBox="0 0 15 15" fill="none" xmlns="http://www.w3.org/2000/svg">
<path d="M13.2611 5.15175V3.30445C13.2611 2.88926 13.0961 2.49106 12.8025 2.19747C12.5089 1.90389 12.1107 1.73895 11.6955 1.73895H9.88739L8.60368 0.455237C8.31036 0.16366 7.91358 0 7.5 0C7.08642 0 6.68964 0.16366 6.39632 0.455237L5.15175 1.73895H3.30445C2.88926 1.73895 2.49106 1.90389 2.19747 2.19747C1.90389 2.49106 1.73895 2.88926 1.73895 3.30445V5.15175L0.455237 6.39632C0.16366 6.68964 0 7.08642 0 7.5C0 7.91358 0.16366 8.31036 0.455237 8.60368L1.73895 9.88739V11.6955C1.73895 12.1107 1.90389 12.5089 2.19747 12.8025C2.49106 13.0961 2.88926 13.2611 3.30445 13.2611H5.15175L6.39632 14.5448C6.68964 14.8363 7.08642 15 7.5 15C7.91358 15 8.31036 14.8363 8.60368 14.5448L9.88739 13.2611H11.6955C12.1107 13.2611 12.5089 13.0961 12.8025 12.8025C13.0961 12.5089 13.2611 12.1107 13.2611 11.6955V9.88739L14.5448 8.60368C14.8363 8.31036 15 7.91358 15 7.5C15 7.08642 14.8363 6.68964 14.5448 6.39632L13.2611 5.15175Z" fill="#3B82F6"/>
<path d="M6.91294 9.45688C6.80992 9.45748 6.7078 9.43773 6.61243 9.39878C6.51707 9.35982 6.43032 9.30243 6.35718 9.22988L5.15175 8.05575C5.00435 7.90836 4.92155 7.70845 4.92155 7.5C4.92155 7.29155 5.00435 7.09164 5.15175 6.94425C5.29914 6.79685 5.49905 6.71405 5.7075 6.71405C5.91595 6.71405 6.11586 6.79685 6.26325 6.94425L6.88163 7.57045L8.67413 5.77012C8.82152 5.61442 9.02473 5.52365 9.23905 5.51778C9.45337 5.51191 9.66125 5.59141 9.81695 5.73881C9.97264 5.8862 10.0634 6.08941 10.0693 6.30373C10.0752 6.51805 9.99565 6.72593 9.84826 6.88163L7.5 9.22988C7.42318 9.30629 7.33134 9.36591 7.23029 9.40499C7.12924 9.44406 7.02117 9.46173 6.91294 9.45688Z" fill="white"/>
</svg>
