<svg width="11" height="10" viewBox="0 0 11 10" fill="none" xmlns="http://www.w3.org/2000/svg">
<path d="M7.94449 10H1.83334C1.3436 10 0.883217 9.82662 0.536958 9.51182C0.190699 9.19702 0 8.77848 0 8.33332V2.77777C0 2.33258 0.19072 1.91406 0.536979 1.59928C0.883238 1.2845 1.34362 1.11112 1.83336 1.11112H4.27781C4.61534 1.11112 4.88893 1.35984 4.88893 1.66668C4.88893 1.97352 4.61534 2.22224 4.27781 2.22224H1.83334C1.67009 2.22224 1.51664 2.28003 1.40124 2.38494C1.28583 2.48986 1.22224 2.62937 1.22224 2.77777V8.33332C1.22224 8.48173 1.28581 8.62122 1.40124 8.72618C1.51664 8.83107 1.67009 8.88888 1.83334 8.88888H7.94447C8.10771 8.88888 8.26116 8.83109 8.37659 8.72614C8.49199 8.62122 8.55556 8.48171 8.55556 8.3333V6.11111C8.55556 5.80427 8.82918 5.55557 9.1667 5.55557C9.50423 5.55557 9.77785 5.80429 9.77785 6.11111V8.33332C9.77785 8.77852 9.58712 9.19702 9.24084 9.51184C8.89456 9.82662 8.43416 10 7.94449 10ZM4.27781 6.66665C4.1214 6.66665 3.96501 6.61242 3.84569 6.50394C3.60705 6.28699 3.60705 5.9352 3.84569 5.71826L8.91356 1.11112H6.72227C6.38474 1.11112 6.11117 0.8624 6.11117 0.555559C6.11117 0.248718 6.38474 3.66898e-07 6.72227 3.66898e-07H10.389C10.5485 -0.000166486 10.7018 0.0565816 10.8159 0.158049L10.8159 0.158088L10.8171 0.159175L10.8175 0.159486L10.8223 0.16393L10.823 0.164551L10.8236 0.165114C10.8241 0.165481 10.8245 0.165876 10.8249 0.166297L10.8261 0.167404L10.8261 0.167442C10.9377 0.271129 11.0002 0.410472 11 0.55554V3.88887C11 4.19571 10.7264 4.44443 10.3889 4.44443C10.0513 4.44443 9.77776 4.19571 9.77776 3.88887V1.8968L4.70983 6.50396C4.5906 6.61244 4.43421 6.66665 4.27781 6.66665Z" fill="white"/>
</svg>
