<svg width="14" height="12" viewBox="0 0 14 12" fill="none" xmlns="http://www.w3.org/2000/svg">
<path d="M13.7201 9.02537L8.81534 0.994949C8.01421 -0.33165 5.98832 -0.33165 5.19006 0.994949L0.282394 9.02537C-0.518741 10.352 0.478355 12 2.09503 12H11.8902C13.5069 12 14.5213 10.3356 13.7201 9.02537ZM6.99982 10.2185C6.57332 10.2185 6.21886 9.88343 6.21886 9.48028C6.21886 9.07712 6.57332 8.74207 6.99982 8.74207C7.42633 8.74207 7.78078 9.07712 7.76349 9.49935C7.78367 9.88343 7.40904 10.2185 6.99982 10.2185ZM7.71162 5.446C7.67704 6.01805 7.63958 6.58737 7.605 7.15941C7.5877 7.34465 7.58771 7.51354 7.58771 7.69604C7.57042 7.99841 7.3197 8.23268 6.99982 8.23268C6.67994 8.23268 6.43211 8.01476 6.41194 7.71239C6.36007 6.82163 6.30531 5.94722 6.25344 5.05647C6.23615 4.8222 6.21886 4.58521 6.19869 4.35094C6.19869 3.96413 6.42923 3.64542 6.80386 3.54463C7.17849 3.46019 7.55024 3.62908 7.71162 3.96413C7.76638 4.08127 7.78367 4.1984 7.78367 4.3346C7.76638 4.70779 7.72891 5.07826 7.71162 5.446Z" fill="#FFBF37"/>
</svg>
